SplineFontDB: 3.2
FontName: Garamond
FullName: Garamond
FamilyName: Garamond
Weight: Book
Copyright: Digitized data copyright Monotype Typography, Ltd 1991-1995. All rights reserved. Monotype Garamond is a trademark of Monotype Typography, Ltd which may be registered in certain jurisdictions.
Version: 2.30
ItalicAngle: 0
UnderlinePosition: -205
UnderlineWidth: 102
Ascent: 1638
Descent: 410
InvalidEm: 0
sfntRevision: 0x00021998
LayerCount: 2
Layer: 0 1 "Back" 1
Layer: 1 1 "Fore" 0
XUID: [1021 575 -154957114 31026]
StyleMap: 0x0040
FSType: 8
OS2Version: 1
OS2_WeightWidthSlopeOnly: 0
OS2_UseTypoMetrics: 0
CreationTime: 820571777
ModificationTime: 894984726
PfmFamily: 17
TTFWeight: 400
TTFWidth: 5
LineGap: 0
VLineGap: 0
Panose: 2 2 4 4 3 3 1 1 8 3
OS2TypoAscent: 1339
OS2TypoAOffset: 0
OS2TypoDescent: -539
OS2TypoDOffset: 0
OS2TypoLinegap: 313
OS2WinAscent: 1765
OS2WinAOffset: 0
OS2WinDescent: 539
OS2WinDOffset: 0
HheadAscent: 1765
HheadAOffset: 0
HheadDescent: -539
HheadDOffset: 0
OS2SubXSize: 1434
OS2SubYSize: 1331
OS2SubXOff: 0
OS2SubYOff: 189
OS2SupXSize: 1434
OS2SupYSize: 1331
OS2SupXOff: 0
OS2SupYOff: 469
OS2StrikeYSize: 102
OS2StrikeYPos: 530
OS2FamilyClass: 258
OS2Vendor: 'MONO'
OS2CodePages: 0000009f.dfd70000
OS2UnicodeRanges: 00000287.00000000.00000000.00000000
Lookup: 258 0 0 "'kern' Horizontal Kerning in Latin lookup 0" { "'kern' Horizontal Kerning in Latin lookup 0 subtable"  } ['kern' ('DFLT' <'dflt' > 'latn' <'dflt' > ) ]
DEI: 91125
TtTable: prep
PUSHW_1
 559
PUSHB_3
 105
 39
 31
PUSHW_1
 553
PUSHB_7
 112
 51
 31
 149
 109
 51
 31
PUSHW_1
 550
PUSHB_3
 101
 51
 31
PUSHW_1
 549
PUSHB_3
 120
 51
 31
NPUSHW
 13
 556
 551
 32
 31
 552
 551
 51
 31
 551
 548
 51
 31
 548
PUSHB_3
 162
 51
 31
PUSHW_1
 545
PUSHB_3
 100
 51
 31
PUSHW_1
 544
PUSHB_7
 162
 62
 31
 98
 162
 76
 31
PUSHW_1
 543
PUSHB_3
 86
 103
 31
PUSHW_1
 486
PUSHB_3
 240
 77
 31
PUSHW_1
 541
PUSHB_3
 89
 100
 31
PUSHW_1
 540
NPUSHB
 21
 108
 26
 31
 94
 115
 64
 31
 207
 98
 207
 112
 207
 162
 3

StartChar: exclam
Encoding: 33 33 1
Width: 448
GlyphClass: 1
Flags: W
LayerCount: 2
Fore
SplineSet
243 290 m 1,0,1
 233 288 233 288 228 288 c 0,2,3
 221 288 221 288 207 291 c 1,4,-1
 175 867 l 2,5,6
 172 927 172 927 158 1020 c 0,7,8
 138 1144 138 1144 138 1198 c 256,9,10
 138 1252 138 1252 163 1279.5 c 128,-1,11
 188 1307 188 1307 224 1307 c 0,12,13
 263 1307 263 1307 290 1279.5 c 128,-1,14
 317 1252 317 1252 317 1202 c 0,15,16
 317 1156 317 1156 297 983 c 0,17,18
 258 651 258 651 256 552 c 2,19,-1
 248 312 l 2,20,21
 247 304 247 304 243 290 c 1,0,1
125 79 m 0,22,23
 125 121 125 121 155.5 151.5 c 128,-1,24
 186 182 186 182 230 182 c 0,25,26
 272 182 272 182 300.5 152.5 c 128,-1,27
 329 123 329 123 329 85 c 256,28,29
 329 47 329 47 296 11 c 128,-1,30
 263 -25 263 -25 230 -25 c 0,31,32
 194 -25 194 -25 159.5 10 c 128,-1,33
 125 45 125 45 125 79 c 0,22,23
EndSplineSet
EndChar

StartChar: quotedbl
Encoding: 34 34 2
Width: 832
GlyphClass: 1
Flags: W
LayerCount: 2
Fore
SplineSet
210 803 m 1,0,-1
 155 1099 l 2,1,2
 133 1221 133 1221 133 1265 c 0,3,4
 133 1329 133 1329 159.5 1358 c 128,-1,5
 186 1387 186 1387 231 1387 c 0,6,7
 274 1387 274 1387 303.5 1357.5 c 128,-1,8
 333 1328 333 1328 333 1281 c 0,9,10
 333 1239 333 1239 307 1098 c 2,11,-1
 253 803 l 1,12,-1
 210 803 l 1,0,-1
576 803 m 1,13,-1
 522 1095 l 1,14,-1
 500 1216 l 2,15,16
 498 1241 498 1241 498 1266 c 0,17,18
 498 1329 498 1329 526 1358 c 128,-1,19
 554 1387 554 1387 600 1387 c 0,20,21
 643 1387 643 1387 671.5 1358 c 128,-1,22
 700 1329 700 1329 700 1282 c 0,23,24
 700 1195 700 1195 681 1096 c 2,25,-1
 624 803 l 1,26,-1
 576 803 l 1,13,-1
EndSplineSet
EndChar

StartChar: numbersign
Encoding: 35 35 3
Width: 1365
GlyphClass: 1
Flags: W
LayerCount: 2
Fore
SplineSet
94 949 m 1,0,-1
 429 949 l 1,1,-1
 517 1365 l 1,2,-1
 604 1365 l 1,3,-1
 516 949 l 1,4,-1
 971 949 l 1,5,-1
 1058 1365 l 1,6,-1
 1146 1365 l 1,7,-1
 1058 949 l 1,8,-1
 1271 949 l 1,9,-1
 1271 861 l 1,10,-1
 1041 861 l 1,11,-1
 956 455 l 1,12,-1
 1271 455 l 1,13,-1
 1271 367 l 1,14,-1
 938 367 l 1,15,-1
 853 -47 l 1,16,-1
 764 -47 l 1,17,-1
 851 367 l 1,18,-1
 393 367 l 1,19,-1
 309 -47 l 1,20,-1
 220 -47 l 1,21,-1
 306 367 l 1,22,-1
 94 367 l 1,23,-1
 94 455 l 1,24,-1
 325 455 l 1,25,-1
 410 861 l 1,26,-1
 94 861 l 1,27,-1
 94 949 l 1,0,-1
497 861 m 1,28,-1
 412 457 l 1,29,-1
 869 457 l 1,30,-1
 954 861 l 1,31,-1
 497 861 l 1,28,-1
EndSplineSet
EndChar

StartChar: dollar
Encoding: 36 36 4
Width: 917
GlyphClass: 1
Flags: W
LayerCount: 2
Fore
SplineSet
335 59 m 1,0,1
 346 128 346 128 347 383 c 1,2,-1
 349 434 l 1,3,-1
 343 626 l 1,4,5
 282 652 282 652 211.5 704 c 128,-1,6
 141 756 141 756 113.5 813.5 c 128,-1,7
 86 871 86 871 86 945 c 0,8,9
 86 1046 86 1046 146 1125 c 128,-1,10
 206 1204 206 1204 315 1237 c 2,11,-1
 333 1243 l 1,12,-1
 333 1257 l 2,13,14
 333 1265 333 1265 339 1342 c 1,15,-1
 376 1341 l 1,16,17
 381 1278 381 1278 381 1246 c 1,18,19
 420 1250 420 1250 444 1250 c 0,20,21
 470 1250 470 1250 502 1246 c 0,22,23
 522 1244 522 1244 535 1243 c 1,24,-1
 535 1257 l 2,25,26
 535 1277 535 1277 538 1340 c 1,27,-1
 581 1340 l 1,28,29
 584 1321 584 1321 584 1290 c 0,30,31
 584 1258 584 1258 585 1237 c 1,32,33
 663 1217 663 1217 702 1197.5 c 128,-1,34
 741 1178 741 1178 779 1146 c 0,35,36
 789 1138 789 1138 816 1102 c 0,37,38
 825 1085 825 1085 825 1059 c 0,39,40
 825 1034 825 1034 807 1017 c 128,-1,41
 789 1000 789 1000 763 1000 c 0,42,43
 744 1000 744 1000 712 1025 c 0,44,45
 703 1037 703 1037 683 1059 c 0,46,47
 632 1132 632 1132 618.5 1143.5 c 128,-1,48
 605 1155 605 1155 578 1162 c 1,49,50
 571 1052 571 1052 571 1023 c 0,51,52
 571 1013 571 1013 573 988 c 0,53,54
 577 950 577 950 577 858 c 2,55,-1
 575 660 l 1,56,57
 581 654 581 654 591 649 c 2,58,-1
 685 587 l 2,59,60
 726 560 726 560 751 525 c 0,61,62
 799 457 799 457 817 403 c 0,63,64
 829 365 829 365 829 307 c 0,65,66
 829 201 829 201 766.5 120 c 128,-1,67
 704 39 704 39 608 8 c 0,68,69
 587 2 587 2 569 -7 c 1,70,71
 559 -54 559 -54 559 -63 c 2,72,-1
 562 -202 l 2,73,74
 562 -214 562 -214 556 -273 c 1,75,-1
 517 -273 l 1,76,77
 515 -235 515 -235 515 -217 c 0,78,79
 515 -202 515 -202 518 -131 c 0,80,81
 519 -110 519 -110 519 -96 c 0,82,83
 519 -80 519 -80 517 -56.5 c 128,-1,84
 515 -33 515 -33 515 -16 c 1,85,86
 488 -21 488 -21 384 -23 c 1,87,88
 376 -73 376 -73 373.5 -153.5 c 128,-1,89
 371 -234 371 -234 369 -272 c 1,90,-1
 332 -272 l 1,91,92
 335 -192 335 -192 335 -23 c 1,93,94
 321 -20 321 -20 299 -15 c 0,95,96
 188 10 188 10 136.5 61.5 c 128,-1,97
 85 113 85 113 85 162 c 0,98,99
 85 185 85 185 103 201.5 c 128,-1,100
 121 218 121 218 144 218 c 0,101,102
 189 218 189 218 253 134 c 0,103,104
 300 72 300 72 335 59 c 1,0,1
378 759 m 1,105,106
 409 741 409 741 507 694 c 0,107,108
 518 686 518 686 529 683 c 1,109,110
 530 719 530 719 530 725 c 2,111,-1
 536 1017 l 1,112,-1
 535 1075 l 1,113,-1
 536 1104 l 2,114,115
 536 1147 536 1147 528 1191 c 1,116,117
 480 1200 480 1200 437 1200 c 0,118,119
 403 1200 403 1200 375 1190 c 1,120,-1
 377 1047 l 1,121,-1
 375 913 l 2,122,123
 378 857 378 857 378 827 c 2,124,-1
 377 781 l 2,125,126
 377 776 377 776 378 759 c 1,105,106
332 780 m 1,127,128
 335 823 335 823 335 835 c 2,129,-1
 335 898 l 2,130,131
 337 988 337 988 337 1022 c 0,132,133
 337 1140 337 1140 332 1181 c 1,134,135
 255 1162 255 1162 220 1115 c 0,136,137
 171 1050 171 1050 171 984 c 0,138,139
 171 936 171 936 215 874.5 c 128,-1,140
 259 813 259 813 332 780 c 1,127,128
377 45 m 1,141,142
 422 28 422 28 477 28 c 0,143,144
 502 28 502 28 524 35 c 1,145,-1
 526 51 l 1,146,-1
 527 119 l 1,147,-1
 530 280 l 1,148,-1
 529 409 l 1,149,-1
 529 481 l 2,150,151
 529 495 529 495 526 530 c 1,152,153
 455 576 455 576 392 598 c 1,154,155
 387 584 387 584 387 578 c 2,156,-1
 375 163 l 1,157,-1
 376 145 l 1,158,-1
 376 97 l 2,159,160
 377 59 377 59 377 45 c 1,141,142
569 52 m 1,161,162
 643 83 643 83 679.5 137 c 128,-1,163
 716 191 716 191 716 268 c 0,164,165
 716 311 716 311 703 341 c 0,166,167
 674 407 674 407 650 432 c 0,168,169
 615 470 615 470 578 490 c 1,170,171
 575 471 575 471 574 459 c 2,172,-1
 572 253 l 1,173,-1
 565 84 l 1,174,-1
 566 75 l 1,175,-1
 569 52 l 1,161,162
EndSplineSet
EndChar

StartChar: percent
Encoding: 37 37 5
Width: 1685
GlyphClass: 1
Flags: W
LayerCount: 2
Fore
SplineSet
367 -67 m 1,0,1
 376 -48 376 -48 388 -30 c 128,-1,2
 400 -12 400 -12 419 20 c 0,3,4
 426 31 426 31 493.5 132.5 c 128,-1,5
 561 234 561 234 586 275 c 0,6,7
 1033 1033 1033 1033 1233 1304 c 1,8,-1
 1243 1305 l 1,9,10
 1290 1302 1290 1302 1296 1302 c 1,11,-1
 859 617 l 1,12,-1
 660 288 l 1,13,-1
 430 -65 l 1,14,-1
 423 -65 l 2,15,16
 418 -65 418 -65 375 -67 c 2,17,-1
 367 -67 l 1,0,1
584 954 m 0,18,19
 584 796 584 796 504.5 702.5 c 128,-1,20
 425 609 425 609 327 609 c 0,21,22
 227 609 227 609 150.5 698.5 c 128,-1,23
 74 788 74 788 74 944 c 0,24,25
 74 1052 74 1052 113 1146 c 0,26,27
 143 1216 143 1216 203 1260 c 128,-1,28
 263 1304 263 1304 332 1304 c 0,29,30
 402 1304 402 1304 463.5 1258 c 128,-1,31
 525 1212 525 1212 561 1121 c 0,32,33
 584 1060 584 1060 584 954 c 0,18,19
472 935 m 0,34,35
 472 1083 472 1083 464 1128 c 0,36,37
 450 1204 450 1204 416 1236 c 128,-1,38
 382 1268 382 1268 332 1268 c 0,39,40
 265 1268 265 1268 227 1210.5 c 128,-1,41
 189 1153 189 1153 189 931 c 0,42,43
 189 756 189 756 228 700 c 128,-1,44
 267 644 267 644 326 644 c 0,45,46
 394 644 394 644 428 692 c 0,47,48
 472 755 472 755 472 935 c 0,34,35
1617 329 m 0,49,50
 1617 171 1617 171 1537 78 c 128,-1,51
 1457 -15 1457 -15 1359 -15 c 0,52,53
 1260 -15 1260 -15 1183 74.5 c 128,-1,54
 1106 164 1106 164 1106 319 c 0,55,56
 1106 428 1106 428 1146 522 c 0,57,58
 1175 591 1175 591 1235 635.5 c 128,-1,59
 1295 680 1295 680 1364 680 c 0,60,61
 1434 680 1434 680 1496 634 c 128,-1,62
 1558 588 1558 588 1593 496 c 0,63,64
 1617 436 1617 436 1617 329 c 0,49,50
1505 311 m 0,65,66
 1505 458 1505 458 1496 503 c 0,67,68
 1482 580 1482 580 1448 611.5 c 128,-1,69
 1414 643 1414 643 1364 643 c 0,70,71
 1298 643 1298 643 1259.5 586 c 128,-1,72
 1221 529 1221 529 1221 307 c 0,73,74
 1221 131 1221 131 1260 75 c 128,-1,75
 1299 19 1299 19 1359 19 c 0,76,77
 1426 19 1426 19 1460 67 c 0,78,79
 1505 130 1505 130 1505 311 c 0,65,66
EndSplineSet
EndChar

StartChar: ampersand
Encoding: 38 38 6
Width: 1493
GlyphClass: 1
Flags: W
LayerCount: 2
Fore
SplineSet
446 712 m 1,0,1
 352 832 352 832 325.5 889 c 128,-1,2
 299 946 299 946 299 997 c 0,3,4
 299 1085 299 1085 372 1151 c 128,-1,5
 445 1217 445 1217 580 1217 c 0,6,7
 705 1217 705 1217 773.5 1153 c 128,-1,8
 842 1089 842 1089 842 994 c 0,9,10
 842 904 842 904 796 844 c 128,-1,11
 750 784 750 784 644 737 c 1,12,13
 679 688 679 688 756 601 c 0,14,15
 782 572 782 572 795 555 c 2,16,-1
 966 342 l 1,17,18
 1051 438 1051 438 1091.5 516.5 c 128,-1,19
 1132 595 1132 595 1132 637 c 0,20,21
 1132 666 1132 666 1113.5 687 c 128,-1,22
 1095 708 1095 708 1050 720 c 1,23,24
 1046 730 1046 730 1046 735 c 2,25,-1
 1048 744 l 1,26,-1
 1163 755 l 2,27,28
 1198 760 1198 760 1262 762 c 128,-1,29
 1326 764 1326 764 1440 773 c 1,30,-1
 1442 761 l 2,31,32
 1442 755 1442 755 1438 744 c 1,33,34
 1368 714 1368 714 1318.5 675.5 c 128,-1,35
 1269 637 1269 637 1168.5 519.5 c 128,-1,36
 1068 402 1068 402 996 303 c 1,37,38
 1123 151 1123 151 1174.5 116.5 c 128,-1,39
 1226 82 1226 82 1285 82 c 0,40,41
 1350 82 1350 82 1398 121 c 0,42,43
 1430 146 1430 146 1444 146 c 0,44,45
 1449 146 1449 146 1461 142 c 1,46,47
 1439 48 1439 48 1420 33 c 0,48,49
 1344 -30 1344 -30 1253 -30 c 0,50,51
 1197 -30 1197 -30 1148.5 -12.5 c 128,-1,52
 1100 5 1100 5 1048 42 c 0,53,54
 1018 64 1018 64 947 133 c 0,55,56
 902 177 902 177 888 189 c 1,57,58
 808 109 808 109 769 80 c 0,59,60
 700 29 700 29 618.5 0 c 128,-1,61
 537 -29 537 -29 432 -29 c 0,62,63
 303 -29 303 -29 217.5 25 c 128,-1,64
 132 79 132 79 93.5 165 c 128,-1,65
 55 251 55 251 55 329 c 0,66,67
 55 389 55 389 77 444.5 c 128,-1,68
 99 500 99 500 135 539.5 c 128,-1,69
 171 579 171 579 232 621 c 0,70,71
 253 635 253 635 335 676 c 0,72,73
 386 701 386 701 446 712 c 1,0,1
607 775 m 1,74,75
 663 799 663 799 695 856 c 128,-1,76
 727 913 727 913 727 977 c 0,77,78
 727 1072 727 1072 683 1122.5 c 128,-1,79
 639 1173 639 1173 571 1173 c 0,80,81
 510 1173 510 1173 472 1136.5 c 128,-1,82
 434 1100 434 1100 434 1049 c 0,83,84
 434 996 434 996 474 933 c 0,85,86
 531 845 531 845 607 775 c 1,74,75
861 226 m 1,87,-1
 853 237 l 1,88,-1
 850 241 l 1,89,-1
 627 507 l 2,90,91
 586 558 586 558 475 680 c 1,92,93
 350 633 350 633 285.5 546 c 128,-1,94
 221 459 221 459 221 362 c 0,95,96
 221 335 221 335 237.5 286 c 128,-1,97
 254 237 254 237 297 190.5 c 128,-1,98
 340 144 340 144 406 118 c 128,-1,99
 472 92 472 92 557 92 c 0,100,101
 655 92 655 92 734.5 130.5 c 128,-1,102
 814 169 814 169 861 226 c 1,87,-1
EndSplineSet
EndChar

StartChar: quotesingle
Encoding: 39 39 7
Width: 363
GlyphClass: 1
Flags: W
LayerCount: 2
Fore
SplineSet
158 803 m 1,0,-1
 104 1099 l 2,1,2
 81 1222 81 1222 81 1265 c 0,3,4
 81 1329 81 1329 107 1358 c 128,-1,5
 133 1387 133 1387 178 1387 c 256,6,7
 223 1387 223 1387 252.5 1357.5 c 128,-1,8
 282 1328 282 1328 282 1282 c 0,9,10
 282 1242 282 1242 256 1098 c 2,11,-1
 202 803 l 1,12,-1
 158 803 l 1,0,-1
EndSplineSet
EndChar

StartChar: parenleft
Encoding: 40 40 8
Width: 597
GlyphClass: 1
Flags: W
LayerCount: 2
Fore
SplineSet
608 1309 m 1,0,1
 619 1282 619 1282 634 1256 c 1,2,3
 623 1245 623 1245 579 1205 c 0,4,5
 513 1143 513 1143 478 1092 c 0,6,7
 387 961 387 961 344 869.5 c 128,-1,8
 301 778 301 778 276 658.5 c 128,-1,9
 251 539 251 539 251 377 c 0,10,11
 251 266 251 266 271.5 162 c 128,-1,12
 292 58 292 58 344.5 -59 c 128,-1,13
 397 -176 397 -176 483 -299 c 0,14,15
 522 -356 522 -356 579 -406 c 0,16,17
 589 -415 589 -415 614 -440 c 2,18,-1
 628 -454 l 1,19,-1
 607 -502 l 1,20,21
 520 -451 520 -451 454 -372 c 0,22,23
 340 -237 340 -237 276.5 -109 c 128,-1,24
 213 19 213 19 191 141 c 0,25,26
 157 328 157 328 157 410 c 0,27,28
 157 546 157 546 192 692 c 128,-1,29
 227 838 227 838 309 985 c 0,30,31
 364 1084 364 1084 469 1199 c 0,32,33
 535 1271 535 1271 608 1309 c 1,0,1
EndSplineSet
EndChar

StartChar: parenright
Encoding: 41 41 9
Width: 597
GlyphClass: 1
Flags: W
LayerCount: 2
Fore
SplineSet
-44 -448 m 1,0,1
 -13 -418 -13 -418 8 -399 c 0,2,3
 76 -340 76 -340 121 -273 c 0,4,5
 215 -135 215 -135 249 -62 c 0,6,7
 296 39 296 39 320.5 158 c 128,-1,8
 345 277 345 277 345 409 c 0,9,10
 345 563 345 563 318 677.5 c 128,-1,11
 291 792 291 792 229.5 916.5 c 128,-1,12
 168 1041 168 1041 102 1128 c 0,13,14
 90 1145 90 1145 -27 1262 c 1,15,-1
 -7 1311 l 1,16,17
 74 1263 74 1263 143 1184 c 0,18,19
 248 1063 248 1063 316 927 c 128,-1,20
 384 791 384 791 405 669 c 0,21,22
 438 481 438 481 438 389 c 0,23,24
 438 273 438 273 405 127.5 c 128,-1,25
 372 -18 372 -18 287 -172 c 0,26,27
 222 -290 222 -290 104 -410 c 0,28,29
 53 -462 53 -462 -18 -500 c 1,30,31
 -28 -475 -28 -475 -44 -448 c 1,0,1
EndSplineSet
EndChar

StartChar: asterisk
Encoding: 42 42 10
Width: 875
GlyphClass: 1
Flags: W
LayerCount: 2
Fore
SplineSet
59 725 m 1,0,1
 104 759 104 759 358 883 c 1,2,-1
 370 892 l 1,3,4
 349 906 349 906 311 927 c 0,5,6
 305 930 305 930 222 979 c 0,7,8
 206 989 206 989 68 1063 c 1,9,10
 85 1101 85 1101 105 1133 c 1,11,12
 344 971 344 971 397 942 c 1,13,14
 398 972 398 972 398 978 c 2,15,-1
 397 1085 l 1,16,-1
 399 1184 l 2,17,18
 399 1235 399 1235 394 1293 c 1,19,20
 435 1294 435 1294 471 1293 c 1,21,-1
 471 1272 l 2,22,23
 471 1252 471 1252 465 1152 c 2,24,-1
 458 1004 l 2,25,26
 456 987 456 987 456 979 c 0,27,28
 456 966 456 966 460 941 c 1,29,30
 480 952 480 952 495 964 c 0,31,32
 585 1031 585 1031 767 1127 c 1,33,34
 786 1095 786 1095 805 1060 c 1,35,36
 787 1049 787 1049 604 955 c 0,37,38
 499 901 499 901 490 895 c 1,39,40
 520 876 520 876 553 860 c 0,41,42
 601 837 601 837 610 832 c 2,43,-1
 713 775 l 2,44,45
 753 756 753 756 763 751 c 0,46,47
 777 742 777 742 803 724 c 1,48,49
 787 695 787 695 763 659 c 1,50,51
 752 665 752 665 678.5 711 c 128,-1,52
 605 757 605 757 585 771 c 0,53,54
 508 826 508 826 460 846 c 1,55,-1
 459 818 l 1,56,57
 459 617 459 617 466 557 c 0,58,59
 471 523 471 523 471 493 c 1,60,-1
 442 492 l 2,61,62
 426 492 426 492 394 498 c 1,63,64
 393 518 393 518 393 533 c 2,65,-1
 393 560 l 1,66,-1
 398 793 l 1,67,-1
 400 838 l 1,68,69
 360 818 360 818 277 763.5 c 128,-1,70
 194 709 194 709 95 660 c 1,71,-1
 59 725 l 1,0,1
EndSplineSet
EndChar

StartChar: plus
Encoding: 43 43 11
Width: 1365
GlyphClass: 1
Flags: W
LayerCount: 2
Fore
SplineSet
145 678 m 1,0,-1
 637 678 l 1,1,-1
 637 1173 l 1,2,-1
 725 1173 l 1,3,-1
 725 678 l 1,4,-1
 1220 678 l 1,5,-1
 1220 590 l 1,6,-1
 725 590 l 1,7,-1
 725 101 l 1,8,-1
 637 101 l 1,9,-1
 637 590 l 1,10,-1
 145 590 l 1,11,-1
 145 678 l 1,0,-1
EndSplineSet
EndChar

StartChar: comma
Encoding: 44 44 12
Width: 448
GlyphClass: 1
Flags: W
LayerCount: 2
Fore
SplineSet
84 -356 m 1,0,-1
 85 -325 l 1,1,2
 97 -319 97 -319 109 -314 c 0,3,4
 214 -264 214 -264 249.5 -210.5 c 128,-1,5
 285 -157 285 -157 285 -115 c 0,6,7
 285 -87 285 -87 265 -66 c 256,8,9
 245 -45 245 -45 196.5 -34.5 c 128,-1,10
 148 -24 148 -24 133 -18 c 0,11,12
 123 -14 123 -14 108 2 c 1,13,14
 98 23 98 23 98 42 c 0,15,16
 98 89 98 89 117 106 c 0,17,18
 157 141 157 141 200 141 c 0,19,20
 276 141 276 141 332 82.5 c 128,-1,21
 388 24 388 24 388 -64 c 0,22,23
 388 -125 388 -125 348 -196 c 128,-1,24
 308 -267 308 -267 227 -311 c 128,-1,25
 146 -355 146 -355 84 -356 c 1,0,-1
EndSplineSet
EndChar

StartChar: hyphen
Encoding: 45 45 13
Width: 640
GlyphClass: 1
Flags: W
LayerCount: 2
Fore
SplineSet
82 442 m 1,0,-1
 96 442 l 1,1,-1
 174 441 l 1,2,-1
 308 446 l 1,3,-1
 406 443 l 1,4,-1
 457 445 l 2,5,6
 528 445 528 445 562 436 c 1,7,-1
 564 357 l 1,8,9
 502 352 502 352 464 352 c 0,10,11
 429 352 429 352 393 355 c 0,12,13
 345 358 345 358 335 358 c 2,14,-1
 293 357 l 2,15,16
 275 356 275 356 250 356 c 0,17,18
 125 356 125 356 78 367 c 1,19,-1
 76 396 l 2,20,21
 76 413 76 413 82 442 c 1,0,-1
EndSplineSet
EndChar

StartChar: period
Encoding: 46 46 14
Width: 448
GlyphClass: 1
Flags: W
LayerCount: 2
Fore
SplineSet
120 81 m 0,0,1
 120 125 120 125 152.5 158 c 128,-1,2
 185 191 185 191 228 191 c 0,3,4
 270 191 270 191 299 160 c 128,-1,5
 328 129 328 129 328 82 c 256,6,7
 328 35 328 35 297.5 3 c 128,-1,8
 267 -29 267 -29 224 -29 c 0,9,10
 182 -29 182 -29 151 3.5 c 128,-1,11
 120 36 120 36 120 81 c 0,0,1
EndSplineSet
EndChar

StartChar: slash
Encoding: 47 47 15
Width: 1024
GlyphClass: 1
Flags: W
LayerCount: 2
Fore
SplineSet
820 1426 m 1,0,-1
 908 1426 l 1,1,-1
 203 -277 l 1,2,-1
 116 -277 l 1,3,-1
 820 1426 l 1,0,-1
EndSplineSet
EndChar

StartChar: zero
Encoding: 48 48 16
Width: 960
GlyphClass: 1
Flags: W
LayerCount: 2
Fore
SplineSet
896 631 m 0,0,1
 896 528 896 528 881 448 c 0,2,3
 854 310 854 310 806 217 c 128,-1,4
 758 124 758 124 692 60 c 0,5,6
 644 13 644 13 590 -8.5 c 128,-1,7
 536 -30 536 -30 480 -30 c 0,8,9
 381 -30 381 -30 292.5 36 c 128,-1,10
 204 102 204 102 138 254 c 128,-1,11
 72 406 72 406 72 612 c 0,12,13
 72 773 72 773 112 921 c 128,-1,14
 152 1069 152 1069 217.5 1150.5 c 128,-1,15
 283 1232 283 1232 347.5 1268 c 128,-1,16
 412 1304 412 1304 488 1304 c 0,17,18
 595 1304 595 1304 695.5 1220 c 128,-1,19
 796 1136 796 1136 856 959 c 0,20,21
 896 840 896 840 896 631 c 0,0,1
746 664 m 2,22,23
 745 910 745 910 728 998 c 0,24,25
 700 1143 700 1143 636.5 1201 c 128,-1,26
 573 1259 573 1259 488 1259 c 0,27,28
 417 1259 417 1259 353.5 1213 c 128,-1,29
 290 1167 290 1167 266 1069 c 0,30,31
 225 910 225 910 225 587 c 0,32,33
 225 267 225 267 288.5 139.5 c 128,-1,34
 352 12 352 12 479 12 c 0,35,36
 566 12 566 12 629.5 66 c 128,-1,37
 693 120 693 120 720.5 266.5 c 128,-1,38
 748 413 748 413 747 595 c 2,39,-1
 746 664 l 2,22,23
EndSplineSet
EndChar

StartChar: one
Encoding: 49 49 17
Width: 960
GlyphClass: 1
Flags: W
LayerCount: 2
Fore
SplineSet
726 2 m 1,0,-1
 268 2 l 1,1,2
 267 11 267 11 267 17 c 0,3,4
 267 34 267 34 274 40.5 c 128,-1,5
 281 47 281 47 318 54 c 0,6,7
 376 66 376 66 412 83 c 1,8,9
 422 105 422 105 422 124 c 2,10,-1
 422 186 l 2,11,12
 422 197 422 197 425 287 c 0,13,14
 426 321 426 321 427 581 c 2,15,-1
 429 816 l 1,16,-1
 427 953 l 2,17,18
 427 983 427 983 429 1142 c 1,19,20
 202 980 202 980 180 980 c 0,21,22
 172 980 172 980 163 988.5 c 128,-1,23
 154 997 154 997 154 1005 c 0,24,25
 154 1015 154 1015 161 1021 c 0,26,27
 175 1034 175 1034 228 1064 c 0,28,29
 236 1068 236 1068 297 1118 c 0,30,31
 394 1199 394 1199 439 1245 c 128,-1,32
 484 1291 484 1291 494 1297 c 1,33,34
 514 1298 514 1298 525 1298 c 0,35,36
 551 1298 551 1298 557.5 1289.5 c 128,-1,37
 564 1281 564 1281 564 1228 c 2,38,-1
 557 337 l 1,39,-1
 557 249 l 2,40,41
 557 217 557 217 556 184.5 c 128,-1,42
 555 152 555 152 555 137 c 0,43,44
 555 101 555 101 564 90 c 0,45,46
 570 83 570 83 601 72 c 1,47,-1
 669 58 l 2,48,49
 713 47 713 47 717 43 c 0,50,51
 727 34 727 34 727 15 c 2,52,-1
 726 2 l 1,0,-1
EndSplineSet
EndChar

StartChar: two
Encoding: 50 50 18
Width: 960
GlyphClass: 1
Flags: W
LayerCount: 2
Fore
SplineSet
873 2 m 1,0,1
 723 8 723 8 471 8 c 1,2,-1
 254 2 l 1,3,-1
 157 5 l 1,4,-1
 80 2 l 2,5,6
 68 3 68 3 45 7 c 1,7,8
 63 49 63 49 91 84 c 0,9,10
 174 186 174 186 334 347 c 0,11,12
 558 572 558 572 629 700.5 c 128,-1,13
 700 829 700 829 700 942 c 0,14,15
 700 1048 700 1048 628 1120 c 128,-1,16
 556 1192 556 1192 451 1192 c 0,17,18
 388 1192 388 1192 329 1162.5 c 128,-1,19
 270 1133 270 1133 234 1088 c 0,20,21
 211 1059 211 1059 173 972 c 0,22,23
 152 924 152 924 148 920 c 0,24,25
 142 913 142 913 134 913 c 256,26,27
 126 913 126 913 118.5 921.5 c 128,-1,28
 111 930 111 930 111 943 c 0,29,30
 111 988 111 988 156.5 1087 c 128,-1,31
 202 1186 202 1186 290.5 1242 c 128,-1,32
 379 1298 379 1298 496 1298 c 0,33,34
 649 1298 649 1298 751.5 1198.5 c 128,-1,35
 854 1099 854 1099 854 961 c 0,36,37
 854 852 854 852 784 739.5 c 128,-1,38
 714 627 714 627 462 395 c 0,39,40
 379 319 379 319 344 283 c 128,-1,41
 309 247 309 247 203 127 c 1,42,43
 356 121 356 121 481 121 c 0,44,45
 508 121 508 121 540 123 c 0,46,47
 599 125 599 125 609 125 c 2,48,-1
 748 122 l 2,49,50
 771 122 771 122 795 144 c 128,-1,51
 819 166 819 166 860 268 c 1,52,-1
 884 269 l 2,53,54
 889 269 889 269 899 268 c 1,55,56
 904 258 904 258 904 253 c 2,57,-1
 902 245 l 2,58,59
 894 216 894 216 888 139 c 0,60,61
 884 94 884 94 873 2 c 1,0,1
EndSplineSet
EndChar

StartChar: three
Encoding: 51 51 19
Width: 960
GlyphClass: 1
Flags: W
LayerCount: 2
Fore
SplineSet
171 1008 m 1,0,-1
 138 1026 l 1,1,2
 201 1179 201 1179 288 1241.5 c 128,-1,3
 375 1304 375 1304 491 1304 c 0,4,5
 599 1304 599 1304 664 1256 c 0,6,7
 761 1184 761 1184 761 1094 c 0,8,9
 761 1021 761 1021 711.5 947 c 128,-1,10
 662 873 662 873 538 781 c 1,11,-1
 562 782 l 2,12,13
 640 782 640 782 712.5 742.5 c 128,-1,14
 785 703 785 703 827 619.5 c 128,-1,15
 869 536 869 536 869 440 c 0,16,17
 869 247 869 247 727.5 109.5 c 128,-1,18
 586 -28 586 -28 367 -28 c 0,19,20
 201 -28 201 -28 122 20 c 0,21,22
 79 45 79 45 79 83 c 0,23,24
 79 104 79 104 96.5 121 c 128,-1,25
 114 138 114 138 140 138 c 0,26,27
 173 138 173 138 220 102 c 0,28,29
 331 17 331 17 413 17 c 0,30,31
 537 17 537 17 633 121.5 c 128,-1,32
 729 226 729 226 729 385 c 0,33,34
 729 517 729 517 664.5 601.5 c 128,-1,35
 600 686 600 686 501 686 c 0,36,37
 427 686 427 686 347 616 c 1,38,-1
 323 656 l 1,39,40
 373 699 373 699 413 729 c 0,41,42
 535 818 535 818 595 904 c 0,43,44
 638 966 638 966 638 1013 c 0,45,46
 638 1092 638 1092 582 1146.5 c 128,-1,47
 526 1201 526 1201 435 1201 c 0,48,49
 285 1201 285 1201 171 1008 c 1,0,-1
EndSplineSet
EndChar

StartChar: four
Encoding: 52 52 20
Width: 960
GlyphClass: 1
Flags: W
LayerCount: 2
Fore
SplineSet
671 1304 m 1,0,-1
 717 1304 l 1,1,2
 716 1273 716 1273 716 1267 c 2,3,-1
 719 1120 l 1,4,-1
 713 988 l 1,5,-1
 717 841 l 1,6,-1
 717 725 l 1,7,-1
 719 567 l 2,8,9
 719 530 719 530 717 455 c 1,10,-1
 738 454 l 1,11,-1
 809 454 l 1,12,-1
 877 453 l 1,13,-1
 933 455 l 1,14,15
 935 424 935 424 935 409 c 256,16,17
 935 394 935 394 933 363 c 1,18,19
 871 360 871 360 866 360 c 2,20,-1
 816 361 l 1,21,-1
 776 361 l 2,22,23
 760 361 760 361 717 363 c 1,24,25
 715 221 715 221 717 -14 c 1,26,27
 711 -20 711 -20 704 -22 c 2,28,-1
 642 -24 l 2,29,30
 622 -24 622 -24 581 -22 c 1,31,32
 584 96 584 96 584 147 c 0,33,34
 584 192 584 192 582 229 c 0,35,36
 579 297 579 297 579 307 c 0,37,38
 579 325 579 325 581 363 c 1,39,40
 539 358 539 358 516 358 c 0,41,42
 504 358 504 358 489 359 c 0,43,44
 388 364 388 364 375 364 c 256,45,46
 362 364 362 364 311 357 c 1,47,-1
 208 363 l 1,48,-1
 152 360 l 1,49,-1
 114 366 l 1,50,-1
 66 356 l 1,51,-1
 57 363 l 1,52,53
 55 385 55 385 55 396 c 256,54,55
 55 407 55 407 57 429 c 1,56,57
 85 466 85 466 160 579 c 2,58,-1
 355 862 l 2,59,60
 427 969 427 969 476 1032 c 128,-1,61
 525 1095 525 1095 573 1167.5 c 128,-1,62
 621 1240 621 1240 671 1304 c 1,0,-1
581 455 m 1,63,-1
 582 619 l 1,64,-1
 581 749 l 1,65,-1
 581 1084 l 1,66,67
 499 976 499 976 353 757 c 0,68,69
 186 507 186 507 155 455 c 1,70,71
 199 457 199 457 221 457 c 2,72,-1
 495 453 l 2,73,74
 525 453 525 453 581 455 c 1,63,-1
EndSplineSet
EndChar

StartChar: five
Encoding: 53 53 21
Width: 960
GlyphClass: 1
Flags: W
LayerCount: 2
Fore
SplineSet
758 1154 m 1,0,1
 646 1145 646 1145 577 1145 c 0,2,3
 526 1145 526 1145 469 1148 c 0,4,5
 438 1150 438 1150 432 1150 c 0,6,7
 310 1150 310 1150 301 1145 c 0,8,9
 297 1143 297 1143 296 1136 c 0,10,11
 293 1120 293 1120 270 779 c 1,12,13
 315 802 315 802 357 811.5 c 128,-1,14
 399 821 399 821 468 821 c 0,15,16
 517 821 517 821 536 815 c 0,17,18
 631 784 631 784 673 759 c 0,19,20
 731 723 731 723 767.5 677 c 128,-1,21
 804 631 804 631 835 542 c 0,22,23
 857 478 857 478 857 408 c 0,24,25
 857 332 857 332 835.5 266.5 c 128,-1,26
 814 201 814 201 782 157 c 128,-1,27
 750 113 750 113 687 65.5 c 128,-1,28
 624 18 624 18 538.5 -7 c 128,-1,29
 453 -32 453 -32 424 -33 c 2,30,-1
 279 -20 l 1,31,32
 219 -10 219 -10 174 12.5 c 128,-1,33
 129 35 129 35 114 56 c 0,34,35
 105 69 105 69 105 90 c 0,36,37
 105 106 105 106 127.5 125 c 128,-1,38
 150 144 150 144 183 144 c 0,39,40
 198 144 198 144 216 135 c 2,41,-1
 295 84 l 1,42,43
 322 60 322 60 362 39 c 0,44,45
 368 36 368 36 392 32 c 0,46,47
 450 24 450 24 455 24 c 0,48,49
 477 24 477 24 530 42 c 128,-1,50
 583 60 583 60 628 103.5 c 128,-1,51
 673 147 673 147 705.5 213.5 c 128,-1,52
 738 280 738 280 738 361 c 0,53,54
 738 506 738 506 647 600 c 128,-1,55
 556 694 556 694 428 694 c 0,56,57
 371 694 371 694 322.5 675 c 128,-1,58
 274 656 274 656 257 633 c 1,59,-1
 242 627 l 2,60,61
 230 622 230 622 225 622 c 2,62,-1
 212 625 l 1,63,64
 209 643 209 643 209 652 c 0,65,66
 209 660 209 660 212 680 c 0,67,68
 219 729 219 729 219.5 781.5 c 128,-1,69
 220 834 220 834 230 876 c 1,70,-1
 227 924 l 1,71,72
 234 961 234 961 235 995 c 0,73,74
 238 1225 238 1225 254 1259 c 0,75,76
 261 1275 261 1275 278 1275 c 0,77,78
 285 1275 285 1275 301 1273 c 2,79,-1
 307 1272 l 1,80,-1
 434 1273 l 1,81,82
 520 1268 520 1268 561 1268 c 0,83,84
 655 1268 655 1268 712 1281 c 1,85,86
 740 1307 740 1307 755 1307 c 0,87,88
 761 1307 761 1307 777 1305 c 1,89,-1
 780 1293 l 1,90,-1
 772 1251 l 1,91,-1
 767 1184 l 2,92,93
 766 1177 766 1177 758 1154 c 1,0,1
EndSplineSet
EndChar

StartChar: six
Encoding: 54 54 22
Width: 960
GlyphClass: 1
Flags: W
LayerCount: 2
Fore
SplineSet
787 1310 m 1,0,1
 796 1295 796 1295 800 1277 c 1,2,3
 794 1266 794 1266 781 1262 c 0,4,5
 739 1251 739 1251 657 1204 c 0,6,7
 638 1194 638 1194 541 1111 c 1,8,9
 498 1081 498 1081 437 999 c 0,10,11
 354 889 354 889 318 802.5 c 128,-1,12
 282 716 282 716 254 576 c 0,13,14
 246 536 246 536 243 435 c 1,15,-1
 240 398 l 1,16,17
 240 270 240 270 315.5 142.5 c 128,-1,18
 391 15 391 15 504 15 c 0,19,20
 563 15 563 15 614.5 51 c 128,-1,21
 666 87 666 87 696 173 c 128,-1,22
 726 259 726 259 726 381 c 0,23,24
 726 547 726 547 662.5 626.5 c 128,-1,25
 599 706 599 706 510 706 c 0,26,27
 483 706 483 706 462 698 c 2,28,-1
 454 696 l 2,29,30
 441 696 441 696 427 725 c 1,31,32
 453 742 453 742 490 753 c 128,-1,33
 527 764 527 764 538 764 c 0,34,35
 545 764 545 764 629 749 c 1,36,-1
 658 735 l 1,37,38
 706 720 706 720 731 700 c 0,39,40
 777 663 777 663 813 607 c 0,41,42
 831 578 831 578 861 489 c 0,43,44
 863 483 863 483 875 401 c 1,45,-1
 870 301 l 1,46,47
 849 211 849 211 830 175 c 0,48,49
 802 120 802 120 736 55 c 0,50,51
 702 22 702 22 648 1 c 0,52,53
 572 -28 572 -28 487 -28 c 0,54,55
 325 -28 325 -28 212.5 101.5 c 128,-1,56
 100 231 100 231 100 477 c 0,57,58
 100 614 100 614 142 736.5 c 128,-1,59
 184 859 184 859 261 961 c 0,60,61
 313 1030 313 1030 402.5 1109 c 128,-1,62
 492 1188 492 1188 572 1232 c 0,63,64
 681 1290 681 1290 787 1310 c 1,0,1
EndSplineSet
EndChar

StartChar: seven
Encoding: 55 55 23
Width: 960
GlyphClass: 1
Flags: W
LayerCount: 2
Fore
SplineSet
109 1264 m 1,0,1
 232 1269 232 1269 441 1269 c 0,2,3
 536 1269 536 1269 658 1266 c 0,4,5
 732 1263 732 1263 755 1263 c 2,6,-1
 852 1264 l 1,7,-1
 875 1264 l 1,8,9
 883 1256 883 1256 883 1249 c 0,10,11
 883 1237 883 1237 860 1191 c 0,12,13
 849 1171 849 1171 763 972 c 0,14,15
 721 874 721 874 660 715 c 1,16,-1
 534 360 l 2,17,18
 489 238 489 238 476 190 c 2,19,-1
 453 97 l 2,20,21
 439 56 439 56 439 37 c 0,22,23
 439 22 439 22 456 -10 c 1,24,25
 444 -26 444 -26 402 -26 c 0,26,27
 383 -26 383 -26 366 -10 c 1,28,29
 372 49 372 49 404 146 c 0,30,31
 416 181 416 181 445 284 c 128,-1,32
 474 387 474 387 502 466 c 2,33,-1
 616 776 l 2,34,35
 665 908 665 908 711 1019 c 0,36,37
 727 1056 727 1056 735 1071 c 0,38,39
 756 1108 756 1108 756 1132 c 1,40,-1
 743 1131 l 1,41,-1
 732 1131 l 1,42,-1
 600 1135 l 2,43,44
 594 1135 594 1135 558 1133 c 128,-1,45
 522 1131 522 1131 504 1131 c 2,46,-1
 349 1132 l 1,47,-1
 302 1132 l 1,48,-1
 236 1134 l 2,49,50
 178 1135 178 1135 163.5 1120.5 c 128,-1,51
 149 1106 149 1106 147 1046 c 0,52,53
 146 1031 146 1031 139 1017 c 1,54,55
 128 1014 128 1014 123 1014 c 0,56,57
 112 1014 112 1014 94 1022 c 1,58,59
 95 1047 95 1047 95 1059 c 2,60,-1
 97 1089 l 1,61,-1
 94 1144 l 2,62,63
 94 1216 94 1216 98 1241 c 0,64,65
 100 1251 100 1251 109 1264 c 1,0,1
EndSplineSet
EndChar

StartChar: eight
Encoding: 56 56 24
Width: 960
GlyphClass: 1
Flags: W
LayerCount: 2
Fore
SplineSet
386 639 m 1,0,1
 289 691 289 691 254 722 c 0,2,3
 204 765 204 765 170.5 833 c 128,-1,4
 137 901 137 901 137 972 c 0,5,6
 137 1096 137 1096 235.5 1196.5 c 128,-1,7
 334 1297 334 1297 477 1297 c 0,8,9
 638 1297 638 1297 732 1212 c 128,-1,10
 826 1127 826 1127 826 1005 c 0,11,12
 826 937 826 937 798 881 c 128,-1,13
 770 825 770 825 715 780 c 0,14,15
 678 749 678 749 588 703 c 1,16,17
 725 630 725 630 751 609 c 0,18,19
 805 567 805 567 842 498 c 128,-1,20
 879 429 879 429 879 345 c 0,21,22
 879 188 879 188 770.5 80 c 128,-1,23
 662 -28 662 -28 494 -28 c 0,24,25
 321 -28 321 -28 218.5 66.5 c 128,-1,26
 116 161 116 161 116 300 c 0,27,28
 116 379 116 379 143 443.5 c 128,-1,29
 170 508 170 508 227 554 c 0,30,31
 271 589 271 589 386 639 c 1,0,1
543 726 m 1,32,33
 627 772 627 772 660 821 c 0,34,35
 714 902 714 902 714 1005 c 0,36,37
 714 1085 714 1085 682 1142.5 c 128,-1,38
 650 1200 650 1200 596.5 1225 c 128,-1,39
 543 1250 543 1250 481 1250 c 0,40,41
 382 1250 382 1250 318 1182 c 128,-1,42
 254 1114 254 1114 254 1015 c 0,43,44
 254 957 254 957 271 918.5 c 128,-1,45
 288 880 288 880 325 847 c 0,46,47
 349 825 349 825 437 768 c 0,48,49
 450 760 450 760 500 743 c 0,50,51
 515 738 515 738 543 726 c 1,32,33
435 617 m 1,52,53
 363 579 363 579 334 550 c 0,54,55
 290 508 290 508 265 450 c 128,-1,56
 240 392 240 392 240 290 c 0,57,58
 240 183 240 183 287 122 c 0,59,60
 365 21 365 21 491 21 c 0,61,62
 606 21 606 21 679.5 94 c 128,-1,63
 753 167 753 167 753 282 c 0,64,65
 753 407 753 407 678.5 480 c 128,-1,66
 604 553 604 553 435 617 c 1,52,53
EndSplineSet
EndChar

StartChar: nine
Encoding: 57 57 25
Width: 960
GlyphClass: 1
Flags: W
LayerCount: 2
Fore
SplineSet
715 1211 m 1,0,1
 789 1131 789 1131 821 1053 c 0,2,3
 864 943 864 943 864 798 c 0,4,5
 864 634 864 634 816 506 c 128,-1,6
 768 378 768 378 699.5 284.5 c 128,-1,7
 631 191 631 191 556 130.5 c 128,-1,8
 481 70 481 70 371 20 c 128,-1,9
 261 -30 261 -30 187 -30 c 2,10,-1
 179 -30 l 1,11,12
 167 -21 167 -21 167 -8 c 0,13,14
 167 7 167 7 172 12 c 128,-1,15
 177 17 177 17 198 18 c 0,16,17
 235 21 235 21 323 64 c 0,18,19
 443 124 443 124 506 196 c 0,20,21
 613 318 613 318 665.5 472 c 128,-1,22
 718 626 718 626 718 817 c 0,23,24
 718 976 718 976 682 1075 c 128,-1,25
 646 1174 646 1174 580 1218 c 128,-1,26
 514 1262 514 1262 453 1262 c 0,27,28
 373 1262 373 1262 317 1186 c 0,29,30
 240 1080 240 1080 240 880 c 0,31,32
 240 722 240 722 312 631 c 0,33,34
 363 567 363 567 452 567 c 0,35,36
 484 567 484 567 498 573 c 2,37,-1
 506 576 l 2,38,39
 516 576 516 576 524 566 c 0,40,41
 536 551 536 551 536 535 c 1,42,-1
 525 526 l 1,43,44
 503 516 503 516 474.5 511 c 128,-1,45
 446 506 446 506 411 506 c 0,46,47
 288 506 288 506 189 618 c 128,-1,48
 90 730 90 730 90 900 c 0,49,50
 90 1074 90 1074 201.5 1190.5 c 128,-1,51
 313 1307 313 1307 468 1307 c 0,52,53
 535 1307 535 1307 586 1288 c 128,-1,54
 637 1269 637 1269 715 1211 c 1,0,1
EndSplineSet
EndChar

StartChar: colon
Encoding: 58 58 26
Width: 448
GlyphClass: 1
Flags: W
LayerCount: 2
Fore
SplineSet
117 692 m 0,0,1
 117 730 117 730 148.5 762 c 128,-1,2
 180 794 180 794 221 794 c 0,3,4
 265 794 265 794 298 761 c 128,-1,5
 331 728 331 728 331 685 c 0,6,7
 331 636 331 636 293 596 c 0,8,9
 268 568 268 568 219 568 c 0,10,11
 175 568 175 568 146 600 c 128,-1,12
 117 632 117 632 117 692 c 0,0,1
122 83 m 0,13,14
 122 127 122 127 154.5 160 c 128,-1,15
 187 193 187 193 230 193 c 0,16,17
 271 193 271 193 300.5 162 c 128,-1,18
 330 131 330 131 330 84 c 256,19,20
 330 37 330 37 299.5 5 c 128,-1,21
 269 -27 269 -27 226 -27 c 0,22,23
 176 -27 176 -27 149 10.5 c 128,-1,24
 122 48 122 48 122 83 c 0,13,14
EndSplineSet
EndChar

StartChar: semicolon
Encoding: 59 59 27
AltUni2: 00037e.ffffffff.0
Width: 448
GlyphClass: 1
Flags: W
LayerCount: 2
Fore
SplineSet
235 802 m 0,0,1
 280 802 280 802 310.5 771.5 c 128,-1,2
 341 741 341 741 341 699 c 256,3,4
 341 657 341 657 310.5 627 c 128,-1,5
 280 597 280 597 238 597 c 0,6,7
 195 597 195 597 164.5 627.5 c 128,-1,8
 134 658 134 658 134 701 c 0,9,10
 134 742 134 742 163.5 772 c 128,-1,11
 193 802 193 802 235 802 c 0,0,1
87 -282 m 1,12,13
 203 -214 203 -214 245 -162.5 c 128,-1,14
 287 -111 287 -111 287 -54 c 0,15,16
 287 -31 287 -31 273 -15 c 0,17,18
 258 1 258 1 242 1 c 2,19,-1
 180 -1 l 2,20,21
 155 -1 155 -1 135 21 c 128,-1,22
 115 43 115 43 115 79 c 0,23,24
 115 119 115 119 145 145 c 0,25,26
 187 182 187 182 235 182 c 0,27,28
 303 182 303 182 345 137.5 c 128,-1,29
 387 93 387 93 387 3 c 0,30,31
 387 -79 387 -79 353.5 -137.5 c 128,-1,32
 320 -196 320 -196 251 -248 c 0,33,34
 211 -279 211 -279 114 -321 c 1,35,-1
 87 -282 l 1,12,13
EndSplineSet
EndChar

StartChar: less
Encoding: 60 60 28
Width: 1365
GlyphClass: 1
Flags: W
LayerCount: 2
Fore
SplineSet
1218 144 m 1,0,-1
 147 599 l 1,1,-1
 147 678 l 1,2,-1
 1218 1130 l 1,3,-1
 1218 1035 l 1,4,-1
 263 638 l 1,5,-1
 1218 240 l 1,6,-1
 1218 144 l 1,0,-1
EndSplineSet
EndChar

StartChar: equal
Encoding: 61 61 29
Width: 1365
GlyphClass: 1
Flags: W
LayerCount: 2
Fore
SplineSet
147 913 m 1,0,-1
 1219 913 l 1,1,-1
 1219 825 l 1,2,-1
 147 825 l 1,3,-1
 147 913 l 1,0,-1
147 450 m 1,4,-1
 1219 450 l 1,5,-1
 1219 361 l 1,6,-1
 147 361 l 1,7,-1
 147 450 l 1,4,-1
EndSplineSet
EndChar

StartChar: greater
Encoding: 62 62 30
Width: 1365
GlyphClass: 1
Flags: W
LayerCount: 2
Fore
SplineSet
147 1130 m 1,0,-1
 1218 675 l 1,1,-1
 1218 596 l 1,2,-1
 147 144 l 1,3,-1
 147 240 l 1,4,-1
 1102 636 l 1,5,-1
 147 1034 l 1,6,-1
 147 1130 l 1,0,-1
EndSplineSet
EndChar

StartChar: question
Encoding: 63 63 31
Width: 747
GlyphClass: 1
Flags: W
LayerCount: 2
Fore
SplineSet
247 314 m 1,0,-1
 205 314 l 1,1,2
 202 325 202 325 200 344 c 0,3,4
 200 355 200 355 197 374 c 0,5,6
 193 399 193 399 178 544 c 2,7,-1
 172 606 l 1,8,-1
 170 620 l 2,9,10
 170 627 170 627 175 640 c 1,11,12
 202 658 202 658 258 661 c 0,13,14
 410 669 410 669 461 687 c 0,15,16
 534 712 534 712 568.5 763 c 128,-1,17
 603 814 603 814 603 884 c 0,18,19
 603 1004 603 1004 517.5 1096 c 128,-1,20
 432 1188 432 1188 346 1188 c 0,21,22
 318 1188 318 1188 239 1170 c 0,23,24
 184 1158 184 1158 168 1158 c 0,25,26
 131 1158 131 1158 110 1177 c 128,-1,27
 89 1196 89 1196 89 1227 c 0,28,29
 89 1264 89 1264 113 1283 c 0,30,31
 150 1311 150 1311 218 1311 c 0,32,33
 282 1311 282 1311 362.5 1280 c 128,-1,34
 443 1249 443 1249 535 1154 c 0,35,36
 602 1087 602 1087 639.5 993.5 c 128,-1,37
 677 900 677 900 677 816 c 0,38,39
 677 746 677 746 647 683.5 c 128,-1,40
 617 621 617 621 581.5 589.5 c 128,-1,41
 546 558 546 558 493 539 c 0,42,43
 468 530 468 530 360 516 c 0,44,45
 310 509 310 509 289.5 495 c 128,-1,46
 269 481 269 481 259 457 c 0,47,48
 256 449 256 449 252 389 c 128,-1,49
 248 329 248 329 247 314 c 1,0,-1
131 69 m 0,50,51
 131 117 131 117 158 144 c 0,52,53
 194 179 194 179 236 179 c 0,54,55
 273 179 273 179 303 147 c 128,-1,56
 333 115 333 115 333 69 c 0,57,58
 333 24 333 24 304.5 -3 c 128,-1,59
 276 -30 276 -30 227 -30 c 0,60,61
 192 -30 192 -30 161.5 0.5 c 128,-1,62
 131 31 131 31 131 69 c 0,50,51
EndSplineSet
EndChar

StartChar: at
Encoding: 64 64 32
Width: 1877
GlyphClass: 1
Flags: W
LayerCount: 2
Fore
SplineSet
1408 958 m 1,0,-1
 1291 559 l 2,1,2
 1225 331 1225 331 1211.5 273 c 128,-1,3
 1198 215 1198 215 1198 178 c 0,4,5
 1198 147 1198 147 1219.5 125 c 128,-1,6
 1241 103 1241 103 1272 103 c 0,7,8
 1346 103 1346 103 1448.5 176 c 128,-1,9
 1551 249 1551 249 1624 413 c 128,-1,10
 1697 577 1697 577 1697 755 c 0,11,12
 1697 926 1697 926 1614.5 1071 c 128,-1,13
 1532 1216 1532 1216 1381.5 1293.5 c 128,-1,14
 1231 1371 1231 1371 1049 1371 c 0,15,16
 818 1371 818 1371 620 1248.5 c 128,-1,17
 422 1126 422 1126 306.5 896 c 128,-1,18
 191 666 191 666 191 418 c 0,19,20
 191 188 191 188 292.5 0 c 128,-1,21
 394 -188 394 -188 578 -284.5 c 128,-1,22
 762 -381 762 -381 974 -381 c 0,23,24
 1237 -381 1237 -381 1449.5 -240 c 128,-1,25
 1662 -99 1662 -99 1778 172 c 1,26,-1
 1836 172 l 1,27,28
 1746 -102 1746 -102 1509 -272 c 128,-1,29
 1272 -442 1272 -442 969 -442 c 0,30,31
 731 -442 731 -442 527 -329.5 c 128,-1,32
 323 -217 323 -217 210 -10.5 c 128,-1,33
 97 196 97 196 97 444 c 0,34,35
 97 708 97 708 221 936.5 c 128,-1,36
 345 1165 345 1165 568.5 1293.5 c 128,-1,37
 792 1422 792 1422 1043 1422 c 0,38,39
 1250 1422 1250 1422 1416.5 1336.5 c 128,-1,40
 1583 1251 1583 1251 1670 1086.5 c 128,-1,41
 1757 922 1757 922 1757 737 c 0,42,43
 1757 554 1757 554 1675.5 374.5 c 128,-1,44
 1594 195 1594 195 1468 113 c 128,-1,45
 1342 31 1342 31 1205 31 c 0,46,47
 1129 31 1129 31 1090.5 67 c 128,-1,48
 1052 103 1052 103 1052 167 c 0,49,50
 1052 224 1052 224 1070 315 c 1,51,52
 932 149 932 149 842 89.5 c 128,-1,53
 752 30 752 30 676 30 c 0,54,55
 605 30 605 30 550 93.5 c 128,-1,56
 495 157 495 157 495 262 c 0,57,58
 495 408 495 408 589.5 588.5 c 128,-1,59
 684 769 684 769 841 881 c 0,60,61
 955 964 955 964 1046 964 c 0,62,63
 1113 964 1113 964 1157.5 929.5 c 128,-1,64
 1202 895 1202 895 1218 826 c 1,65,-1
 1251 936 l 1,66,-1
 1408 958 l 1,0,-1
1058 917 m 0,67,68
 981 917 981 917 903 836 c 0,69,70
 791 720 791 720 712 525 c 0,71,72
 653 381 653 381 653 292 c 0,73,74
 653 230 653 230 688.5 190.5 c 128,-1,75
 724 151 724 151 768 151 c 0,76,77
 826 151 826 151 889.5 194.5 c 128,-1,78
 953 238 953 238 1023 329 c 128,-1,79
 1093 420 1093 420 1124 509 c 0,80,81
 1182 671 1182 671 1182 774 c 0,82,83
 1182 839 1182 839 1145.5 878 c 128,-1,84
 1109 917 1109 917 1058 917 c 0,67,68
EndSplineSet
EndChar

StartChar: A
Encoding: 65 65 33
Width: 1387
GlyphClass: 1
Flags: W
LayerCount: 2
Fore
SplineSet
-11 32 m 1,0,1
 3 40 3 40 14 40 c 2,2,-1
 37 40 l 2,3,4
 44 40 44 40 61 41 c 0,5,6
 138 48 138 48 152 55 c 0,7,8
 187 74 187 74 212 121 c 0,9,10
 264 223 264 223 329 410 c 0,11,12
 360 499 360 499 368 518 c 0,13,14
 393 578 393 578 416 644 c 2,15,-1
 510 907 l 2,16,17
 532 969 532 969 616 1191 c 0,18,19
 637 1247 637 1247 667 1341 c 1,20,-1
 696 1343 l 1,21,-1
 731 1342 l 1,22,23
 774 1257 774 1257 807 1159 c 0,24,25
 825 1107 825 1107 866 1004 c 2,26,-1
 1018 593 l 1,27,-1
 1099 370 l 1,28,29
 1163 180 1163 180 1183 136.5 c 128,-1,30
 1203 93 1203 93 1220 79 c 0,31,32
 1225 75 1225 75 1257.5 67 c 128,-1,33
 1290 59 1290 59 1303 55 c 0,34,35
 1349 42 1349 42 1367 33 c 1,36,37
 1371 22 1371 22 1371 16 c 0,38,39
 1371 11 1371 11 1368 1 c 1,40,41
 1336 0 1336 0 1323 0 c 0,42,43
 1272 0 1272 0 1143 3 c 2,44,-1
 1043 6 l 1,45,-1
 922 4 l 2,46,47
 910 4 910 4 897.5 5.5 c 128,-1,48
 885 7 885 7 876 7 c 2,49,-1
 854 7 l 2,50,51
 843 8 843 8 834 13 c 1,52,53
 834 27 834 27 839 40 c 1,54,55
 851 46 851 46 861 47 c 2,56,-1
 966 54 l 2,57,58
 1007 56 1007 56 1028 65 c 1,59,60
 1034 83 1034 83 1034 92 c 0,61,62
 1034 110 1034 110 1008 185 c 0,63,64
 990 235 990 235 976.5 280 c 128,-1,65
 963 325 963 325 870 576 c 1,66,67
 829 583 829 583 798 583 c 2,68,-1
 584 581 l 1,69,-1
 521 582 l 2,70,71
 487 582 487 582 446 577 c 1,72,73
 433 547 433 547 429 534 c 2,74,-1
 341 259 l 1,75,76
 285 102 285 102 285 86 c 0,77,78
 285 77 285 77 294 56 c 1,79,80
 315 50 315 50 350 45 c 2,81,-1
 486 33 l 1,82,83
 497 24 497 24 497 17 c 0,84,85
 497 12 497 12 494 2 c 1,86,87
 449 1 449 1 425 1 c 0,88,89
 345 1 345 1 239 6 c 0,90,91
 190 8 190 8 169 8 c 256,92,93
 148 8 148 8 96 6 c 0,94,95
 62 4 62 4 47 4 c 0,96,97
 23 4 23 4 -15 7 c 1,98,-1
 -15 13 l 2,99,100
 -15 20 -15 20 -11 32 c 1,0,1
466 632 m 1,101,102
 573 626 573 626 710 626 c 0,103,104
 788 626 788 626 847 631 c 1,105,106
 837 670 837 670 824 704 c 0,107,108
 759 878 759 878 752 896 c 2,109,-1
 661 1127 l 1,110,-1
 651 1145 l 1,111,112
 645 1133 645 1133 607 1042 c 0,113,114
 543 886 543 886 515 799 c 0,115,116
 502 760 502 760 488 721.5 c 128,-1,117
 474 683 474 683 470.5 667.5 c 128,-1,118
 467 652 467 652 460 636 c 1,119,-1
 466 632 l 1,101,102
EndSplineSet
EndChar

StartChar: B
Encoding: 66 66 34
Width: 1259
GlyphClass: 1
Flags: W
LayerCount: 2
Fore
SplineSet
27 1239 m 1,0,-1
 27 1270 l 1,1,2
 44 1274 44 1274 54 1275 c 2,3,-1
 148 1280 l 2,4,5
 265 1290 265 1290 410 1296 c 0,6,7
 468 1298 468 1298 593 1298 c 0,8,9
 763 1298 763 1298 842 1273 c 0,10,11
 957 1236 957 1236 1013.5 1161.5 c 128,-1,12
 1070 1087 1070 1087 1070 996 c 0,13,14
 1070 848 1070 848 859 747 c 1,15,-1
 854 739 l 1,16,17
 962 710 962 710 1031 658 c 128,-1,18
 1100 606 1100 606 1137 531 c 0,19,20
 1164 476 1164 476 1164 387 c 0,21,22
 1164 238 1164 238 1028.5 121.5 c 128,-1,23
 893 5 893 5 655 5 c 2,24,-1
 506 5 l 1,25,-1
 355 0 l 1,26,27
 155 -2 155 -2 121 -2 c 0,28,29
 86 -2 86 -2 52 1 c 1,30,-1
 52 12 l 2,31,32
 52 24 52 24 57 29 c 0,33,34
 63 35 63 35 80 39 c 0,35,36
 205 65 205 65 221.5 74.5 c 128,-1,37
 238 84 238 84 244 105 c 0,38,39
 256 145 256 145 256 311 c 0,40,41
 256 326 256 326 255 349 c 0,42,43
 253 416 253 416 253 426 c 2,44,-1
 253 530 l 2,45,46
 253 794 253 794 247 991 c 1,47,-1
 246 1192 l 1,48,-1
 245 1217 l 1,49,50
 160 1229 160 1229 95 1232 c 0,51,52
 53 1233 53 1233 27 1239 c 1,0,-1
424 733 m 1,53,54
 474 723 474 723 529 723 c 0,55,56
 745 723 745 723 822 818 c 128,-1,57
 899 913 899 913 899 1007 c 0,58,59
 899 1049 899 1049 885.5 1092.5 c 128,-1,60
 872 1136 872 1136 837.5 1171 c 128,-1,61
 803 1206 803 1206 752 1223 c 0,62,63
 665 1252 665 1252 574 1252 c 0,64,65
 489 1252 489 1252 416 1233 c 1,66,67
 415 1212 415 1212 415 1202 c 256,68,69
 415 1192 415 1192 417 1145 c 0,70,71
 418 1115 418 1115 418 1085 c 2,72,-1
 415 964 l 1,73,-1
 416 892 l 1,74,-1
 423 751 l 1,75,-1
 424 733 l 1,53,54
659 53 m 1,76,77
 758 60 758 60 825 95 c 0,78,79
 856 111 856 111 898.5 152.5 c 128,-1,80
 941 194 941 194 964.5 252 c 128,-1,81
 988 310 988 310 988 364 c 0,82,83
 988 405 988 405 971.5 465 c 128,-1,84
 955 525 955 525 915.5 570.5 c 128,-1,85
 876 616 876 616 798 645.5 c 128,-1,86
 720 675 720 675 626 675 c 0,87,88
 444 675 444 675 422 668 c 1,89,90
 421 645 421 645 421 634 c 2,91,-1
 422 597 l 1,92,-1
 421 522 l 1,93,-1
 421 437 l 2,94,95
 424 202 424 202 432 159 c 128,-1,96
 440 116 440 116 486.5 85 c 128,-1,97
 533 54 533 54 659 53 c 1,76,77
EndSplineSet
EndChar

StartChar: C
Encoding: 67 67 35
Width: 1301
GlyphClass: 1
Flags: W
LayerCount: 2
Fore
SplineSet
1185 1224 m 1,0,1
 1197 1147 1197 1147 1197 1066 c 0,2,3
 1197 1050 1197 1050 1196 1023 c 1,4,5
 1182 1020 1182 1020 1175 1020 c 0,6,7
 1169 1020 1169 1020 1158 1022 c 1,8,9
 1116 1139 1116 1139 1021 1202 c 128,-1,10
 926 1265 926 1265 786 1265 c 0,11,12
 712 1265 712 1265 661 1248 c 0,13,14
 571 1217 571 1217 503 1162.5 c 128,-1,15
 435 1108 435 1108 388 1032.5 c 128,-1,16
 341 957 341 957 313.5 849.5 c 128,-1,17
 286 742 286 742 286 630 c 0,18,19
 286 416 286 416 351 276.5 c 128,-1,20
 416 137 416 137 529 77.5 c 128,-1,21
 642 18 642 18 757 18 c 2,22,-1
 804 19 l 1,23,24
 884 29 884 29 913 38 c 0,25,26
 986 59 986 59 1033.5 87.5 c 128,-1,27
 1081 116 1081 116 1126.5 168 c 128,-1,28
 1172 220 1172 220 1204 289 c 1,29,-1
 1216 293 l 2,30,31
 1221 293 1221 293 1231 287 c 1,32,33
 1230 263 1230 263 1229 256 c 0,34,35
 1187 87 1187 87 1168 25 c 1,36,37
 1152 21 1152 21 1128 13 c 0,38,39
 1011 -27 1011 -27 815 -27 c 0,40,41
 657 -27 657 -27 578.5 -5.5 c 128,-1,42
 500 16 500 16 407.5 61.5 c 128,-1,43
 315 107 315 107 245 182 c 128,-1,44
 175 257 175 257 132 371.5 c 128,-1,45
 89 486 89 486 89 621 c 0,46,47
 89 749 89 749 123 844.5 c 128,-1,48
 157 940 157 940 228 1038 c 128,-1,49
 299 1136 299 1136 395.5 1201 c 128,-1,50
 492 1266 492 1266 610 1293 c 0,51,52
 693 1311 693 1311 845 1311 c 0,53,54
 956 1311 956 1311 1054 1281.5 c 128,-1,55
 1152 1252 1152 1252 1185 1224 c 1,0,1
EndSplineSet
EndChar

StartChar: D
Encoding: 68 68 36
Width: 1579
GlyphClass: 1
Flags: W
LayerCount: 2
Fore
SplineSet
24 20 m 1,0,1
 61 36 61 36 110 41 c 0,2,3
 181 49 181 49 216 75 c 1,4,5
 243 130 243 130 243 355 c 2,6,-1
 243 513 l 1,7,-1
 245 608 l 1,8,-1
 243 678 l 1,9,-1
 245 807 l 1,10,-1
 242 1132 l 2,11,12
 242 1187 242 1187 226 1204 c 0,13,14
 203 1229 203 1229 104 1250 c 0,15,16
 63 1259 63 1259 54 1266.5 c 128,-1,17
 45 1274 45 1274 43 1295 c 1,18,19
 66 1300 66 1300 75 1300 c 2,20,-1
 146 1300 l 1,21,-1
 183 1301 l 2,22,23
 220 1301 220 1301 265 1293 c 1,24,25
 357 1287 357 1287 454 1287 c 0,26,27
 482 1287 482 1287 534 1290 c 0,28,29
 672 1298 672 1298 732 1298 c 0,30,31
 853 1298 853 1298 960.5 1274 c 128,-1,32
 1068 1250 1068 1250 1182 1185 c 0,33,34
 1253 1144 1253 1144 1327.5 1055.5 c 128,-1,35
 1402 967 1402 967 1440.5 862.5 c 128,-1,36
 1479 758 1479 758 1479 627 c 0,37,38
 1479 510 1479 510 1436.5 395 c 128,-1,39
 1394 280 1394 280 1318 195.5 c 128,-1,40
 1242 111 1242 111 1164 68.5 c 128,-1,41
 1086 26 1086 26 926 -5 c 0,42,43
 860 -17 860 -17 689 -17 c 0,44,45
 576 -17 576 -17 505 -10 c 0,46,47
 477 -6 477 -6 445 -6 c 0,48,49
 440 -6 440 -6 434 -7 c 2,50,-1
 26 -14 l 1,51,-1
 24 -6 l 2,52,53
 22 -1 22 -1 22 5 c 2,54,-1
 24 20 l 1,0,1
533 59 m 1,55,56
 609 33 609 33 687 33 c 0,57,58
 788 33 788 33 885 64.5 c 128,-1,59
 982 96 982 96 1056.5 153.5 c 128,-1,60
 1131 211 1131 211 1179 283.5 c 128,-1,61
 1227 356 1227 356 1247 414 c 0,62,63
 1275 499 1275 499 1275 635 c 0,64,65
 1275 765 1275 765 1220 899 c 0,66,67
 1182 992 1182 992 1086.5 1077 c 128,-1,68
 991 1162 991 1162 861 1201.5 c 128,-1,69
 731 1241 731 1241 580 1241 c 0,70,71
 476 1241 476 1241 426 1218 c 0,72,73
 420 1212 420 1212 414 1204 c 0,74,75
 408 1179 408 1179 408 1158 c 0,76,77
 408 1145 408 1145 409 1127 c 0,78,79
 412 1011 412 1011 412 941 c 2,80,-1
 411 714 l 2,81,82
 411 214 411 214 429.5 157.5 c 128,-1,83
 448 101 448 101 533 59 c 1,55,56
EndSplineSet
EndChar

StartChar: E
Encoding: 69 69 37
Width: 1344
GlyphClass: 1
Flags: W
LayerCount: 2
Fore
SplineSet
50 16 m 1,0,1
 60 25 60 25 67 27 c 0,2,3
 84 32 84 32 125 35 c 0,4,5
 222 41 222 41 245 53 c 1,6,7
 259 73 259 73 259 109 c 2,8,-1
 258 179 l 1,9,-1
 259 433 l 1,10,-1
 257 553 l 1,11,-1
 258 804 l 1,12,-1
 253 1089 l 2,13,14
 252 1191 252 1191 240 1204 c 0,15,16
 222 1223 222 1223 133 1226 c 0,17,18
 95 1227 95 1227 66 1232 c 1,19,20
 53 1239 53 1239 53 1250 c 0,21,22
 53 1258 53 1258 58 1269 c 1,23,24
 67 1274 67 1274 74 1274 c 0,25,26
 88 1274 88 1274 108 1273 c 0,27,28
 167 1268 167 1268 230 1268 c 2,29,-1
 304 1270 l 1,30,-1
 480 1266 l 2,31,32
 612 1266 612 1266 686 1269 c 128,-1,33
 760 1272 760 1272 786 1272 c 0,34,35
 809 1272 809 1272 900 1268 c 1,36,-1
 1042 1269 l 1,37,-1
 1059 1266 l 1,38,-1
 1142 1269 l 1,39,-1
 1152 1264 l 1,40,41
 1157 1256 1157 1256 1159 1247 c 0,42,43
 1159 1233 1159 1233 1154.5 1204 c 128,-1,44
 1150 1175 1150 1175 1150 1168 c 0,45,46
 1150 1064 1150 1064 1157 992 c 0,47,48
 1156 986 1156 986 1151 984 c 0,49,50
 1140 984 1140 984 1131 987 c 1,51,52
 1120 1006 1120 1006 1101.5 1054 c 128,-1,53
 1083 1102 1083 1102 1046 1165 c 0,54,55
 1021 1207 1021 1207 1007 1215 c 128,-1,56
 993 1223 993 1223 949 1223 c 0,57,58
 940 1223 940 1223 858 1225 c 0,59,60
 836 1226 836 1226 815 1226 c 2,61,-1
 530 1220 l 1,62,-1
 505 1220 l 2,63,64
 450 1220 450 1220 439 1206 c 0,65,66
 422 1182 422 1182 422 1065 c 0,67,68
 422 1053 422 1053 427 825 c 1,69,-1
 427 686 l 1,70,71
 438 683 438 683 451 683 c 2,72,-1
 468 683 l 2,73,74
 485 683 485 683 518 682 c 0,75,76
 570 680 570 680 588 680 c 0,77,78
 600 680 600 680 609 681 c 0,79,80
 717 685 717 685 887 685 c 1,81,82
 940 694 940 694 949 706 c 0,83,84
 964 724 964 724 971.5 800 c 128,-1,85
 979 876 979 876 1005 886 c 1,86,87
 1018 886 1018 886 1029 881 c 1,88,89
 1031 873 1031 873 1031 866 c 256,90,91
 1031 859 1031 859 1029 843 c 0,92,93
 1024 806 1024 806 1024 611 c 0,94,95
 1024 559 1024 559 1029.5 495 c 128,-1,96
 1035 431 1035 431 1035 426 c 0,97,98
 1035 417 1035 417 1032 402 c 1,99,100
 1024 398 1024 398 1019 398 c 2,101,-1
 1012 398 l 1,102,103
 996 426 996 426 981 485 c 0,104,105
 955 586 955 586 926.5 611.5 c 128,-1,106
 898 637 898 637 834 637 c 0,107,108
 820 637 820 637 783 635.5 c 128,-1,109
 746 634 746 634 673 634 c 2,110,-1
 608 634 l 2,111,112
 469 634 469 634 426 628 c 1,113,-1
 425 595 l 1,114,-1
 426 411 l 1,115,-1
 425 295 l 1,116,-1
 426 182 l 2,117,118
 427 80 427 80 439 64 c 0,119,120
 456 42 456 42 513 42 c 2,121,-1
 574 43 l 2,122,123
 582 43 582 43 636.5 41.5 c 128,-1,124
 691 40 691 40 771 40 c 0,125,126
 964 40 964 40 1028 56.5 c 128,-1,127
 1092 73 1092 73 1133.5 115 c 128,-1,128
 1175 157 1175 157 1238 296 c 0,129,130
 1257 337 1257 337 1276 337 c 0,131,132
 1285 337 1285 337 1296 329 c 1,133,134
 1267 230 1267 230 1263 199 c 0,135,136
 1252 129 1252 129 1250 56 c 0,137,138
 1250 23 1250 23 1234 1 c 1,139,-1
 1212 1 l 1,140,-1
 931 -2 l 1,141,-1
 805 -1 l 1,142,-1
 505 -5 l 1,143,-1
 383 -5 l 2,144,145
 360 -5 360 -5 340 -6 c 0,146,147
 160 -14 160 -14 75 -14 c 0,148,149
 60 -14 60 -14 54.5 -9 c 128,-1,150
 49 -4 49 -4 49 6 c 2,151,-1
 50 16 l 1,0,1
EndSplineSet
EndChar

StartChar: F
Encoding: 70 70 38
Width: 1152
GlyphClass: 1
Flags: W
LayerCount: 2
Fore
SplineSet
59 -15 m 1,0,-1
 60 10 l 1,1,2
 82 21 82 21 133.5 29.5 c 128,-1,3
 185 38 185 38 204.5 46.5 c 128,-1,4
 224 55 224 55 237 69 c 1,5,6
 246 113 246 113 246 228 c 2,7,-1
 232 1006 l 1,8,-1
 235 1135 l 2,9,10
 235 1175 235 1175 220.5 1190 c 128,-1,11
 206 1205 206 1205 145 1217.5 c 128,-1,12
 84 1230 84 1230 73 1238 c 128,-1,13
 62 1246 62 1246 62 1255 c 0,14,15
 62 1260 62 1260 65 1268 c 1,16,17
 78 1276 78 1276 92 1276 c 0,18,19
 107 1276 107 1276 153 1274 c 2,20,-1
 181 1274 l 2,21,22
 195 1274 195 1274 260 1276 c 2,23,-1
 399 1276 l 1,24,-1
 686 1281 l 1,25,-1
 990 1293 l 1,26,-1
 1017 1293 l 1,27,-1
 1060 1294 l 2,28,29
 1078 1294 1078 1294 1092 1284 c 1,30,31
 1098 1268 1098 1268 1099 1261 c 2,32,-1
 1098 1221 l 1,33,-1
 1107 1042 l 2,34,35
 1107 1031 1107 1031 1105 1014 c 1,36,37
 1089 1007 1089 1007 1076 1007 c 0,38,39
 1067 1007 1067 1007 1062 1013 c 0,40,41
 1054 1024 1054 1024 1052 1055 c 0,42,43
 1048 1098 1048 1098 1021 1166 c 0,44,45
 1008 1198 1008 1198 978 1210 c 0,46,47
 918 1233 918 1233 776 1233 c 0,48,49
 709 1233 709 1233 651 1229.5 c 128,-1,50
 593 1226 593 1226 580 1226 c 2,51,-1
 502 1227 l 2,52,53
 454 1227 454 1227 423 1213 c 0,54,55
 402 1204 402 1204 402 1170 c 2,56,-1
 402 1155 l 2,57,58
 405 1104 405 1104 405 1042 c 2,59,-1
 402 770 l 2,60,61
 402 730 402 730 408 694 c 1,62,-1
 437 692 l 1,63,-1
 493 695 l 1,64,-1
 684 695 l 2,65,66
 799 695 799 695 844 711 c 0,67,68
 874 722 874 722 889 744 c 0,69,70
 894 751 894 751 914 823 c 1,71,-1
 927 906 l 1,72,73
 939 912 939 912 945 912 c 0,74,75
 950 912 950 912 961 907 c 1,76,77
 965 884 965 884 966 837 c 2,78,-1
 978 469 l 1,79,80
 961 462 961 462 952 462 c 2,81,-1
 941 464 l 1,82,83
 925 564 925 564 891 621 c 0,84,85
 879 641 879 641 864 644 c 0,86,87
 838 650 838 650 626 650 c 0,88,89
 560 650 560 650 535 649 c 0,90,91
 475 646 475 646 463 646 c 2,92,-1
 453 646 l 2,93,94
 423 646 423 646 410 638 c 1,95,96
 406 626 406 626 406 621 c 2,97,-1
 406 552 l 2,98,99
 406 540 406 540 407 452 c 2,100,-1
 405 121 l 2,101,102
 405 107 405 107 413 86 c 1,103,104
 434 69 434 69 489.5 63.5 c 128,-1,105
 545 58 545 58 594 37 c 0,106,107
 622 24 622 24 622 8 c 0,108,109
 622 1 622 1 618 -5 c 128,-1,110
 614 -11 614 -11 604 -14 c 1,111,112
 522 3 522 3 377 3 c 0,113,114
 300 3 300 3 214 -11 c 0,115,116
 155 -20 155 -20 79 -20 c 1,117,-1
 59 -15 l 1,0,-1
EndSplineSet
EndChar

StartChar: G
Encoding: 71 71 39
Width: 1579
GlyphClass: 1
Flags: W
LayerCount: 2
Fore
SplineSet
1335 1214 m 1,0,-1
 1346 1062 l 2,1,2
 1352 993 1352 993 1352 968 c 1,3,-1
 1324 963 l 1,4,5
 1257 1115 1257 1115 1157.5 1191 c 128,-1,6
 1058 1267 1058 1267 914 1267 c 0,7,8
 738 1267 738 1267 640 1224 c 0,9,10
 498 1163 498 1163 397 1012 c 128,-1,11
 296 861 296 861 296 648 c 0,12,13
 296 525 296 525 333 427 c 128,-1,14
 370 329 370 329 437.5 244.5 c 128,-1,15
 505 160 505 160 597 98 c 0,16,17
 657 57 657 57 740 36 c 0,18,19
 787 25 787 25 880 25 c 0,20,21
 940 25 940 25 1013 42 c 128,-1,22
 1086 59 1086 59 1123 87.5 c 128,-1,23
 1160 116 1160 116 1173.5 152 c 128,-1,24
 1187 188 1187 188 1187 292 c 0,25,26
 1187 465 1187 465 1164 493.5 c 128,-1,27
 1141 522 1141 522 1019 531 c 2,28,-1
 979 534 l 1,29,-1
 952 533 l 2,30,31
 946 534 946 534 936 536 c 1,32,-1
 921 561 l 2,33,34
 921 566 921 566 928 574 c 1,35,36
 980 582 980 582 1154 582 c 0,37,38
 1193 582 1193 582 1281 580 c 2,39,-1
 1384 576 l 1,40,-1
 1477 577 l 2,41,42
 1504 577 1504 577 1542 575 c 0,43,44
 1549 574 1549 574 1551 571.5 c 128,-1,45
 1553 569 1553 569 1553 563 c 0,46,47
 1553 552 1553 552 1548 535 c 1,48,49
 1506 526 1506 526 1483 526 c 2,50,-1
 1418 527 l 2,51,52
 1385 527 1385 527 1365 504 c 0,53,54
 1355 493 1355 493 1355 429 c 2,55,-1
 1356 298 l 2,56,57
 1356 163 1356 163 1345 126 c 0,58,59
 1339 104 1339 104 1320 86.5 c 128,-1,60
 1301 69 1301 69 1240 45 c 0,61,62
 1153 10 1153 10 1082 -2 c 0,63,64
 950 -25 950 -25 827 -25 c 0,65,66
 629 -25 629 -25 502.5 25.5 c 128,-1,67
 376 76 376 76 284.5 166 c 128,-1,68
 193 256 193 256 154 348 c 0,69,70
 95 483 95 483 95 623 c 0,71,72
 95 798 95 798 187.5 965.5 c 128,-1,73
 280 1133 280 1133 486 1238 c 0,74,75
 631 1312 631 1312 880 1312 c 0,76,77
 1052 1312 1052 1312 1161.5 1282 c 128,-1,78
 1271 1252 1271 1252 1335 1214 c 1,0,-1
EndSplineSet
EndChar

StartChar: H
Encoding: 72 72 40
Width: 1557
GlyphClass: 1
Flags: W
LayerCount: 2
Fore
SplineSet
39 -15 m 1,0,-1
 40 7 l 1,1,2
 74 26 74 26 119 31 c 0,3,4
 190 40 190 40 209 49.5 c 128,-1,5
 228 59 228 59 236 76 c 0,6,7
 250 109 250 109 250 143 c 2,8,-1
 248 219 l 1,9,-1
 249 289 l 1,10,-1
 247 371 l 2,11,12
 247 422 247 422 250 498.5 c 128,-1,13
 253 575 253 575 253 580 c 2,14,-1
 253 853 l 2,15,16
 253 918 253 918 256 993.5 c 128,-1,17
 259 1069 259 1069 259 1098 c 0,18,19
 259 1184 259 1184 255 1198 c 128,-1,20
 251 1212 251 1212 240 1218 c 128,-1,21
 229 1224 229 1224 168 1229 c 0,22,23
 121 1233 121 1233 103 1236 c 1,24,25
 98 1247 98 1247 98 1254 c 0,26,27
 98 1262 98 1262 99 1273 c 1,28,29
 123 1275 123 1275 136 1275 c 2,30,-1
 230 1274 l 2,31,32
 330 1274 330 1274 442 1282 c 0,33,34
 497 1286 497 1286 608 1289 c 1,35,36
 610 1280 610 1280 610 1272 c 0,37,38
 610 1262 610 1262 605.5 1256.5 c 128,-1,39
 601 1251 601 1251 590 1249 c 0,40,41
 459 1238 459 1238 435.5 1216.5 c 128,-1,42
 412 1195 412 1195 412 1107 c 0,43,44
 412 945 412 945 417 773 c 2,45,-1
 421 679 l 1,46,47
 426 675 426 675 551 669 c 0,48,49
 585 667 585 667 591 667 c 2,50,-1
 738 669 l 1,51,-1
 835 666 l 1,52,-1
 1089 674 l 2,53,54
 1136 675 1136 675 1146 678 c 1,55,56
 1152 852 1152 852 1152 1015 c 0,57,58
 1152 1172 1152 1172 1145 1200 c 0,59,60
 1141 1217 1141 1217 1131 1223 c 0,61,62
 1125 1226 1125 1226 1027 1239 c 0,63,64
 1010 1241 1010 1241 995 1244 c 1,65,66
 990 1259 990 1259 990 1278 c 1,67,68
 1024 1283 1024 1283 1033 1283 c 2,69,-1
 1099 1279 l 2,70,71
 1190 1274 1190 1274 1282 1274 c 0,72,73
 1341 1274 1341 1274 1478 1284 c 1,74,75
 1477 1264 1477 1264 1473 1248 c 1,76,77
 1435 1233 1435 1233 1382 1229 c 0,78,79
 1348 1227 1348 1227 1325 1218 c 1,80,81
 1306 1204 1306 1204 1306 1161 c 0,82,83
 1306 1151 1306 1151 1307 1139 c 0,84,85
 1308 1103 1308 1103 1308 1092 c 2,86,-1
 1308 977 l 1,87,-1
 1309 905 l 1,88,-1
 1307 812 l 1,89,-1
 1308 638 l 1,90,-1
 1306 474 l 2,91,92
 1306 425 1306 425 1309 321 c 2,93,-1
 1308 186 l 2,94,95
 1308 118 1308 118 1320 89 c 0,96,97
 1326 75 1326 75 1340 69 c 2,98,-1
 1421 51 l 2,99,100
 1481 36 1481 36 1492.5 26.5 c 128,-1,101
 1504 17 1504 17 1504 4 c 2,102,-1
 1501 -8 l 1,103,-1
 1496 -9 l 2,104,105
 1491 -9 1491 -9 1483 -7 c 0,106,107
 1374 13 1374 13 1254 13 c 0,108,109
 1160 13 1160 13 1120.5 10 c 128,-1,110
 1081 7 1081 7 956 -12 c 1,111,112
 954 1 954 1 954 7 c 0,113,114
 954 14 954 14 956 26 c 1,115,116
 987 44 987 44 1054 51 c 0,117,118
 1104 56 1104 56 1133 83 c 0,119,120
 1152 101 1152 101 1152 136 c 2,121,-1
 1151 280 l 2,122,123
 1154 345 1154 345 1154 351 c 0,124,125
 1154 436 1154 436 1151 599 c 0,126,127
 1148 613 1148 613 1140 616 c 0,128,129
 1113 625 1113 625 874 612 c 0,130,131
 826 609 826 609 802 609 c 256,132,133
 778 609 778 609 701.5 611.5 c 128,-1,134
 625 614 625 614 560 614 c 0,135,136
 525 614 525 614 501 613 c 0,137,138
 455 612 455 612 450 612 c 0,139,140
 427 612 427 612 418.5 603 c 128,-1,141
 410 594 410 594 410 570 c 2,142,-1
 411 500 l 2,143,144
 411 483 411 483 406 311 c 0,145,146
 405 276 405 276 405 253 c 0,147,148
 405 116 405 116 415 71 c 0,149,150
 420 50 420 50 433 42 c 0,151,152
 442 36 442 36 511 21 c 0,153,154
 557 11 557 11 581 2 c 1,155,-1
 587 -8 l 2,156,157
 587 -13 587 -13 583 -16 c 0,158,159
 577 -21 577 -21 566 -21 c 0,160,161
 558 -21 558 -21 547 -20.5 c 128,-1,162
 536 -20 536 -20 504 -19 c 0,163,164
 453 -18 453 -18 377 -12 c 0,165,166
 328 -8 328 -8 290 -8 c 0,167,168
 226 -8 226 -8 85 -14 c 0,169,170
 58 -15 58 -15 39 -15 c 1,0,-1
EndSplineSet
EndChar

StartChar: I
Encoding: 73 73 41
Width: 725
GlyphClass: 1
Flags: W
LayerCount: 2
Fore
SplineSet
43 32 m 1,0,1
 65 41 65 41 88 43 c 0,2,3
 241 53 241 53 263 79.5 c 128,-1,4
 285 106 285 106 285 336 c 2,5,-1
 284 441 l 1,6,-1
 284 551 l 1,7,-1
 280 672 l 1,8,-1
 282 743 l 1,9,-1
 281 821 l 1,10,-1
 281 913 l 1,11,-1
 279 954 l 1,12,-1
 281 1006 l 2,13,14
 282 1024 282 1024 282 1048 c 0,15,16
 282 1111 282 1111 276 1181 c 0,17,18
 272 1195 272 1195 265 1208 c 1,19,20
 228 1227 228 1227 145.5 1233.5 c 128,-1,21
 63 1240 63 1240 52 1248 c 0,22,23
 44 1254 44 1254 43 1279 c 1,24,-1
 127 1279 l 1,25,-1
 392 1273 l 2,26,27
 494 1273 494 1273 664 1279 c 1,28,29
 664 1263 664 1263 662 1249 c 1,30,31
 642 1244 642 1244 595 1238 c 0,32,33
 500 1227 500 1227 479 1217 c 0,34,35
 466 1212 466 1212 460 1200 c 0,36,37
 450 1182 450 1182 448 1133 c 2,38,-1
 443 1004 l 1,39,-1
 447 559 l 1,40,-1
 447 383 l 2,41,42
 445 300 445 300 445 270 c 0,43,44
 445 158 445 158 450.5 127 c 128,-1,45
 456 96 456 96 469.5 82.5 c 128,-1,46
 483 69 483 69 514 61 c 0,47,48
 560 50 560 50 586 49 c 0,49,50
 642 47 642 47 657 33 c 1,51,52
 660 20 660 20 660 11 c 2,53,-1
 660 3 l 1,54,55
 569 0 569 0 526 0 c 0,56,57
 501 0 501 0 437 3 c 2,58,-1
 299 1 l 1,59,-1
 64 2 l 1,60,-1
 45 2 l 1,61,-1
 43 32 l 1,0,1
EndSplineSet
EndChar

StartChar: J
Encoding: 74 74 42
Width: 683
GlyphClass: 1
Flags: W
LayerCount: 2
Fore
SplineSet
-137 -364 m 0,0,1
 -118 -351 -118 -351 -103 -351 c 0,2,3
 -57 -351 -57 -351 2 -404 c 0,4,5
 12 -413 12 -413 17 -417 c 2,6,-1
 22 -422 l 2,7,8
 46 -442 46 -442 72 -442 c 0,9,10
 110 -442 110 -442 148 -416 c 128,-1,11
 186 -390 186 -390 209 -344 c 0,12,13
 240 -280 240 -280 254.5 -200 c 128,-1,14
 269 -120 269 -120 269 -6 c 2,15,-1
 268 150 l 1,16,-1
 270 257 l 2,17,18
 270 366 270 366 262 593 c 1,19,-1
 256 967 l 1,20,-1
 257 1160 l 2,21,22
 258 1186 258 1186 248 1205 c 0,23,24
 242 1215 242 1215 226.5 1223 c 128,-1,25
 211 1231 211 1231 182 1232 c 2,26,-1
 108 1237 l 2,27,28
 73 1237 73 1237 60 1244 c 1,29,30
 56 1259 56 1259 56 1267 c 2,31,-1
 57 1279 l 1,32,33
 79 1279 79 1279 111 1277 c 0,34,35
 173 1274 173 1274 232 1274 c 0,36,37
 260 1274 260 1274 306 1275 c 0,38,39
 341 1277 341 1277 355 1277 c 2,40,-1
 502 1277 l 2,41,42
 533 1277 533 1277 569 1274 c 1,43,44
 569 1251 569 1251 567 1238 c 1,45,46
 481 1234 481 1234 458 1226 c 128,-1,47
 435 1218 435 1218 424 1204 c 0,48,49
 417 1195 417 1195 417 1169 c 2,50,-1
 413 1065 l 1,51,-1
 414 1040 l 2,52,53
 416 1022 416 1022 416 971 c 2,54,-1
 416 931 l 2,55,56
 416 896 416 896 417 869 c 0,57,58
 419 829 419 829 419 821 c 0,59,60
 419 812 419 812 417 774 c 0,61,62
 416 763 416 763 416 755 c 2,63,-1
 428 477 l 1,64,-1
 426 298 l 1,65,-1
 426 182 l 2,66,67
 426 82 426 82 388 -97 c 0,68,69
 360 -227 360 -227 287 -333.5 c 128,-1,70
 214 -440 214 -440 143 -479 c 128,-1,71
 72 -518 72 -518 -46 -518 c 0,72,73
 -109 -518 -109 -518 -147 -488 c 0,74,75
 -173 -467 -173 -467 -173 -432 c 0,76,77
 -173 -390 -173 -390 -137 -364 c 0,0,1
EndSplineSet
EndChar

StartChar: K
Encoding: 75 75 43
Width: 1515
GlyphClass: 1
Flags: W
LayerCount: 2
Fore
SplineSet
444 641 m 1,0,1
 456 652 456 652 484 669 c 0,2,3
 540 703 540 703 677 805 c 1,4,-1
 951 1029 l 2,5,6
 1064 1123 1064 1123 1110 1177 c 0,7,8
 1119 1189 1119 1189 1124 1202 c 1,9,10
 1106 1215 1106 1215 1083 1221 c 128,-1,11
 1060 1227 1060 1227 1010 1230 c 128,-1,12
 960 1233 960 1233 950.5 1239.5 c 128,-1,13
 941 1246 941 1246 941 1256 c 0,14,15
 941 1267 941 1267 948 1273 c 0,16,17
 961 1282 961 1282 985 1282 c 0,18,19
 1023 1282 1023 1282 1051 1276.5 c 128,-1,20
 1079 1271 1079 1271 1178 1271 c 0,21,22
 1202 1271 1202 1271 1213 1272 c 2,23,-1
 1369 1280 l 2,24,25
 1393 1282 1393 1282 1406 1282 c 0,26,27
 1418 1282 1418 1282 1442 1280 c 1,28,29
 1442 1256 1442 1256 1438 1241 c 1,30,31
 1330 1228 1330 1228 1279 1208 c 0,32,33
 1250 1196 1250 1196 1161 1142 c 0,34,35
 1094 1101 1094 1101 1039 1054 c 2,36,-1
 781 837 l 1,37,-1
 625 711 l 1,38,39
 629 704 629 704 637 697 c 0,40,41
 643 692 643 692 667 669 c 0,42,43
 772 571 772 571 950.5 428.5 c 128,-1,44
 1129 286 1129 286 1230 190 c 0,45,46
 1378 48 1378 48 1509 33 c 0,47,48
 1541 29 1541 29 1555 15 c 1,49,-1
 1556 4 l 1,50,-1
 1554 -10 l 1,51,52
 1520 -12 1520 -12 1508 -12 c 0,53,54
 1462 -12 1462 -12 1369 -5 c 0,55,56
 1314 -1 1314 -1 1278 -1 c 0,57,58
 1134 -1 1134 -1 949 -13 c 1,59,60
 946 1 946 1 946 8 c 2,61,-1
 947 16 l 1,62,63
 960 28 960 28 999 38 c 0,64,65
 1053 52 1053 52 1113 54 c 0,66,67
 1126 54 1126 54 1141 56 c 1,68,69
 1131 72 1131 72 1108 93 c 0,70,71
 1104 97 1104 97 1081 119.5 c 128,-1,72
 1058 142 1058 142 1000 193 c 2,73,-1
 881 288 l 1,74,-1
 698 442 l 2,75,76
 607 520 607 520 444 641 c 1,0,1
58 13 m 1,77,78
 63 23 63 23 73 24 c 0,79,80
 174 33 174 33 232 60 c 1,81,82
 252 78 252 78 252 120 c 2,83,-1
 251 218 l 1,84,-1
 251 404 l 1,85,-1
 253 485 l 1,86,-1
 247 763 l 1,87,-1
 249 950 l 2,88,89
 249 1108 249 1108 243 1161 c 0,90,91
 241 1181 241 1181 230 1202 c 1,92,93
 212 1213 212 1213 200 1215 c 0,94,95
 157 1222 157 1222 89 1226 c 1,96,97
 75 1236 75 1236 75 1250 c 0,98,99
 75 1255 75 1255 79 1265 c 1,100,101
 135 1268 135 1268 277 1268 c 0,102,103
 343 1268 343 1268 381 1269 c 0,104,105
 435 1272 435 1272 511 1278 c 1,106,107
 544 1275 544 1275 589 1275 c 1,108,109
 600 1269 600 1269 600 1261 c 0,110,111
 600 1255 600 1255 598 1248 c 1,112,113
 586 1242 586 1242 553 1238 c 0,114,115
 466 1229 466 1229 435 1200 c 0,116,117
 414 1180 414 1180 414 1124 c 2,118,-1
 415 1105 l 1,119,-1
 413 729 l 1,120,-1
 410 470 l 1,121,-1
 417 213 l 2,122,123
 418 91 418 91 423 78.5 c 128,-1,124
 428 66 428 66 439 59 c 0,125,126
 474 38 474 38 546 31 c 0,127,128
 564 29 564 29 581 24 c 1,129,130
 587 11 587 11 587 2 c 0,131,132
 587 -8 587 -8 575 -17 c 1,133,-1
 543 -18 l 2,134,135
 523 -18 523 -18 447 -11 c 128,-1,136
 371 -4 371 -4 334 -4 c 0,137,138
 303 -4 303 -4 248 -11 c 128,-1,139
 193 -18 193 -18 98 -18 c 0,140,141
 84 -18 84 -18 60 -17 c 1,142,-1
 58 13 l 1,77,78
EndSplineSet
EndChar

StartChar: L
Encoding: 76 76 44
Width: 1173
GlyphClass: 1
Flags: W
LayerCount: 2
Fore
SplineSet
11 -6 m 1,0,1
 12 9 12 9 19 21 c 1,2,3
 97 42 97 42 171 49 c 0,4,5
 220 53 220 53 234 71 c 0,6,7
 244 84 244 84 246 167 c 2,8,-1
 253 431 l 1,9,-1
 252 610 l 1,10,-1
 253 844 l 1,11,-1
 253 906 l 2,12,13
 254 1117 254 1117 251 1169 c 0,14,15
 250 1179 250 1179 243 1197 c 1,16,17
 217 1209 217 1209 199.5 1213 c 128,-1,18
 182 1217 182 1217 43 1242 c 1,19,20
 42 1253 42 1253 42 1258 c 0,21,22
 42 1264 42 1264 43 1274 c 1,23,24
 62 1274 62 1274 105 1272 c 2,25,-1
 257 1267 l 1,26,-1
 345 1265 l 1,27,-1
 371 1266 l 2,28,29
 376 1266 376 1266 400 1264 c 0,30,31
 459 1264 459 1264 468 1265 c 2,32,-1
 548 1271 l 1,33,34
 629 1271 629 1271 662 1268 c 1,35,36
 661 1250 661 1250 655 1229 c 1,37,38
 644 1227 644 1227 551 1223.5 c 128,-1,39
 458 1220 458 1220 444 1212 c 0,40,41
 421 1199 421 1199 421 1132 c 0,42,43
 421 1116 421 1116 419 1067 c 2,44,-1
 419 1007 l 1,45,-1
 420 822 l 1,46,-1
 420 759 l 1,47,-1
 422 428 l 1,48,-1
 419 146 l 1,49,-1
 420 84 l 2,50,51
 420 54 420 54 430 47 c 1,52,53
 455 46 455 46 577 45 c 2,54,-1
 645 45 l 1,55,-1
 818 51 l 2,56,57
 886 53 886 53 915 64.5 c 128,-1,58
 944 76 944 76 1012 132 c 0,59,60
 1053 168 1053 168 1076 206 c 0,61,62
 1081 214 1081 214 1093 230 c 0,63,64
 1112 256 1112 256 1144 334 c 1,65,-1
 1177 334 l 1,66,67
 1171 298 1171 298 1164 266 c 0,68,69
 1135 125 1135 125 1124 31 c 0,70,71
 1122 11 1122 11 1120 -6 c 1,72,-1
 746 5 l 1,73,74
 264 5 264 5 174 -4 c 0,75,76
 146 -6 146 -6 115 -6 c 2,77,-1
 11 -6 l 1,0,1
EndSplineSet
EndChar

StartChar: M
Encoding: 77 77 45
Width: 1707
GlyphClass: 1
Flags: W
LayerCount: 2
Fore
SplineSet
14 23 m 1,0,1
 45 44 45 44 126 53 c 0,2,3
 189 56 189 56 201 64 c 0,4,5
 209 70 209 70 213 79 c 0,6,7
 228 116 228 116 235 280 c 0,8,9
 244 493 244 493 264 847 c 0,10,11
 280 1117 280 1117 280 1184 c 2,12,-1
 280 1210 l 1,13,14
 208 1225 208 1225 52 1242 c 1,15,16
 42 1257 42 1257 42 1265 c 0,17,18
 42 1270 42 1270 49 1283 c 1,19,20
 66 1289 66 1289 75 1289 c 0,21,22
 83 1289 83 1289 110 1285 c 0,23,24
 159 1278 159 1278 245 1278 c 0,25,26
 273 1278 273 1278 341 1282 c 0,27,28
 389 1285 389 1285 395 1285 c 0,29,30
 411 1285 411 1285 432 1280 c 1,31,32
 442 1270 442 1270 447 1261 c 2,33,-1
 489 1167 l 1,34,-1
 772 541 l 1,35,-1
 889 278 l 1,36,37
 1028 553 1028 553 1105 767 c 0,38,39
 1110 783 1110 783 1117 796 c 0,40,41
 1126 813 1126 813 1134 834 c 128,-1,42
 1142 855 1142 855 1199 994 c 0,43,44
 1222 1050 1222 1050 1236 1090 c 0,45,46
 1293 1250 1293 1250 1303 1273 c 1,47,48
 1322 1280 1322 1280 1336 1280 c 0,49,50
 1352 1280 1352 1280 1377 1278 c 0,51,52
 1433 1275 1433 1275 1559 1275 c 0,53,54
 1637 1275 1637 1275 1687 1277 c 1,55,56
 1689 1266 1689 1266 1689 1261 c 0,57,58
 1689 1254 1689 1254 1686 1242 c 1,59,60
 1654 1225 1654 1225 1609 1223 c 0,61,62
 1520 1218 1520 1218 1496 1209 c 128,-1,63
 1472 1200 1472 1200 1465.5 1186 c 128,-1,64
 1459 1172 1459 1172 1454 1094 c 1,65,-1
 1455 1048 l 1,66,-1
 1454 1000 l 2,67,68
 1454 850 1454 850 1462 496 c 1,69,-1
 1461 300 l 1,70,-1
 1462 174 l 2,71,72
 1462 100 1462 100 1469 86.5 c 128,-1,73
 1476 73 1476 73 1509 61 c 0,74,75
 1563 43 1563 43 1685 24 c 0,76,77
 1692 19 1692 19 1692 11 c 0,78,79
 1692 2 1692 2 1691 -9 c 1,80,-1
 1645 -9 l 2,81,82
 1586 -9 1586 -9 1517 -5.5 c 128,-1,83
 1448 -2 1448 -2 1443 -2 c 0,84,85
 1238 -2 1238 -2 1171 -6 c 0,86,87
 1130 -9 1130 -9 1119 -9 c 0,88,89
 1112 -9 1112 -9 1104 -5 c 1,90,-1
 1104 8 l 2,91,92
 1104 17 1104 17 1107 27 c 1,93,94
 1140 41 1140 41 1197 46 c 1,95,96
 1260 63 1260 63 1289 82 c 1,97,98
 1298 120 1298 120 1298 237 c 2,99,-1
 1295 439 l 2,100,101
 1295 472 1295 472 1298.5 562 c 128,-1,102
 1302 652 1302 652 1302 855 c 0,103,104
 1302 1016 1302 1016 1294 1099 c 1,105,106
 1277 1064 1277 1064 1227 947 c 2,107,-1
 1212 909 l 1,108,-1
 1210 903 l 1,109,-1
 1062 553 l 1,110,-1
 1009 418 l 1,111,-1
 940 254 l 2,112,113
 895 141 895 141 863 54 c 0,114,115
 849 14 849 14 840 -9 c 1,116,-1
 817 -8 l 1,117,118
 704 322 704 322 547.5 669 c 128,-1,119
 391 1016 391 1016 328 1127 c 1,120,121
 320 1084 320 1084 310 877 c 0,122,123
 297 625 297 625 297 322 c 0,124,125
 297 227 297 227 311 108 c 0,126,127
 315 74 315 74 340 57.5 c 128,-1,128
 365 41 365 41 469 39 c 0,129,130
 509 39 509 39 545 33 c 1,131,132
 552 18 552 18 552 11 c 0,133,134
 552 6 552 6 547 -6 c 1,135,-1
 236 5 l 2,136,137
 202 5 202 5 130 0 c 0,138,139
 90 -3 90 -3 15 -4 c 1,140,-1
 14 23 l 1,0,1
EndSplineSet
EndChar

StartChar: N
Encoding: 78 78 46
Width: 1579
GlyphClass: 1
Flags: W
LayerCount: 2
Fore
SplineSet
27 1223 m 1,0,-1
 26 1271 l 1,1,2
 181 1271 181 1271 253 1279 c 0,3,4
 281 1282 281 1282 292 1282 c 0,5,6
 301 1282 301 1282 319 1281 c 1,7,8
 361 1246 361 1246 397 1201 c 0,9,10
 405 1192 405 1192 415 1181 c 2,11,-1
 626 948 l 1,12,-1
 656 912 l 2,13,14
 720 837 720 837 772.5 784 c 128,-1,15
 825 731 825 731 977 563 c 2,16,-1
 1216 298 l 2,17,18
 1251 259 1251 259 1306 201 c 1,19,-1
 1307 217 l 1,20,21
 1301 356 1301 356 1301 364 c 2,22,-1
 1305 424 l 1,23,-1
 1303 518 l 1,24,-1
 1303 561 l 2,25,26
 1303 602 1303 602 1296 814 c 0,27,28
 1295 843 1295 843 1288 923.5 c 128,-1,29
 1281 1004 1281 1004 1281 1065 c 0,30,31
 1281 1175 1281 1175 1268 1193 c 0,32,33
 1259 1206 1259 1206 1183 1220 c 0,34,35
 1165 1221 1165 1221 1127 1226 c 0,36,37
 1082 1228 1082 1228 1074 1231 c 128,-1,38
 1066 1234 1066 1234 1058 1248 c 1,39,40
 1060 1264 1060 1264 1067 1278 c 1,41,42
 1094 1286 1094 1286 1120 1286 c 0,43,44
 1148 1286 1148 1286 1189.5 1279 c 128,-1,45
 1231 1272 1231 1272 1264 1272 c 0,46,47
 1310 1272 1310 1272 1407 1278 c 0,48,49
 1462 1282 1462 1282 1483 1282 c 2,50,-1
 1500 1282 l 1,51,-1
 1498 1251 l 1,52,53
 1482 1244 1482 1244 1454 1242.5 c 128,-1,54
 1426 1241 1426 1241 1402 1234 c 0,55,56
 1366 1223 1366 1223 1359 1215 c 0,57,58
 1335 1189 1335 1189 1335 1162 c 2,59,-1
 1346 846 l 1,60,-1
 1354 701 l 1,61,-1
 1353 659 l 1,62,-1
 1359 458 l 2,63,64
 1365 252 1365 252 1365 100 c 0,65,66
 1365 67 1365 67 1361 -43 c 1,67,-1
 1314 -47 l 1,68,69
 1279 -7 1279 -7 1073 205 c 0,70,71
 1025 254 1025 254 1008 274 c 2,72,-1
 922 373 l 2,73,74
 872 428 872 428 857 443 c 128,-1,75
 842 458 842 458 835 465 c 0,76,77
 726 589 726 589 552 775 c 0,78,79
 505 825 505 825 414 931 c 0,80,81
 357 998 357 998 342 1013 c 128,-1,82
 327 1028 327 1028 301 1047 c 1,83,-1
 298 1013 l 1,84,85
 298 818 298 818 308 475 c 2,86,-1
 315 144 l 2,87,88
 316 102 316 102 320 63 c 1,89,-1
 355 55 l 1,90,91
 450 46 450 46 542 28 c 1,92,93
 549 22 549 22 554 19 c 1,94,-1
 553 -19 l 1,95,96
 537 -24 537 -24 527 -24 c 0,97,98
 516 -24 516 -24 500 -22 c 0,99,100
 401 -14 401 -14 259 -14 c 0,101,102
 159 -14 159 -14 83 -19 c 2,103,-1
 69 -20 l 2,104,105
 60 -20 60 -20 43 -18 c 1,106,-1
 42 12 l 1,107,-1
 68 24 l 1,108,-1
 115 31 l 2,109,110
 178 40 178 40 207 51 c 0,111,112
 226 58 226 58 238 72 c 1,113,114
 249 141 249 141 249 274 c 0,115,116
 249 336 249 336 246 501 c 2,117,-1
 246 637 l 1,118,-1
 244 921 l 2,119,120
 242 1111 242 1111 231 1145 c 0,121,122
 225 1163 225 1163 206 1177 c 0,123,124
 168 1204 168 1204 106.5 1211 c 128,-1,125
 45 1218 45 1218 27 1223 c 1,0,-1
EndSplineSet
EndChar

StartChar: O
Encoding: 79 79 47
Width: 1600
GlyphClass: 1
Flags: W
LayerCount: 2
Fore
SplineSet
94 639 m 0,0,1
 94 741 94 741 118.5 820.5 c 128,-1,2
 143 900 143 900 201 993 c 128,-1,3
 259 1086 259 1086 341 1148.5 c 128,-1,4
 423 1211 423 1211 568 1259 c 0,5,6
 670 1292 670 1292 826 1292 c 0,7,8
 931 1292 931 1292 1031.5 1264 c 128,-1,9
 1132 1236 1132 1236 1214 1186 c 128,-1,10
 1296 1136 1296 1136 1378 1032 c 0,11,12
 1435 960 1435 960 1464 877 c 0,13,14
 1502 768 1502 768 1502 652 c 0,15,16
 1502 520 1502 520 1476.5 433 c 128,-1,17
 1451 346 1451 346 1391 261 c 0,18,19
 1344 195 1344 195 1230 109 c 0,20,21
 1154 51 1154 51 1041 15.5 c 128,-1,22
 928 -20 928 -20 797 -20 c 0,23,24
 664 -20 664 -20 560 11 c 128,-1,25
 456 42 456 42 386.5 86.5 c 128,-1,26
 317 131 317 131 243.5 218 c 128,-1,27
 170 305 170 305 132 410 c 128,-1,28
 94 515 94 515 94 639 c 0,0,1
788 17 m 0,29,30
 872 17 872 17 962.5 40.5 c 128,-1,31
 1053 64 1053 64 1123 118.5 c 128,-1,32
 1193 173 1193 173 1232.5 242.5 c 128,-1,33
 1272 312 1272 312 1296 421 c 128,-1,34
 1320 530 1320 530 1320 639 c 0,35,36
 1320 775 1320 775 1280 908 c 0,37,38
 1249 1009 1249 1009 1179 1088.5 c 128,-1,39
 1109 1168 1109 1168 1010 1211.5 c 128,-1,40
 911 1255 911 1255 799 1255 c 0,41,42
 708 1255 708 1255 621 1225 c 128,-1,43
 534 1195 534 1195 478 1148.5 c 128,-1,44
 422 1102 422 1102 374 1016.5 c 128,-1,45
 326 931 326 931 301 828 c 128,-1,46
 276 725 276 725 276 646 c 0,47,48
 276 563 276 563 301 458 c 128,-1,49
 326 353 326 353 369.5 276 c 128,-1,50
 413 199 413 199 476.5 139.5 c 128,-1,51
 540 80 540 80 619 48.5 c 128,-1,52
 698 17 698 17 788 17 c 0,29,30
EndSplineSet
EndChar

StartChar: P
Encoding: 80 80 48
Width: 1152
GlyphClass: 1
Flags: W
LayerCount: 2
Fore
SplineSet
44 1277 m 1,0,1
 62 1280 62 1280 67 1280 c 0,2,3
 101 1280 101 1280 179 1276 c 0,4,5
 220 1275 220 1275 235 1275 c 0,6,7
 257 1275 257 1275 328 1279 c 2,8,-1
 498 1289 l 2,9,10
 565 1295 565 1295 654 1295 c 0,11,12
 811 1295 811 1295 904 1250.5 c 128,-1,13
 997 1206 997 1206 1047.5 1111 c 128,-1,14
 1098 1016 1098 1016 1098 922 c 0,15,16
 1098 765 1098 765 988 651 c 128,-1,17
 878 537 878 537 692 537 c 0,18,19
 640 537 640 537 605 547.5 c 128,-1,20
 570 558 570 558 525 588 c 0,21,22
 506 601 506 601 502 615 c 1,23,24
 506 622 506 622 513 625 c 0,25,26
 527 625 527 625 542 619 c 0,27,28
 576 607 576 607 628 607 c 0,29,30
 707 607 707 607 777.5 646 c 128,-1,31
 848 685 848 685 884 757 c 128,-1,32
 920 829 920 829 920 909 c 0,33,34
 920 987 920 987 882 1060.5 c 128,-1,35
 844 1134 844 1134 782 1178 c 0,36,37
 747 1203 747 1203 674.5 1220 c 128,-1,38
 602 1237 602 1237 562 1237 c 0,39,40
 438 1237 438 1237 415 1219 c 1,41,-1
 414 1205 l 1,42,-1
 418 1092 l 1,43,-1
 417 1072 l 2,44,45
 415 1045 415 1045 415 989 c 0,46,47
 415 785 415 785 421 735 c 1,48,-1
 421 679 l 1,49,-1
 434 222 l 2,50,51
 434 212 434 212 431.5 185 c 128,-1,52
 429 158 429 158 429 138 c 0,53,54
 429 90 429 90 437 65 c 1,55,56
 461 58 461 58 577 32 c 0,57,58
 631 19 631 19 636 17 c 0,59,60
 644 14 644 14 650 4 c 1,61,62
 646 -11 646 -11 639.5 -15.5 c 128,-1,63
 633 -20 633 -20 614 -20 c 0,64,65
 602 -20 602 -20 558 -15 c 0,66,67
 472 -6 472 -6 423 -6 c 2,68,-1
 247 -13 l 1,69,-1
 142 -10 l 2,70,71
 132 -10 132 -10 84 -12 c 1,72,-1
 83 14 l 1,73,-1
 213 39 l 2,74,75
 245 48 245 48 252 57 c 0,76,77
 262 71 262 71 262 112 c 0,78,79
 262 121 262 121 263 151 c 0,80,81
 264 172 264 172 264 209 c 0,82,83
 264 327 264 327 254 712 c 0,84,85
 250 892 250 892 250 1078 c 2,86,-1
 250 1095 l 2,87,88
 250 1167 250 1167 228 1186 c 0,89,90
 191 1219 191 1219 43 1240 c 1,91,92
 38 1251 38 1251 38 1258 c 0,93,94
 38 1266 38 1266 44 1277 c 1,0,1
EndSplineSet
EndChar

StartChar: Q
Encoding: 81 81 49
Width: 1579
GlyphClass: 1
Flags: W
LayerCount: 2
Fore
SplineSet
476 1239 m 0,0,1
 632 1316 632 1316 818 1316 c 0,2,3
 998 1316 998 1316 1141.5 1233 c 128,-1,4
 1285 1150 1285 1150 1371 1014 c 0,5,6
 1477 845 1477 845 1477 648 c 0,7,8
 1477 519 1477 519 1422 382.5 c 128,-1,9
 1367 246 1367 246 1280.5 158.5 c 128,-1,10
 1194 71 1194 71 1102.5 28 c 128,-1,11
 1011 -15 1011 -15 959 -21 c 0,12,13
 923 -26 923 -26 906 -35 c 1,14,15
 947 -84 947 -84 1046.5 -162 c 128,-1,16
 1146 -240 1146 -240 1243 -283 c 0,17,18
 1252 -286 1252 -286 1276 -298 c 0,19,20
 1329 -324 1329 -324 1377 -344 c 2,21,-1
 1400 -353 l 1,22,-1
 1409 -354 l 1,23,-1
 1435 -365 l 2,24,25
 1487 -387 1487 -387 1531 -401 c 1,26,27
 1532 -410 1532 -410 1532 -415 c 2,28,-1
 1531 -427 l 1,29,-1
 1531 -445 l 1,30,31
 1499 -446 1499 -446 1492 -446 c 0,32,33
 1400 -446 1400 -446 1278.5 -411.5 c 128,-1,34
 1157 -377 1157 -377 1055.5 -320 c 128,-1,35
 954 -263 954 -263 835 -168 c 0,36,37
 755 -103 755 -103 702 -41 c 1,38,39
 527 -16 527 -16 386.5 80 c 128,-1,40
 246 176 246 176 171.5 318 c 128,-1,41
 97 460 97 460 97 609 c 0,42,43
 97 784 97 784 189 961 c 128,-1,44
 281 1138 281 1138 476 1239 c 0,0,1
672 10 m 1,45,46
 727 0 727 0 775 0 c 0,47,48
 885 0 885 0 972.5 34 c 128,-1,49
 1060 68 1060 68 1112 122 c 0,50,51
 1180 193 1180 193 1229 322 c 128,-1,52
 1278 451 1278 451 1278 645 c 0,53,54
 1278 798 1278 798 1233 924 c 0,55,56
 1203 1011 1203 1011 1133 1099 c 128,-1,57
 1063 1187 1063 1187 987.5 1228.5 c 128,-1,58
 912 1270 912 1270 797 1270 c 0,59,60
 662 1270 662 1270 544 1200 c 128,-1,61
 426 1130 426 1130 347 957 c 0,62,63
 297 847 297 847 297 651 c 0,64,65
 297 491 297 491 352.5 338.5 c 128,-1,66
 408 186 408 186 510 92 c 0,67,68
 569 37 569 37 672 10 c 1,45,46
EndSplineSet
EndChar

StartChar: R
Encoding: 82 82 50
Width: 1280
GlyphClass: 1
Flags: W
LayerCount: 2
Fore
SplineSet
56 30 m 1,0,1
 202 47 202 47 221 54 c 0,2,3
 234 59 234 59 245 84 c 1,4,-1
 245 95 l 2,5,6
 245 120 245 120 253 276 c 0,7,8
 255 320 255 320 255 362 c 2,9,-1
 252 481 l 1,10,-1
 254 616 l 1,11,-1
 253 867 l 1,12,-1
 254 1047 l 2,13,14
 255 1161 255 1161 236.5 1186 c 128,-1,15
 218 1211 218 1211 141 1221.5 c 128,-1,16
 64 1232 64 1232 56 1237 c 128,-1,17
 48 1242 48 1242 48 1253 c 0,18,19
 48 1260 48 1260 51 1271 c 1,20,21
 61 1280 61 1280 97 1281 c 0,22,23
 102 1281 102 1281 124.5 1283.5 c 128,-1,24
 147 1286 147 1286 167 1286 c 2,25,-1
 249 1286 l 1,26,-1
 512 1289 l 2,27,28
 735 1289 735 1289 824.5 1256 c 128,-1,29
 914 1223 914 1223 967 1144.5 c 128,-1,30
 1020 1066 1020 1066 1020 969 c 0,31,32
 1020 785 1020 785 827 688 c 0,33,34
 794 671 794 671 775 658 c 1,35,36
 809 586 809 586 870 485 c 2,37,-1
 997 267 l 1,38,39
 1073 147 1073 147 1102 116.5 c 128,-1,40
 1131 86 1131 86 1172.5 66 c 128,-1,41
 1214 46 1214 46 1312 28 c 1,42,43
 1313 18 1313 18 1313 12 c 256,44,45
 1313 6 1313 6 1312 -3 c 1,46,47
 1175 -5 1175 -5 991 -5 c 0,48,49
 978 -5 978 -5 955 -3 c 1,50,51
 884 133 884 133 788 296 c 1,52,-1
 640 566 l 1,53,54
 610 608 610 608 590.5 618.5 c 128,-1,55
 571 629 571 629 539 629 c 2,56,-1
 454 628 l 1,57,-1
 426 629 l 1,58,59
 423 597 423 597 423 498 c 2,60,-1
 423 156 l 2,61,62
 422 137 422 137 431 103 c 0,63,64
 439 84 439 84 458.5 72.5 c 128,-1,65
 478 61 478 61 571 38 c 2,66,-1
 612 28 l 1,67,68
 620 18 620 18 620 1 c 1,69,70
 593 -4 593 -4 582 -4 c 0,71,72
 492 -4 492 -4 455 -2 c 0,73,74
 436 -1 436 -1 424 -1 c 2,75,-1
 288 -3 l 1,76,-1
 155 -2 l 2,77,78
 146 -2 146 -2 64 -5 c 1,79,-1
 44 -1 l 1,80,-1
 42 9 l 2,81,82
 42 18 42 18 56 30 c 1,0,1
428 684 m 1,83,84
 455 683 455 683 468 683 c 0,85,86
 540 683 540 683 634 700 c 0,87,88
 700 713 700 713 741 742.5 c 128,-1,89
 782 772 782 772 809.5 830 c 128,-1,90
 837 888 837 888 837 950 c 0,91,92
 837 1018 837 1018 794 1094 c 0,93,94
 761 1152 761 1152 682.5 1191 c 128,-1,95
 604 1230 604 1230 494 1230 c 0,96,97
 467 1230 467 1230 424 1227 c 1,98,99
 420 1175 420 1175 420 1147 c 2,100,-1
 425 960 l 1,101,-1
 424 883 l 2,102,103
 424 805 424 805 428 684 c 1,83,84
EndSplineSet
EndChar

StartChar: S
Encoding: 83 83 51
Width: 981
GlyphClass: 1
Flags: W
LayerCount: 2
Fore
SplineSet
795 1234 m 1,0,1
 803 1168 803 1168 803 1158 c 2,2,-1
 799 1069 l 2,3,4
 797 1012 797 1012 794 996 c 1,5,6
 785 992 785 992 779 992 c 2,7,-1
 770 994 l 1,8,9
 738 1134 738 1134 661.5 1198 c 128,-1,10
 585 1262 585 1262 475 1262 c 0,11,12
 361 1262 361 1262 288 1198 c 128,-1,13
 215 1134 215 1134 215 1049 c 0,14,15
 215 984 215 984 266 930 c 256,16,17
 317 876 317 876 527 768 c 0,18,19
 687 685 687 685 756 632.5 c 128,-1,20
 825 580 825 580 860 511 c 128,-1,21
 895 442 895 442 895 357 c 0,22,23
 895 250 895 250 839.5 156 c 128,-1,24
 784 62 784 62 690 14.5 c 128,-1,25
 596 -33 596 -33 441 -33 c 0,26,27
 306 -33 306 -33 182 10 c 0,28,29
 109 36 109 36 93 52 c 128,-1,30
 77 68 77 68 77 86 c 0,31,32
 77 97 77 97 79 114 c 0,33,34
 93 232 93 232 94 308 c 0,35,36
 96 355 96 355 101 363 c 0,37,38
 105 370 105 370 116 370 c 0,39,40
 125 370 125 370 130.5 363.5 c 128,-1,41
 136 357 136 357 138 339 c 0,42,43
 149 216 149 216 252 119 c 0,44,45
 354 22 354 22 483 22 c 0,46,47
 562 22 562 22 628.5 55 c 128,-1,48
 695 88 695 88 732.5 150.5 c 128,-1,49
 770 213 770 213 770 272 c 0,50,51
 770 353 770 353 713 420 c 256,52,53
 656 487 656 487 484 576.5 c 128,-1,54
 312 666 312 666 260 707 c 0,55,56
 176 774 176 774 134 849 c 0,57,58
 103 907 103 907 103 984 c 0,59,60
 103 1123 103 1123 213 1219.5 c 128,-1,61
 323 1316 323 1316 508 1316 c 0,62,63
 610 1316 610 1316 684 1293 c 0,64,65
 738 1275 738 1275 795 1234 c 1,0,1
EndSplineSet
EndChar

StartChar: T
Encoding: 84 84 52
Width: 1259
GlyphClass: 1
Flags: W
LayerCount: 2
Fore
SplineSet
36 1130 m 2,0,-1
 77 1281 l 1,1,2
 81 1311 81 1311 88 1319.5 c 128,-1,3
 95 1328 95 1328 104 1328 c 0,4,5
 122 1328 122 1328 145 1285 c 0,6,7
 162 1254 162 1254 173 1245.5 c 128,-1,8
 184 1237 184 1237 205 1234 c 1,9,-1
 215 1235 l 1,10,-1
 258 1231 l 1,11,-1
 494 1228 l 1,12,-1
 773 1229 l 1,13,-1
 855 1229 l 1,14,-1
 1010 1232 l 2,15,16
 1020 1232 1020 1232 1035 1230 c 0,17,18
 1103 1224 1103 1224 1119 1224 c 0,19,20
 1134 1224 1134 1224 1143 1234 c 0,21,22
 1146 1238 1146 1238 1176 1302 c 0,23,24
 1189 1331 1189 1331 1208 1331 c 0,25,26
 1216 1331 1216 1331 1228 1327 c 1,27,28
 1233 1307 1233 1307 1233 1291 c 2,29,-1
 1232 1251 l 1,30,-1
 1233 1166 l 2,31,32
 1233 1135 1233 1135 1228 966 c 0,33,34
 1228 955 1228 955 1224 946 c 1,35,36
 1213 939 1213 939 1205 939 c 256,37,38
 1197 939 1197 939 1191 946.5 c 128,-1,39
 1185 954 1185 954 1176 993 c 0,40,41
 1156 1083 1156 1083 1126 1122 c 0,42,43
 1106 1147 1106 1147 1068.5 1158 c 128,-1,44
 1031 1169 1031 1169 889 1169 c 0,45,46
 775 1169 775 1169 720 1165 c 1,47,48
 718 1125 718 1125 718 1092 c 2,49,-1
 726 471 l 2,50,51
 726 434 726 434 722 331 c 1,52,-1
 723 198 l 1,53,-1
 722 124 l 2,54,55
 722 89 722 89 734 74 c 128,-1,56
 746 59 746 59 799 45 c 0,57,58
 891 22 891 22 922 17 c 0,59,60
 941 15 941 15 953 9 c 1,61,-1
 953 -21 l 1,62,-1
 811 -17 l 2,63,64
 694 -16 694 -16 635 -12 c 1,65,-1
 489 -19 l 1,66,-1
 382 -25 l 2,67,68
 337 -25 337 -25 327 -23 c 2,69,-1
 313 -17 l 1,70,71
 315 6 315 6 322 12.5 c 128,-1,72
 329 19 329 19 359 23 c 0,73,74
 401 29 401 29 458 44.5 c 128,-1,75
 515 60 515 60 533 76 c 0,76,77
 543 85 543 85 547 106 c 0,78,79
 556 150 556 150 556 279 c 2,80,-1
 556 449 l 1,81,-1
 552 820 l 1,82,-1
 548 900 l 1,83,-1
 547 1167 l 1,84,85
 484 1174 484 1174 386 1174 c 0,86,87
 242 1174 242 1174 211 1156 c 0,88,89
 162 1128 162 1128 65 992 c 0,90,91
 33 941 33 941 9 941 c 1,92,-1
 0 943 l 1,93,94
 -4 949 -4 949 -4 954 c 0,95,96
 -4 966 -4 966 12 1026 c 0,97,98
 32 1103 32 1103 36 1130 c 2,0,-1
EndSplineSet
EndChar

StartChar: U
Encoding: 85 85 53
Width: 1451
GlyphClass: 1
Flags: W
LayerCount: 2
Fore
SplineSet
584 1284 m 1,0,1
 589 1267 589 1267 589 1258 c 0,2,3
 589 1252 589 1252 586 1240 c 1,4,5
 560 1233 560 1233 544 1233 c 0,6,7
 537 1233 537 1233 520.5 1234.5 c 128,-1,8
 504 1236 504 1236 494 1236 c 0,9,10
 448 1236 448 1236 421 1218 c 0,11,12
 403 1207 403 1207 399 1189 c 2,13,-1
 389 1075 l 1,14,-1
 392 580 l 2,15,16
 393 308 393 308 410 241.5 c 128,-1,17
 427 175 427 175 467 132 c 128,-1,18
 507 89 507 89 587.5 61 c 128,-1,19
 668 33 668 33 744 33 c 0,20,21
 914 33 914 33 1004.5 82 c 128,-1,22
 1095 131 1095 131 1134.5 217.5 c 128,-1,23
 1174 304 1174 304 1174 480 c 0,24,25
 1174 485 1174 485 1171 560 c 2,26,-1
 1171 589 l 2,27,28
 1171 605 1171 605 1173 651.5 c 128,-1,29
 1175 698 1175 698 1175 706 c 2,30,-1
 1160 993 l 2,31,32
 1153 1138 1153 1138 1143.5 1164 c 128,-1,33
 1134 1190 1134 1190 1116 1203 c 0,34,35
 1077 1231 1077 1231 968 1253 c 1,36,37
 963 1267 963 1267 962 1282 c 1,38,39
 1001 1286 1001 1286 1039 1286 c 0,40,41
 1079 1286 1079 1286 1123 1283 c 0,42,43
 1189 1278 1189 1278 1195 1278 c 2,44,-1
 1353 1283 l 1,45,-1
 1384 1282 l 1,46,-1
 1383 1246 l 1,47,48
 1260 1230 1260 1230 1236 1208.5 c 128,-1,49
 1212 1187 1212 1187 1212 1129 c 0,50,51
 1212 1098 1212 1098 1216 994 c 2,52,-1
 1223 787 l 1,53,-1
 1222 705 l 1,54,-1
 1225 601 l 1,55,56
 1225 405 1225 405 1214 334 c 0,57,58
 1198 235 1198 235 1168.5 177 c 128,-1,59
 1139 119 1139 119 1083 72.5 c 128,-1,60
 1027 26 1027 26 933.5 -4 c 128,-1,61
 840 -34 840 -34 749 -34 c 0,62,63
 606 -34 606 -34 543 -14 c 0,64,65
 428 21 428 21 360 77 c 128,-1,66
 292 133 292 133 266 189 c 0,67,68
 231 263 231 263 231 405 c 2,69,-1
 231 474 l 1,70,-1
 228 754 l 1,71,-1
 231 980 l 1,72,-1
 231 1132 l 2,73,74
 231 1190 231 1190 215 1213 c 0,75,76
 204 1229 204 1229 183 1229 c 2,77,-1
 124 1228 l 2,78,79
 58 1228 58 1228 40 1242 c 1,80,81
 37 1251 37 1251 37 1258 c 0,82,83
 37 1267 37 1267 43 1272 c 0,84,85
 54 1280 54 1280 70 1280 c 2,86,-1
 96 1280 l 1,87,-1
 163 1281 l 1,88,-1
 321 1281 l 1,89,-1
 584 1284 l 1,0,1
EndSplineSet
EndChar

StartChar: V
Encoding: 86 86 54
Width: 1387
GlyphClass: 1
Flags: W
LayerCount: 2
Fore
SplineSet
-17 1268 m 1,0,-1
 -10 1285 l 1,1,2
 71 1285 71 1285 152 1283 c 2,3,-1
 185 1283 l 2,4,5
 200 1283 200 1283 218 1284 c 0,6,7
 283 1287 283 1287 453 1287 c 0,8,9
 487 1287 487 1287 519 1286.5 c 128,-1,10
 551 1286 551 1286 581 1285 c 0,11,12
 587 1282 587 1282 590 1276 c 2,13,-1
 588 1260 l 1,14,15
 582 1250 582 1250 558 1250 c 2,16,-1
 550 1250 l 2,17,18
 522 1251 522 1251 458 1245.5 c 128,-1,19
 394 1240 394 1240 374 1225 c 0,20,21
 361 1214 361 1214 361 1196 c 0,22,23
 361 1157 361 1157 394 1079 c 2,24,-1
 546 726 l 1,25,-1
 599 609 l 1,26,27
 676 423 676 423 751 229 c 0,28,29
 759 208 759 208 766 191 c 1,30,-1
 833 355 l 2,31,32
 885 479 885 479 938 619 c 2,33,-1
 1007 807 l 2,34,35
 1009 813 1009 813 1018 847 c 0,36,37
 1115 1112 1115 1112 1115 1182 c 0,38,39
 1115 1197 1115 1197 1101.5 1212.5 c 128,-1,40
 1088 1228 1088 1228 1058 1238 c 0,41,42
 1046 1242 1046 1242 980 1250 c 2,43,-1
 906 1259 l 1,44,45
 897 1269 897 1269 897 1276 c 2,46,-1
 900 1284 l 1,47,-1
 1224 1287 l 1,48,-1
 1331 1287 l 2,49,50
 1385 1287 1385 1287 1405 1280 c 1,51,-1
 1406 1272 l 2,52,53
 1406 1264 1406 1264 1400 1251 c 1,54,55
 1376 1243 1376 1243 1356 1241 c 0,56,57
 1272 1231 1272 1231 1252 1217.5 c 128,-1,58
 1232 1204 1232 1204 1210 1160 c 2,59,-1
 947 510 l 1,60,61
 824 217 824 217 772 56 c 2,62,-1
 743 -31 l 1,63,64
 730 -39 730 -39 721 -39 c 0,65,66
 710 -39 710 -39 697 -37 c 1,67,68
 578 271 578 271 503 439 c 2,69,-1
 197 1133 l 1,70,71
 164 1195 164 1195 147.5 1207.5 c 128,-1,72
 131 1220 131 1220 32 1243 c 0,73,74
 -3 1251 -3 1251 -7 1253 c 0,75,76
 -14 1258 -14 1258 -17 1268 c 1,0,-1
EndSplineSet
EndChar

StartChar: W
Encoding: 87 87 55
Width: 1813
GlyphClass: 1
Flags: W
LayerCount: 2
Fore
SplineSet
-19 1240 m 1,0,-1
 -20 1256 l 1,1,2
 -6 1274 -6 1274 59 1274 c 2,3,-1
 152 1273 l 1,4,-1
 206 1272 l 1,5,-1
 230 1273 l 1,6,7
 361 1273 361 1273 388 1269 c 1,8,9
 389 1257 389 1257 389 1251 c 0,10,11
 389 1242 389 1242 387 1225 c 1,12,-1
 290 1221 l 2,13,14
 283 1220 283 1220 271 1216 c 1,15,16
 267 1206 267 1206 267 1201 c 0,17,18
 267 1195 267 1195 273 1182 c 0,19,20
 281 1165 281 1165 288 1146 c 2,21,-1
 351 970 l 1,22,-1
 501 594 l 2,23,24
 527 525 527 525 536 505 c 0,25,26
 564 442 564 442 607 329 c 0,27,28
 622 290 622 290 679 160 c 0,29,30
 682 152 682 152 691 134 c 1,31,32
 736 207 736 207 823 389 c 0,33,34
 891 529 891 529 908 582 c 1,35,-1
 900 602 l 1,36,-1
 728 992 l 2,37,38
 694 1065 694 1065 675 1108 c 0,39,40
 636 1198 636 1198 618 1211 c 128,-1,41
 600 1224 600 1224 512 1229 c 1,42,-1
 491 1234 l 1,43,44
 483 1243 483 1243 483 1255 c 0,45,46
 485 1264 485 1264 492 1269 c 1,47,48
 524 1270 524 1270 537 1270 c 2,49,-1
 600 1268 l 1,50,-1
 632 1269 l 1,51,-1
 687 1269 l 1,52,-1
 736 1270 l 1,53,-1
 788 1270 l 1,54,-1
 882 1275 l 2,55,56
 891 1275 891 1275 909 1274 c 2,57,-1
 925 1275 l 2,58,59
 939 1275 939 1275 946 1268.5 c 128,-1,60
 953 1262 953 1262 953 1254 c 0,61,62
 953 1247 953 1247 949 1238 c 1,63,64
 933 1232 933 1232 892 1228 c 0,65,66
 833 1221 833 1221 823.5 1215 c 128,-1,67
 814 1209 814 1209 814 1199 c 0,68,69
 814 1180 814 1180 891 998 c 2,70,-1
 993 767 l 1,71,72
 1040 859 1040 859 1121 1057 c 0,73,74
 1155 1139 1155 1139 1155 1178 c 0,75,76
 1155 1199 1155 1199 1138 1216 c 0,77,78
 1125 1228 1125 1228 1080 1232 c 2,79,-1
 1059 1235 l 1,80,-1
 1041 1243 l 1,81,-1
 1040 1251 l 2,82,83
 1040 1257 1040 1257 1045 1268 c 1,84,85
 1055 1276 1055 1276 1063 1277 c 0,86,87
 1078 1279 1078 1279 1202 1272 c 1,88,-1
 1270 1272 l 1,89,-1
 1312 1271 l 1,90,-1
 1382 1272 l 2,91,92
 1390 1271 1390 1271 1406 1267 c 1,93,94
 1414 1259 1414 1259 1414 1252 c 0,95,96
 1414 1241 1414 1241 1405.5 1234 c 128,-1,97
 1397 1227 1397 1227 1367 1222 c 0,98,99
 1291 1209 1291 1209 1253 1182 c 0,100,101
 1228 1163 1228 1163 1208 1128 c 2,102,-1
 1135 966 l 1,103,104
 1109 892 1109 892 1092 855 c 0,105,106
 1085 832 1085 832 1066 794 c 2,107,-1
 1025 699 l 1,108,109
 1036 673 1036 673 1062 615 c 2,110,-1
 1165 376 l 2,111,112
 1172 360 1172 360 1206.5 287 c 128,-1,113
 1241 214 1241 214 1264 152 c 1,114,-1
 1279 200 l 1,115,-1
 1281 205 l 1,116,-1
 1342 364 l 2,117,118
 1374 437 1374 437 1406 518 c 2,119,-1
 1483 712 l 1,120,-1
 1599 1042 l 2,121,122
 1617 1099 1617 1099 1628 1152 c 2,123,-1
 1631 1168 l 2,124,125
 1634 1179 1634 1179 1634 1184 c 0,126,127
 1634 1198 1634 1198 1620 1209.5 c 128,-1,128
 1606 1221 1606 1221 1521 1241 c 0,129,130
 1513 1244 1513 1244 1505 1250 c 1,131,132
 1502 1262 1502 1262 1502 1269 c 2,133,-1
 1503 1276 l 1,134,135
 1545 1278 1545 1278 1556 1278 c 2,136,-1
 1633 1276 l 1,137,-1
 1720 1277 l 1,138,-1
 1795 1277 l 1,139,-1
 1825 1275 l 1,140,-1
 1826 1265 l 2,141,142
 1826 1258 1826 1258 1824 1244 c 1,143,144
 1752 1216 1752 1216 1734.5 1204 c 128,-1,145
 1717 1192 1717 1192 1707.5 1178 c 128,-1,146
 1698 1164 1698 1164 1672 1102 c 0,147,148
 1669 1096 1669 1096 1609 922 c 0,149,150
 1596 896 1596 896 1582 853 c 0,151,152
 1578 841 1578 841 1565 810 c 2,153,-1
 1549 770 l 1,154,-1
 1538 741 l 2,155,156
 1472 559 1472 559 1393 360 c 1,157,-1
 1285 60 l 1,158,-1
 1242 -54 l 1,159,160
 1226 -56 1226 -56 1218 -56 c 0,161,162
 1211 -56 1211 -56 1198 -55 c 1,163,164
 1185 -18 1185 -18 1141 85 c 0,165,166
 1027 347 1027 347 936 520 c 1,167,-1
 924 500 l 1,168,169
 873 403 873 403 801 243 c 1,170,-1
 723 85 l 2,171,172
 675 -16 675 -16 645 -55 c 1,173,-1
 602 -56 l 1,174,-1
 440 340 l 1,175,-1
 306 654 l 1,176,-1
 188 952 l 2,177,178
 176 981 176 981 167 1007 c 0,179,180
 160 1026 160 1026 154 1046 c 0,181,182
 144 1077 144 1077 98 1187 c 1,183,184
 80 1216 80 1216 40 1224 c 128,-1,185
 0 1232 0 1232 -19 1240 c 1,0,-1
EndSplineSet
EndChar

StartChar: X
Encoding: 88 88 56
Width: 1429
GlyphClass: 1
Flags: W
LayerCount: 2
Fore
SplineSet
10 -10 m 1,0,-1
 14 17 l 1,1,2
 35 24 35 24 103 32 c 1,3,4
 189 52 189 52 201 59 c 0,5,6
 219 69 219 69 250 99 c 0,7,8
 310 160 310 160 344 204 c 0,9,10
 359 223 359 223 422 292 c 0,11,12
 580 468 580 468 659 588 c 1,13,14
 505 788 505 788 366.5 986 c 128,-1,15
 228 1184 228 1184 192 1210 c 0,16,17
 180 1219 180 1219 78 1228 c 0,18,19
 40 1231 40 1231 23 1234 c 1,20,21
 17 1252 17 1252 17 1263 c 2,22,-1
 19 1274 l 1,23,24
 90 1277 90 1277 107 1277 c 2,25,-1
 134 1277 l 1,26,-1
 201 1272 l 1,27,-1
 369 1263 l 2,28,29
 417 1260 417 1260 502 1260 c 0,30,31
 527 1260 527 1260 569 1269 c 0,32,33
 593 1273 593 1273 607 1273 c 0,34,35
 619 1273 619 1273 645 1269 c 1,36,37
 650 1256 650 1256 650 1249 c 2,38,-1
 649 1242 l 1,39,40
 631 1235 631 1235 572.5 1227 c 128,-1,41
 514 1219 514 1219 489.5 1209.5 c 128,-1,42
 465 1200 465 1200 455 1189 c 1,43,44
 450 1173 450 1173 450 1164 c 256,45,46
 450 1155 450 1155 455 1144 c 0,47,48
 483 1082 483 1082 590 940 c 2,49,-1
 763 712 l 1,50,51
 822 783 822 783 889 884 c 0,52,53
 1038 1108 1038 1108 1046 1126 c 128,-1,54
 1054 1144 1054 1144 1054 1158 c 0,55,56
 1054 1177 1054 1177 1040 1191.5 c 128,-1,57
 1026 1206 1026 1206 989 1213 c 0,58,59
 909 1230 909 1230 895 1231 c 0,60,61
 886 1234 886 1234 879 1238 c 1,62,63
 871 1254 871 1254 871 1263 c 2,64,-1
 873 1274 l 1,65,-1
 1069 1277 l 1,66,-1
 1258 1277 l 1,67,-1
 1360 1275 l 1,68,-1
 1375 1272 l 1,69,-1
 1377 1252 l 1,70,-1
 1254 1209 l 1,71,72
 1190 1177 1190 1177 1174 1164 c 0,73,74
 1142 1138 1142 1138 1058 1036.5 c 128,-1,75
 974 935 974 935 897 825 c 0,76,77
 882 804 882 804 838 749 c 0,78,79
 813 717 813 717 788 680 c 1,80,81
 791 672 791 672 798 664 c 2,82,-1
 812 646 l 1,83,-1
 1110 246 l 2,84,85
 1205 115 1205 115 1247 75 c 0,86,87
 1273 50 1273 50 1308 38 c 128,-1,88
 1343 26 1343 26 1442 17 c 1,89,90
 1449 0 1449 0 1449 -10 c 2,91,-1
 1448 -20 l 1,92,-1
 1414 -21 l 2,93,94
 1399 -21 1399 -21 1365 -17 c 0,95,96
 1301 -9 1301 -9 1197 -8 c 2,97,-1
 1097 -6 l 1,98,-1
 920 -13 l 2,99,100
 858 -19 858 -19 850 -19 c 0,101,102
 840 -19 840 -19 826 -17 c 1,103,104
 821 -5 821 -5 821 1 c 0,105,106
 821 6 821 6 826 17 c 1,107,-1
 883 22 l 1,108,-1
 994 44 l 2,109,110
 1011 50 1011 50 1019 70 c 1,111,112
 1013 90 1013 90 1005 103 c 0,113,114
 967 169 967 169 851.5 328.5 c 128,-1,115
 736 488 736 488 689 546 c 1,116,117
 675 536 675 536 566 392 c 0,118,119
 424 205 424 205 410 177 c 0,120,121
 390 139 390 139 390 110 c 0,122,123
 390 73 390 73 429 54 c 0,124,125
 456 40 456 40 620 15 c 1,126,127
 622 2 622 2 622 -5 c 0,128,129
 622 -10 622 -10 621 -19 c 1,130,-1
 590 -20 l 2,131,132
 569 -20 569 -20 466 -6 c 1,133,134
 282 -1 282 -1 209 -1 c 0,135,136
 148 -1 148 -1 83 -8 c 0,137,138
 49 -11 49 -11 42 -11 c 0,139,140
 28 -11 28 -11 10 -10 c 1,0,-1
EndSplineSet
EndChar

StartChar: Y
Encoding: 89 89 57
Width: 1344
GlyphClass: 1
Flags: W
LayerCount: 2
Fore
SplineSet
-20 1289 m 1,0,-1
 28 1289 l 2,1,2
 54 1289 54 1289 142 1286 c 0,3,4
 278 1280 278 1280 368 1280 c 2,5,-1
 485 1282 l 2,6,7
 510 1282 510 1282 533 1278 c 1,8,9
 540 1270 540 1270 540 1261 c 2,10,-1
 540 1250 l 1,11,-1
 515 1238 l 1,12,-1
 504 1238 l 1,13,-1
 448 1237 l 1,14,-1
 419 1238 l 2,15,16
 385 1238 385 1238 364 1223 c 0,17,18
 348 1212 348 1212 348 1200 c 0,19,20
 348 1187 348 1187 362 1167 c 0,21,22
 367 1159 367 1159 378 1143 c 0,23,24
 398 1109 398 1109 431 1064 c 0,25,26
 478 998 478 998 531 908 c 0,27,28
 552 872 552 872 575 839 c 2,29,-1
 727 609 l 1,30,31
 742 628 742 628 768 665 c 2,32,-1
 912 872 l 1,33,-1
 1078 1121 l 2,34,35
 1100 1155 1100 1155 1104 1171 c 0,36,37
 1106 1179 1106 1179 1106 1188 c 0,38,39
 1106 1209 1106 1209 1087 1222 c 0,40,41
 1056 1243 1056 1243 953 1253 c 0,42,43
 946 1254 946 1254 934 1256 c 1,44,45
 927 1268 927 1268 927 1276 c 0,46,47
 927 1282 927 1282 928 1289 c 1,48,-1
 980 1290 l 1,49,-1
 1168 1285 l 1,50,-1
 1319 1288 l 2,51,52
 1325 1288 1325 1288 1361 1287 c 1,53,-1
 1358 1252 l 1,54,55
 1351 1250 1351 1250 1336 1249 c 2,56,-1
 1312 1246 l 2,57,58
 1306 1245 1306 1245 1293 1244 c 0,59,60
 1272 1236 1272 1236 1260 1227 c 0,61,62
 1113 1072 1113 1072 1010 934 c 128,-1,63
 907 796 907 796 836 683 c 0,64,65
 813 646 813 646 799 628 c 0,66,67
 773 594 773 594 768 578 c 0,68,69
 757 539 757 539 757 460 c 0,70,71
 757 149 757 149 768 93 c 0,72,73
 774 65 774 65 784 59 c 0,74,75
 810 46 810 46 991 28 c 1,76,-1
 991 16 l 2,77,78
 991 4 991 4 984 -13 c 1,79,-1
 728 -2 l 1,80,-1
 557 -11 l 1,81,-1
 417 -11 l 2,82,83
 397 -11 397 -11 373 -10 c 1,84,85
 369 1 369 1 369 6 c 256,86,87
 369 11 369 11 372 20 c 1,88,89
 379 26 379 26 386 27 c 2,90,-1
 515 47 l 1,91,92
 582 69 582 69 590 77 c 0,93,94
 602 89 602 89 605 114 c 0,95,96
 606 132 606 132 606 392 c 0,97,98
 606 489 606 489 599.5 510.5 c 128,-1,99
 593 532 593 532 557 586 c 2,100,-1
 426 785 l 1,101,-1
 203 1110 l 2,102,103
 145 1195 145 1195 102 1224 c 0,104,105
 83 1237 83 1237 7 1244 c 0,106,107
 -1 1244 -1 1244 -17 1246 c 1,108,-1
 -20 1289 l 1,0,-1
EndSplineSet
EndChar

StartChar: Z
Encoding: 90 90 58
Width: 1344
GlyphClass: 1
Flags: W
LayerCount: 2
Fore
SplineSet
74 -12 m 1,0,-1
 72 13 l 1,1,2
 140 86 140 86 160 115 c 0,3,4
 166 124 166 124 197 161 c 2,5,-1
 253 240 l 1,6,-1
 637 751 l 1,7,-1
 968 1192 l 2,8,9
 975 1203 975 1203 983 1216 c 1,10,11
 947 1218 947 1218 922 1218 c 0,12,13
 896 1218 896 1218 856.5 1216.5 c 128,-1,14
 817 1215 817 1215 642 1212 c 0,15,16
 635 1212 635 1212 577.5 1206.5 c 128,-1,17
 520 1201 520 1201 423 1196 c 128,-1,18
 326 1191 326 1191 281 1171 c 0,19,20
 257 1160 257 1160 225 1127 c 0,21,22
 184 1084 184 1084 159 1042 c 0,23,24
 126 986 126 986 106 973 c 1,25,-1
 89 971 l 1,26,27
 92 991 92 991 110 1036.5 c 128,-1,28
 128 1082 128 1082 160 1200 c 1,29,30
 183 1264 183 1264 192.5 1294 c 128,-1,31
 202 1324 202 1324 211 1343 c 1,32,33
 222 1346 222 1346 230 1346 c 2,34,-1
 243 1346 l 1,35,36
 235 1319 235 1319 235 1308 c 0,37,38
 235 1277 235 1277 260 1260.5 c 128,-1,39
 285 1244 285 1244 392 1244 c 0,40,41
 437 1244 437 1244 483 1249 c 0,42,43
 501 1251 501 1251 570 1254 c 2,44,-1
 624 1254 l 1,45,-1
 858 1260 l 1,46,-1
 1066 1266 l 1,47,-1
 1166 1271 l 2,48,49
 1185 1271 1185 1271 1206 1264 c 1,50,-1
 1207 1257 l 2,51,52
 1207 1241 1207 1241 1131 1148 c 0,53,54
 1091 1100 1091 1100 1082 1087 c 2,55,-1
 895 837 l 2,56,57
 853 780 853 780 830 751 c 0,58,59
 817 735 817 735 751 649 c 2,60,-1
 606 458 l 1,61,-1
 404 191 l 2,62,63
 334 101 334 101 310 65 c 0,64,65
 305 59 305 59 298 48 c 1,66,-1
 687 45 l 2,67,68
 774 44 774 44 826 44 c 0,69,70
 1019 44 1019 44 1097 103.5 c 128,-1,71
 1175 163 1175 163 1205 302 c 0,72,73
 1212 333 1212 333 1216 349 c 1,74,75
 1227 359 1227 359 1241 359 c 1,76,-1
 1245 356 l 1,77,78
 1247 334 1247 334 1247 316 c 0,79,80
 1247 266 1247 266 1244 179 c 2,81,-1
 1241 111 l 1,82,-1
 1243 49 l 2,83,84
 1243 22 1243 22 1238 -2 c 1,85,86
 1202 -5 1202 -5 1194 -5 c 0,87,88
 1153 -3 1153 -3 1125 -3 c 2,89,-1
 867 -7 l 1,90,-1
 550 0 l 1,91,-1
 386 -3 l 2,92,93
 378 -3 378 -3 325 0 c 0,94,95
 297 2 297 2 281 2 c 0,96,97
 227 2 227 2 134 -11 c 0,98,99
 102 -15 102 -15 96 -15 c 0,100,101
 88 -15 88 -15 74 -12 c 1,0,-1
EndSplineSet
EndChar

StartChar: bracketleft
Encoding: 91 91 59
Width: 555
GlyphClass: 1
Flags: W
LayerCount: 2
Fore
SplineSet
215 1285 m 1,0,-1
 603 1283 l 1,1,-1
 605 1241 l 1,2,-1
 467 1243 l 2,3,4
 384 1243 384 1243 356 1225 c 1,5,-1
 352 1220 l 1,6,7
 345 1174 345 1174 345 1063 c 2,8,-1
 346 1022 l 1,9,-1
 344 925 l 1,10,-1
 344 848 l 1,11,-1
 340 795 l 1,12,-1
 341 765 l 1,13,-1
 341 669 l 2,14,15
 341 662 341 662 343 603 c 0,16,17
 345 574 345 574 345 563 c 2,18,-1
 344 428 l 1,19,-1
 346 297 l 1,20,-1
 342 203 l 1,21,-1
 347 -63 l 2,22,23
 347 -178 347 -178 342 -240 c 2,24,-1
 341 -256 l 1,25,-1
 347 -381 l 2,26,27
 348 -402 348 -402 354.5 -409.5 c 128,-1,28
 361 -417 361 -417 383 -422 c 0,29,30
 429 -432 429 -432 507 -432 c 2,31,-1
 549 -431 l 2,32,33
 576 -431 576 -431 601 -432 c 1,34,-1
 603 -475 l 1,35,-1
 214 -475 l 1,36,-1
 208 -276 l 1,37,-1
 218 -56 l 2,38,39
 219 -2 219 -2 219 80 c 0,40,41
 219 119 219 119 218 135 c 2,42,-1
 213 221 l 1,43,-1
 216 516 l 1,44,-1
 212 641 l 2,45,46
 212 732 212 732 214.5 769.5 c 128,-1,47
 217 807 217 807 217 825 c 2,48,-1
 213 931 l 1,49,-1
 215 1073 l 1,50,-1
 213 1251 l 1,51,-1
 215 1285 l 1,0,-1
EndSplineSet
EndChar

StartChar: backslash
Encoding: 92 92 60
Width: 1024
GlyphClass: 1
Flags: W
LayerCount: 2
Fore
SplineSet
113 1426 m 1,0,-1
 200 1426 l 1,1,-1
 911 -277 l 1,2,-1
 823 -277 l 1,3,-1
 113 1426 l 1,0,-1
EndSplineSet
EndChar

StartChar: bracketright
Encoding: 93 93 61
Width: 555
GlyphClass: 1
Flags: W
LayerCount: 2
Fore
SplineSet
-42 1240 m 1,0,-1
 -43 1282 l 1,1,-1
 2 1284 l 1,2,-1
 41 1284 l 1,3,-1
 312 1285 l 2,4,5
 328 1285 328 1285 349 1281 c 1,6,-1
 347 1171 l 1,7,-1
 348 1151 l 2,8,9
 351 1085 351 1085 351 1011 c 0,10,11
 351 976 351 976 347 925.5 c 128,-1,12
 343 875 343 875 343 857 c 0,13,14
 343 698 343 698 351 586 c 1,15,-1
 351 503 l 1,16,-1
 353 368 l 1,17,-1
 351 318 l 1,18,-1
 354 93 l 2,19,20
 354 70 354 70 352.5 37.5 c 128,-1,21
 351 5 351 5 351 -10 c 256,22,23
 351 -25 351 -25 355 -124 c 1,24,-1
 354 -316 l 1,25,-1
 357 -434 l 2,26,27
 357 -452 357 -452 356 -476 c 1,28,-1
 -35 -477 l 1,29,-1
 -36 -434 l 1,30,-1
 -18 -434 l 2,31,32
 -7 -434 -7 -434 16 -434.5 c 128,-1,33
 39 -435 39 -435 54 -435 c 0,34,35
 184 -435 184 -435 216 -415 c 1,36,37
 224 -381 224 -381 224 -270 c 2,38,-1
 223 -223 l 1,39,-1
 224 -120 l 1,40,-1
 224 -46 l 2,41,42
 224 -32 224 -32 227 6 c 2,43,-1
 227 67 l 1,44,-1
 218 494 l 2,45,46
 218 506 218 506 220 541 c 0,47,48
 222 589 222 589 222 609 c 0,49,50
 222 656 222 656 216 858 c 0,51,52
 214 928 214 928 214 945 c 0,53,54
 214 972 214 972 220 1060 c 1,55,-1
 215 1162 l 1,56,-1
 214 1195 l 2,57,58
 212 1203 212 1203 206 1220 c 1,59,60
 176 1231 176 1231 153 1234 c 0,61,62
 142 1235 142 1235 -42 1240 c 1,0,-1
EndSplineSet
EndChar

StartChar: asciicircum
Encoding: 94 94 62
Width: 1024
GlyphClass: 1
Flags: W
LayerCount: 2
Fore
SplineSet
513 1374 m 1,0,-1
 961 836 l 1,1,-1
 896 783 l 1,2,-1
 513 1244 l 1,3,-1
 129 783 l 1,4,-1
 66 836 l 1,5,-1
 513 1374 l 1,0,-1
EndSplineSet
EndChar

StartChar: underscore
Encoding: 95 95 63
Width: 1024
GlyphClass: 1
Flags: W
LayerCount: 2
Fore
SplineSet
-12 -154 m 1,0,-1
 1036 -154 l 1,1,-1
 1036 -256 l 1,2,-1
 -12 -256 l 1,3,-1
 -12 -154 l 1,0,-1
EndSplineSet
EndChar

StartChar: grave
Encoding: 96 96 64
Width: 683
GlyphClass: 1
Flags: W
LayerCount: 2
Fore
SplineSet
535 984 m 1,0,-1
 518 983 l 1,1,2
 503 993 503 993 319 1117 c 0,3,4
 231 1177 231 1177 215 1200.5 c 128,-1,5
 199 1224 199 1224 199 1242 c 0,6,7
 199 1262 199 1262 215 1277.5 c 128,-1,8
 231 1293 231 1293 252 1293 c 0,9,10
 288 1293 288 1293 330.5 1258 c 128,-1,11
 373 1223 373 1223 461 1092 c 0,12,13
 484 1058 484 1058 499 1038 c 0,14,15
 525 1004 525 1004 535 984 c 1,0,-1
EndSplineSet
EndChar

StartChar: a
Encoding: 97 97 65
Width: 832
GlyphClass: 1
Flags: W
LayerCount: 2
Fore
SplineSet
813 136 m 1,0,1
 819 123 819 123 819 117 c 0,2,3
 819 102 819 102 795 64 c 0,4,5
 764 14 764 14 726 -9 c 0,6,7
 702 -24 702 -24 660 -24 c 0,8,9
 588 -24 588 -24 552 20 c 0,10,11
 530 46 530 46 521 113 c 1,12,-1
 409 35 l 1,13,14
 350 1 350 1 319 -8 c 0,15,16
 269 -21 269 -21 199 -21 c 0,17,18
 148 -21 148 -21 118.5 9.5 c 128,-1,19
 89 40 89 40 89 88 c 0,20,21
 89 157 89 157 173.5 253 c 128,-1,22
 258 349 258 349 403 410 c 0,23,24
 505 453 505 453 528 465 c 1,25,26
 530 498 530 498 530 537 c 0,27,28
 530 664 530 664 494.5 709 c 128,-1,29
 459 754 459 754 393 754 c 0,30,31
 324 754 324 754 264 700 c 0,32,33
 227 666 227 666 208 572 c 0,34,35
 202 546 202 546 185 516 c 1,36,37
 142 488 142 488 116 488 c 0,38,39
 94 488 94 488 76 501 c 0,40,41
 66 508 66 508 66 517 c 0,42,43
 66 543 66 543 121.5 634.5 c 128,-1,44
 177 726 177 726 261.5 771.5 c 128,-1,45
 346 817 346 817 409 817 c 0,46,47
 495 817 495 817 537 801.5 c 128,-1,48
 579 786 579 786 611 747 c 128,-1,49
 643 708 643 708 650 662 c 0,50,51
 654 640 654 640 654 505 c 2,52,-1
 651 346 l 1,53,-1
 652 230 l 2,54,55
 652 207 652 207 651 191 c 0,56,57
 650 162 650 162 650 148 c 0,58,59
 650 115 650 115 669 95 c 256,60,61
 688 75 688 75 714 75 c 0,62,63
 752 75 752 75 779 113 c 2,64,-1
 791 129 l 2,65,66
 796 132 796 132 813 136 c 1,0,1
519 165 m 1,67,68
 526 292 526 292 526 344 c 0,69,70
 526 371 526 371 523 417 c 1,71,72
 456 393 456 393 381 344 c 128,-1,73
 306 295 306 295 262 231 c 0,74,75
 230 185 230 185 230 144 c 0,76,77
 230 105 230 105 256.5 79 c 128,-1,78
 283 53 283 53 323 53 c 0,79,80
 354 53 354 53 398 75 c 0,81,82
 456 104 456 104 519 165 c 1,67,68
EndSplineSet
EndChar

StartChar: b
Encoding: 98 98 66
Width: 1045
GlyphClass: 1
Flags: W
LayerCount: 2
Fore
SplineSet
34 1257 m 1,0,-1
 34 1262 l 2,1,2
 34 1272 34 1272 42 1290 c 1,3,4
 151 1309 151 1309 274 1348 c 0,5,6
 281 1349 281 1349 296 1349 c 1,7,8
 301 1333 301 1333 301 1328 c 2,9,-1
 301 1030 l 1,10,-1
 300 935 l 1,11,-1
 301 829 l 1,12,-1
 299 743 l 2,13,14
 299 738 299 738 301 709 c 1,15,-1
 383 740 l 2,16,17
 396 744 396 744 469 766 c 1,18,19
 562 781 562 781 577 781 c 0,20,21
 677 781 677 781 757 749 c 0,22,23
 806 729 806 729 854 682.5 c 128,-1,24
 902 636 902 636 925 584 c 0,25,26
 965 489 965 489 965 420 c 0,27,28
 965 311 965 311 951 269 c 0,29,30
 917 169 917 169 868 111 c 128,-1,31
 819 53 819 53 731 12 c 128,-1,32
 643 -29 643 -29 544 -29 c 0,33,34
 453 -29 453 -29 372 5 c 128,-1,35
 291 39 291 39 281 39 c 0,36,37
 250 39 250 39 202 -43 c 1,38,-1
 173 -42 l 1,39,40
 169 25 169 25 169 123 c 2,41,-1
 171 272 l 1,42,-1
 170 348 l 1,43,-1
 172 566 l 1,44,-1
 170 608 l 1,45,-1
 174 711 l 1,46,-1
 174 799 l 1,47,-1
 175 835 l 2,48,49
 175 846 175 846 174 922 c 2,50,-1
 174 982 l 2,51,52
 177 1156 177 1156 159 1183 c 0,53,54
 130 1226 130 1226 34 1257 c 1,0,-1
509 26 m 0,55,56
 661 26 661 26 740.5 111.5 c 128,-1,57
 820 197 820 197 820 366 c 0,58,59
 820 521 820 521 730 617 c 128,-1,60
 640 713 640 713 508 713 c 0,61,62
 412 713 412 713 347 682 c 0,63,64
 308 663 308 663 303.5 647 c 128,-1,65
 299 631 299 631 299 433 c 0,66,67
 299 198 299 198 309 158 c 0,68,69
 326 96 326 96 371 69 c 0,70,71
 442 26 442 26 509 26 c 0,55,56
EndSplineSet
EndChar

StartChar: c
Encoding: 99 99 67
Width: 853
GlyphClass: 1
Flags: W
LayerCount: 2
Fore
SplineSet
799 183 m 1,0,-1
 800 118 l 1,1,2
 722 35 722 35 646 2 c 128,-1,3
 570 -31 570 -31 467 -31 c 0,4,5
 355 -31 355 -31 265 27.5 c 128,-1,6
 175 86 175 86 126.5 193 c 128,-1,7
 78 300 78 300 78 403 c 0,8,9
 78 516 78 516 136.5 616.5 c 128,-1,10
 195 717 195 717 291.5 766.5 c 128,-1,11
 388 816 388 816 534 816 c 0,12,13
 674 816 674 816 747 768 c 0,14,15
 788 740 788 740 788 696 c 0,16,17
 788 664 788 664 767 643 c 128,-1,18
 746 622 746 622 713 622 c 0,19,20
 663 622 663 622 603 684 c 0,21,22
 566 722 566 722 536 736.5 c 128,-1,23
 506 751 506 751 469 751 c 0,24,25
 380 751 380 751 321 678 c 0,26,27
 239 574 239 574 239 417 c 0,28,29
 239 255 239 255 323 159 c 128,-1,30
 407 63 407 63 519 63 c 0,31,32
 597 63 597 63 657.5 88.5 c 128,-1,33
 718 114 718 114 799 183 c 1,0,-1
EndSplineSet
EndChar

StartChar: d
Encoding: 100 100 68
Width: 1024
GlyphClass: 1
Flags: W
LayerCount: 2
Fore
SplineSet
730 726 m 1,0,-1
 731 755 l 1,1,-1
 730 872 l 1,2,-1
 731 1093 l 2,3,4
 731 1185 731 1185 711 1210 c 128,-1,5
 691 1235 691 1235 594 1261 c 0,6,7
 587 1263 587 1263 572 1267 c 1,8,-1
 572 1278 l 2,9,10
 572 1288 572 1288 574 1300 c 1,11,12
 710 1314 710 1314 808 1347 c 1,13,-1
 859 1348 l 1,14,15
 863 1280 863 1280 863 1196 c 2,16,-1
 859 811 l 1,17,-1
 866 377 l 1,18,-1
 863 146 l 2,19,20
 863 75 863 75 873 66 c 0,21,22
 893 46 893 46 961 45 c 0,23,24
 975 45 975 45 999 43 c 1,25,-1
 999 25 l 2,26,27
 999 18 999 18 998 10 c 1,28,29
 967 3 967 3 934 -3 c 2,30,-1
 789 -31 l 2,31,32
 757 -37 757 -37 738 -37 c 1,33,-1
 738 59 l 1,34,35
 721 54 721 54 685 39 c 0,36,37
 529 -27 529 -27 398 -27 c 0,38,39
 319 -27 319 -27 237 24.5 c 128,-1,40
 155 76 155 76 111 168 c 128,-1,41
 67 260 67 260 67 356 c 0,42,43
 67 442 67 442 96 520.5 c 128,-1,44
 125 599 125 599 172 651 c 0,45,46
 202 685 202 685 257 718.5 c 128,-1,47
 312 752 312 752 348 761 c 0,48,49
 437 784 437 784 467 784 c 0,50,51
 602 784 602 784 689 744 c 0,52,53
 716 731 716 731 730 726 c 1,0,-1
731 108 m 1,54,55
 735 175 735 175 735 384 c 0,56,57
 735 561 735 561 718.5 607.5 c 128,-1,58
 702 654 702 654 636 695.5 c 128,-1,59
 570 737 570 737 488 737 c 0,60,61
 373 737 373 737 293 648 c 128,-1,62
 213 559 213 559 213 385 c 0,63,64
 213 232 213 232 299.5 141 c 128,-1,65
 386 50 386 50 515 50 c 0,66,67
 589 50 589 50 650 70 c 128,-1,68
 711 90 711 90 731 108 c 1,54,55
EndSplineSet
EndChar

StartChar: e
Encoding: 101 101 69
Width: 853
GlyphClass: 1
Flags: W
LayerCount: 2
Fore
SplineSet
792 528 m 1,0,-1
 391 525 l 1,1,-1
 315 525 l 2,2,3
 269 525 269 525 221 521 c 1,4,5
 212 491 212 491 212 480 c 2,6,-1
 213 470 l 1,7,-1
 213 460 l 1,8,-1
 212 411 l 2,9,10
 212 350 212 350 250.5 261.5 c 128,-1,11
 289 173 289 173 360.5 126.5 c 128,-1,12
 432 80 432 80 539 77 c 1,13,14
 596 80 596 80 630 91 c 128,-1,15
 664 102 664 102 726 142 c 1,16,-1
 798 201 l 1,17,-1
 804 161 l 2,18,19
 804 154 804 154 803 146 c 1,20,21
 758 89 758 89 689 46 c 128,-1,22
 620 3 620 3 549 -17 c 0,23,24
 515 -26 515 -26 437 -26 c 0,25,26
 366 -26 366 -26 297 3 c 0,27,28
 195 47 195 47 136.5 144.5 c 128,-1,29
 78 242 78 242 78 381 c 0,30,31
 78 425 78 425 94.5 494 c 128,-1,32
 111 563 111 563 154 641 c 0,33,34
 183 694 183 694 225 728 c 0,35,36
 285 776 285 776 330 795 c 0,37,38
 395 822 395 822 481 822 c 0,39,40
 574 822 574 822 633 788 c 0,41,42
 713 743 713 743 752.5 672 c 128,-1,43
 792 601 792 601 792 542 c 2,44,-1
 792 528 l 1,0,-1
234 564 m 1,45,-1
 281 564 l 2,46,47
 332 564 332 564 585 580 c 0,48,49
 625 582 625 582 634 588 c 0,50,51
 652 607 652 607 652 622 c 0,52,53
 652 653 652 653 632 692.5 c 128,-1,54
 612 732 612 732 570.5 753.5 c 128,-1,55
 529 775 529 775 474 775 c 0,56,57
 358 775 358 775 288 688 c 0,58,59
 234 622 234 622 234 564 c 1,45,-1
EndSplineSet
EndChar

StartChar: f
Encoding: 102 102 70
Width: 661
GlyphClass: 1
Flags: W
LayerCount: 2
Fore
SplineSet
368 779 m 1,0,1
 617 773 617 773 633 773 c 1,2,3
 635 751 635 751 635 740 c 0,4,5
 635 727 635 727 632 701 c 1,6,7
 607 697 607 697 581 697 c 2,8,-1
 543 697 l 2,9,10
 419 697 419 697 371 688 c 1,11,12
 369 665 369 665 369 653 c 0,13,14
 369 648 369 648 370 638 c 0,15,16
 375 481 375 481 375 448 c 2,17,-1
 373 191 l 2,18,19
 373 134 373 134 392 96 c 0,20,21
 403 74 403 74 433 61 c 0,22,23
 452 52 452 52 525 43 c 0,24,25
 580 35 580 35 599 32 c 1,26,27
 599 11 599 11 596 0 c 1,28,-1
 582 -1 l 1,29,30
 534 2 534 2 457 4 c 2,31,-1
 383 7 l 1,32,-1
 131 -1 l 1,33,-1
 98 -1 l 1,34,-1
 97 30 l 1,35,36
 112 33 112 33 119 35 c 0,37,38
 205 51 205 51 230 71 c 0,39,40
 240 79 240 79 244 100 c 0,41,42
 246 112 246 112 246 212 c 0,43,44
 246 497 246 497 241 667 c 1,45,46
 215 675 215 675 161 677 c 0,47,48
 141 677 141 677 98 681 c 1,49,-1
 96 692 l 2,50,51
 96 704 96 704 106 712 c 0,52,53
 110 716 110 716 190 754 c 0,54,55
 221 768 221 768 234 789 c 0,56,57
 241 800 241 800 242 835 c 0,58,59
 243 851 243 851 248 890 c 0,60,61
 260 993 260 993 267 1017 c 0,62,63
 285 1084 285 1084 327.5 1150.5 c 128,-1,64
 370 1217 370 1217 430 1267 c 0,65,66
 474 1303 474 1303 529.5 1321 c 128,-1,67
 585 1339 585 1339 656 1339 c 0,68,69
 751 1339 751 1339 795 1308 c 0,70,71
 825 1287 825 1287 825 1254 c 0,72,73
 825 1226 825 1226 804 1206 c 128,-1,74
 783 1186 783 1186 752 1186 c 0,75,76
 714 1186 714 1186 670 1205 c 0,77,78
 587 1238 587 1238 576 1241 c 0,79,80
 557 1246 557 1246 537 1246 c 0,81,82
 482 1246 482 1246 436.5 1211 c 128,-1,83
 391 1176 391 1176 379 1125 c 128,-1,84
 367 1074 367 1074 367 896 c 0,85,86
 367 832 367 832 368 779 c 1,0,1
EndSplineSet
EndChar

StartChar: g
Encoding: 103 103 71
Width: 917
GlyphClass: 1
Flags: W
LayerCount: 2
Fore
SplineSet
270 -66 m 1,0,1
 258 -60 258 -60 193 -33 c 1,2,3
 117 16 117 16 97 40 c 128,-1,4
 77 64 77 64 77 93 c 0,5,6
 77 119 77 119 92 135 c 0,7,8
 114 158 114 158 179 179 c 128,-1,9
 244 200 244 200 286 220 c 1,10,11
 273 229 273 229 245 246 c 0,12,13
 96 338 96 338 96 501 c 0,14,15
 96 635 96 635 190.5 727.5 c 128,-1,16
 285 820 285 820 433 820 c 0,17,18
 500 820 500 820 556 801 c 0,19,20
 588 791 588 791 651 751 c 0,21,22
 691 726 691 726 698 723 c 0,23,24
 714 718 714 718 734 718 c 0,25,26
 751 718 751 718 816.5 726.5 c 128,-1,27
 882 735 882 735 894 735 c 0,28,29
 917 735 917 735 932 726 c 1,30,31
 944 706 944 706 944 659 c 0,32,33
 944 643 944 643 935.5 635 c 128,-1,34
 927 627 927 627 911 627 c 0,35,36
 883 627 883 627 818.5 644.5 c 128,-1,37
 754 662 754 662 740 662 c 0,38,39
 735 662 735 662 721 660 c 1,40,41
 764 574 764 574 764 503 c 256,42,43
 764 432 764 432 719 356 c 128,-1,44
 674 280 674 280 595 240 c 128,-1,45
 516 200 516 200 435 200 c 0,46,47
 429 200 429 200 401 201 c 0,48,49
 309 201 309 201 232 155 c 0,50,51
 195 132 195 132 195 112 c 0,52,53
 195 91 195 91 231 71 c 0,54,55
 326 20 326 20 591 12 c 0,56,57
 706 8 706 8 770 -21 c 128,-1,58
 834 -50 834 -50 866.5 -106.5 c 128,-1,59
 899 -163 899 -163 899 -223 c 0,60,61
 899 -304 899 -304 844 -373 c 128,-1,62
 789 -442 789 -442 677 -485 c 128,-1,63
 565 -528 565 -528 420 -528 c 0,64,65
 260 -528 260 -528 173 -489 c 128,-1,66
 86 -450 86 -450 49.5 -404 c 128,-1,67
 13 -358 13 -358 13 -313 c 0,68,69
 13 -274 13 -274 53 -215.5 c 128,-1,70
 93 -157 93 -157 219 -93 c 0,71,72
 256 -74 256 -74 270 -66 c 1,0,1
230 505 m 0,73,74
 230 415 230 415 257 354.5 c 128,-1,75
 284 294 284 294 331 264.5 c 128,-1,76
 378 235 378 235 426 235 c 0,77,78
 513 235 513 235 570.5 301.5 c 128,-1,79
 628 368 628 368 628 504 c 0,80,81
 628 641 628 641 568 712.5 c 128,-1,82
 508 784 508 784 423 784 c 0,83,84
 328 784 328 784 279 716 c 128,-1,85
 230 648 230 648 230 505 c 0,73,74
197 -421 m 1,86,87
 288 -491 288 -491 427 -491 c 0,88,89
 526 -491 526 -491 624.5 -459.5 c 128,-1,90
 723 -428 723 -428 768.5 -369.5 c 128,-1,91
 814 -311 814 -311 814 -259 c 0,92,93
 814 -227 814 -227 798 -195.5 c 128,-1,94
 782 -164 782 -164 754.5 -143.5 c 128,-1,95
 727 -123 727 -123 682 -111 c 0,96,97
 650 -102 650 -102 591 -98 c 0,98,99
 423 -85 423 -85 385 -85 c 0,100,101
 278 -85 278 -85 194 -157 c 0,102,103
 129 -213 129 -213 129 -291 c 0,104,105
 129 -363 129 -363 197 -421 c 1,86,87
EndSplineSet
EndChar

StartChar: h
Encoding: 104 104 72
Width: 1045
GlyphClass: 1
Flags: W
LayerCount: 2
Fore
SplineSet
38 24 m 1,0,1
 155 45 155 45 173 56 c 0,2,3
 184 63 184 63 184 88 c 2,4,-1
 183 154 l 1,5,-1
 184 271 l 1,6,-1
 182 569 l 1,7,-1
 183 680 l 1,8,-1
 183 759 l 1,9,-1
 186 856 l 1,10,11
 186 1084 186 1084 181.5 1128.5 c 128,-1,12
 177 1173 177 1173 164 1184 c 0,13,14
 140 1207 140 1207 32 1232 c 1,15,-1
 32 1237 l 2,16,17
 32 1244 32 1244 34 1257 c 1,18,19
 48 1259 48 1259 61 1262 c 128,-1,20
 74 1265 74 1265 86 1266 c 0,21,22
 205 1300 205 1300 259 1332 c 1,23,-1
 308 1332 l 1,24,25
 310 1304 310 1304 310 1155 c 2,26,-1
 309 1028 l 1,27,-1
 310 864 l 1,28,-1
 306 662 l 2,29,30
 306 644 306 644 308 622 c 1,31,32
 371 695 371 695 400 719 c 0,33,34
 452 761 452 761 511 785.5 c 128,-1,35
 570 810 570 810 635 810 c 0,36,37
 758 810 758 810 836 706 c 0,38,39
 881 645 881 645 881 533 c 2,40,-1
 878 431 l 1,41,-1
 879 374 l 1,42,-1
 875 275 l 2,43,44
 871 152 871 152 871 129 c 0,45,46
 871 103 871 103 873 59 c 1,47,-1
 930 46 l 2,48,49
 987 34 987 34 1018 24 c 1,50,-1
 1017 -7 l 1,51,-1
 804 -1 l 2,52,53
 786 -1 786 -1 706 -5 c 0,54,55
 657 -7 657 -7 649 -7 c 2,56,-1
 627 -7 l 1,57,58
 622 2 622 2 622 8 c 2,59,-1
 622 17 l 1,60,61
 636 35 636 35 674 41 c 2,62,-1
 734 55 l 1,63,64
 746 65 746 65 748 76 c 0,65,66
 752 102 752 102 757 334 c 2,67,-1
 759 408 l 2,68,69
 763 525 763 525 741 602 c 0,70,71
 727 655 727 655 677.5 686.5 c 128,-1,72
 628 718 628 718 563 718 c 0,73,74
 509 718 509 718 461 695 c 0,75,76
 428 678 428 678 382 636 c 128,-1,77
 336 594 336 594 318 564 c 0,78,79
 306 544 306 544 306 498 c 2,80,-1
 307 428 l 1,81,-1
 305 355 l 2,82,83
 305 346 305 346 308 230 c 1,84,-1
 307 166 l 1,85,-1
 309 96 l 2,86,87
 310 81 310 81 312 74 c 1,88,-1
 453 40 l 2,89,90
 464 37 464 37 486 28 c 1,91,-1
 489 17 l 2,92,93
 489 12 489 12 484 1 c 1,94,95
 455 0 455 0 440 0 c 2,96,-1
 362 1 l 1,97,-1
 190 -1 l 1,98,-1
 61 -5 l 2,99,100
 51 -4 51 -4 31 -3 c 1,101,-1
 30 4 l 2,102,103
 30 12 30 12 38 24 c 1,0,1
EndSplineSet
EndChar

StartChar: i
Encoding: 105 105 73
Width: 469
GlyphClass: 1
Flags: W
LayerCount: 2
Fore
SplineSet
142 1229 m 0,0,1
 142 1262 142 1262 167.5 1286 c 128,-1,2
 193 1310 193 1310 229 1310 c 0,3,4
 266 1310 266 1310 294 1283 c 128,-1,5
 322 1256 322 1256 322 1225 c 256,6,7
 322 1194 322 1194 294 1166.5 c 128,-1,8
 266 1139 266 1139 229 1139 c 256,9,10
 192 1139 192 1139 167 1164 c 128,-1,11
 142 1189 142 1189 142 1229 c 0,0,1
58 711 m 1,12,-1
 59 740 l 1,13,14
 124 759 124 759 129 762 c 0,15,16
 165 778 165 778 204.5 811 c 128,-1,17
 244 844 244 844 271 885 c 1,18,19
 283 887 283 887 290 887 c 2,20,-1
 302 886 l 1,21,22
 306 838 306 838 306 816 c 0,23,24
 306 811 306 811 304 771 c 2,25,-1
 304 718 l 1,26,-1
 305 430 l 1,27,-1
 302 125 l 2,28,29
 301 88 301 88 314 73.5 c 128,-1,30
 327 59 327 59 391 41 c 0,31,32
 431 30 431 30 451 22 c 1,33,34
 454 15 454 15 454 10 c 0,35,36
 454 4 454 4 449 -5 c 1,37,38
 410 -4 410 -4 349 0 c 0,39,40
 266 7 266 7 239 7 c 0,41,42
 226 7 226 7 79 2 c 0,43,44
 49 1 49 1 21 -3 c 0,45,46
 16 -3 16 -3 5 0 c 1,47,48
 0 7 0 7 0 12 c 0,49,50
 0 26 0 26 19 34 c 0,51,52
 23 36 23 36 121 57 c 0,53,54
 153 63 153 63 163 77 c 0,55,56
 180 98 180 98 180 144 c 0,57,58
 182 221 182 221 182 566 c 0,59,60
 182 635 182 635 176 652 c 0,61,62
 171 664 171 664 149.5 679.5 c 128,-1,63
 128 695 128 695 58 711 c 1,12,-1
EndSplineSet
EndChar

StartChar: j
Encoding: 106 106 74
Width: 469
GlyphClass: 1
Flags: W
LayerCount: 2
Fore
SplineSet
128 1210 m 0,0,1
 128 1248 128 1248 153.5 1273.5 c 128,-1,2
 179 1299 179 1299 215 1299 c 0,3,4
 252 1299 252 1299 277.5 1274 c 128,-1,5
 303 1249 303 1249 303 1209 c 0,6,7
 303 1168 303 1168 275 1137 c 0,8,9
 255 1115 255 1115 216 1115 c 0,10,11
 179 1115 179 1115 153.5 1141.5 c 128,-1,12
 128 1168 128 1168 128 1210 c 0,0,1
42 -516 m 1,13,-1
 118 -423 l 1,14,15
 145 -380 145 -380 160.5 -333 c 128,-1,16
 176 -286 176 -286 182 -217 c 0,17,18
 191 -102 191 -102 191 -15 c 0,19,20
 191 10 191 10 189 55 c 2,21,-1
 190 211 l 2,22,23
 191 504 191 504 186 589 c 0,24,25
 183 642 183 642 170 655 c 0,26,27
 151 673 151 673 83 679 c 0,28,29
 76 680 76 680 63 681 c 1,30,-1
 65 719 l 1,31,32
 196 752 196 752 255 830 c 0,33,34
 268 846 268 846 284 862 c 1,35,-1
 291 863 l 2,36,37
 296 863 296 863 305 859 c 1,38,-1
 308 495 l 2,39,40
 315 114 315 114 315 81 c 0,41,42
 315 -111 315 -111 295.5 -197.5 c 128,-1,43
 276 -284 276 -284 222 -370 c 0,44,45
 184 -430 184 -430 113 -494 c 2,46,-1
 72 -531 l 1,47,-1
 58 -539 l 1,48,49
 49 -531 49 -531 42 -516 c 1,13,-1
EndSplineSet
EndChar

StartChar: k
Encoding: 107 107 75
Width: 960
GlyphClass: 1
Flags: W
LayerCount: 2
Fore
SplineSet
54 0 m 1,0,-1
 52 29 l 1,1,2
 60 35 60 35 67 36.5 c 128,-1,3
 74 38 74 38 117.5 41 c 128,-1,4
 161 44 161 44 172 60.5 c 128,-1,5
 183 77 183 77 183 197 c 2,6,-1
 185 592 l 1,7,-1
 183 662 l 2,8,9
 183 671 183 671 185 729 c 0,10,11
 187 756 187 756 187 794 c 2,12,-1
 183 968 l 1,13,-1
 184 1120 l 2,14,15
 184 1175 184 1175 168.5 1190.5 c 128,-1,16
 153 1206 153 1206 59 1219 c 1,17,-1
 59 1231 l 2,18,19
 59 1237 59 1237 60 1248 c 1,20,21
 117 1260 117 1260 161 1278 c 0,22,23
 184 1288 184 1288 278 1340 c 1,24,-1
 309 1340 l 1,25,26
 308 1317 308 1317 308 1312 c 2,27,-1
 308 1225 l 1,28,-1
 307 1182 l 1,29,-1
 310 1103 l 1,30,-1
 309 984 l 1,31,-1
 310 786 l 1,32,-1
 307 540 l 1,33,-1
 307 464 l 2,34,35
 307 450 307 450 308 425 c 1,36,-1
 319 424 l 2,37,38
 353 424 353 424 388 449 c 0,39,40
 545 561 545 561 585 601.5 c 128,-1,41
 625 642 625 642 625 660 c 0,42,43
 625 671 625 671 612 688 c 1,44,45
 582 704 582 704 545 710 c 0,46,47
 534 712 534 712 521 715 c 0,48,49
 503 720 503 720 491 722 c 1,50,-1
 489 732 l 2,51,52
 489 739 489 739 494 752 c 1,53,54
 652 758 652 758 769 758 c 0,55,56
 835 758 835 758 910 755 c 1,57,-1
 910 742 l 2,58,59
 910 735 910 735 905 724 c 1,60,61
 890 721 890 721 858 715 c 0,62,63
 796 705 796 705 764 687 c 0,64,65
 687 646 687 646 605 572 c 0,66,67
 556 528 556 528 520 498 c 2,68,-1
 484 467 l 1,69,70
 488 460 488 460 497 450 c 0,71,72
 501 446 501 446 513 432 c 128,-1,73
 525 418 525 418 556 385 c 0,74,75
 664 271 664 271 716 209 c 0,76,77
 733 189 733 189 754 165 c 0,78,79
 832 78 832 78 845 68 c 0,80,81
 873 50 873 50 928 40 c 0,82,83
 954 35 954 35 973 31 c 1,84,85
 977 19 977 19 977 12 c 2,86,-1
 976 2 l 1,87,88
 905 8 905 8 874 8 c 2,89,-1
 856 8 l 1,90,-1
 578 0 l 2,91,92
 562 -2 562 -2 556 -2 c 0,93,94
 546 -2 546 -2 535 2 c 1,95,96
 532 10 532 10 532 16 c 2,97,-1
 532 23 l 1,98,99
 538 32 538 32 543 34 c 0,100,101
 642 42 642 42 658 47 c 0,102,103
 667 49 667 49 675 58 c 1,104,105
 675 75 675 75 646 113 c 128,-1,106
 617 151 617 151 501 280 c 0,107,108
 427 362 427 362 405.5 375.5 c 128,-1,109
 384 389 384 389 346 389 c 2,110,-1
 308 389 l 1,111,112
 304 353 304 353 304 224 c 0,113,114
 304 104 304 104 324 70 c 0,115,116
 335 51 335 51 376 46 c 128,-1,117
 417 41 417 41 429 31 c 0,118,119
 437 25 437 25 439 3 c 1,120,121
 379 4 379 4 338 4 c 0,122,123
 272 4 272 4 194 1 c 0,124,125
 147 -1 147 -1 120 -1 c 0,126,127
 100 -1 100 -1 54 0 c 1,0,-1
EndSplineSet
EndChar

StartChar: l
Encoding: 108 108 76
Width: 469
GlyphClass: 1
Flags: W
LayerCount: 2
Fore
SplineSet
52 1239 m 1,0,-1
 52 1261 l 1,1,2
 80 1270 80 1270 114 1280 c 0,3,4
 164 1296 164 1296 262 1329 c 1,5,-1
 309 1329 l 1,6,7
 310 1281 310 1281 310 1274 c 0,8,9
 310 453 310 453 305 295 c 0,10,11
 302 202 302 202 302 196 c 0,12,13
 302 84 302 84 311 71 c 0,14,15
 323 53 323 53 384.5 46 c 128,-1,16
 446 39 446 39 457 32 c 0,17,18
 465 28 465 28 465 18 c 0,19,20
 465 7 465 7 460.5 2.5 c 128,-1,21
 456 -2 456 -2 444 -2 c 0,22,23
 437 -2 437 -2 339 1 c 2,24,-1
 208 5 l 1,25,-1
 40 -2 l 2,26,27
 24 -3 24 -3 16 4 c 0,28,29
 10 9 10 9 10 18 c 0,30,31
 10 28 10 28 16.5 32.5 c 128,-1,32
 23 37 23 37 88.5 48 c 128,-1,33
 154 59 154 59 163.5 66.5 c 128,-1,34
 173 74 173 74 176 100 c 0,35,36
 180 136 180 136 180 303 c 2,37,-1
 179 533 l 1,38,-1
 182 771 l 1,39,-1
 181 1009 l 1,40,-1
 184 1126 l 2,41,42
 184 1161 184 1161 173 1176.5 c 128,-1,43
 162 1192 162 1192 126 1207 c 0,44,45
 72 1229 72 1229 52 1239 c 1,0,-1
EndSplineSet
EndChar

StartChar: m
Encoding: 109 109 77
Width: 1579
GlyphClass: 1
Flags: W
LayerCount: 2
Fore
SplineSet
40 35 m 1,0,1
 56 46 56 46 84 50 c 0,2,3
 124 55 124 55 146 66 c 1,4,5
 164 81 164 81 170 109 c 0,6,7
 177 145 177 145 177 362 c 0,8,9
 177 575 177 575 164 637 c 1,10,11
 142 651 142 651 107 659 c 0,12,13
 96 661 96 661 61 670 c 1,14,-1
 61 703 l 1,15,16
 120 720 120 720 156.5 747 c 128,-1,17
 193 774 193 774 258 855 c 1,18,-1
 264 855 l 2,19,20
 270 855 270 855 283 856 c 0,21,22
 291 855 291 855 296 851 c 1,23,-1
 295 737 l 2,24,25
 295 702 295 702 297 662 c 1,26,27
 404 759 404 759 489 798 c 0,28,29
 547 824 547 824 620 824 c 0,30,31
 707 824 707 824 758 791 c 128,-1,32
 809 758 809 758 855 672 c 1,33,34
 944 760 944 760 1016.5 795 c 128,-1,35
 1089 830 1089 830 1163 830 c 0,36,37
 1275 830 1275 830 1347 757 c 0,38,39
 1418 683 1418 683 1420 540 c 2,40,-1
 1420 457 l 1,41,-1
 1421 366 l 1,42,-1
 1420 132 l 2,43,44
 1419 91 1419 91 1438 70 c 0,45,46
 1446 67 1446 67 1499 52 c 0,47,48
 1532 43 1532 43 1538 38 c 128,-1,49
 1544 33 1544 33 1544 24 c 0,50,51
 1544 13 1544 13 1538 -2 c 1,52,-1
 1531 -2 l 1,53,-1
 1430 4 l 2,54,55
 1412 5 1412 5 1373 5 c 0,56,57
 1325 5 1325 5 1239 1 c 1,58,-1
 1188 1 l 2,59,60
 1177 1 1177 1 1145 0 c 1,61,62
 1144 9 1144 9 1144 16 c 0,63,64
 1144 24 1144 24 1151 36 c 1,65,66
 1178 48 1178 48 1225 55.5 c 128,-1,67
 1272 63 1272 63 1283.5 82.5 c 128,-1,68
 1295 102 1295 102 1295 238 c 0,69,70
 1295 533 1295 533 1288 580 c 0,71,72
 1276 655 1276 655 1224.5 697.5 c 128,-1,73
 1173 740 1173 740 1095 740 c 0,74,75
 1035 740 1035 740 978 708.5 c 128,-1,76
 921 677 921 677 866 614 c 1,77,-1
 865 590 l 1,78,-1
 865 437 l 1,79,-1
 861 318 l 1,80,81
 861 136 861 136 864.5 111 c 128,-1,82
 868 86 868 86 881.5 74.5 c 128,-1,83
 895 63 895 63 960 54 c 0,84,85
 989 50 989 50 1005 46 c 1,86,87
 1017 36 1017 36 1017 20 c 0,88,89
 1017 7 1017 7 1008 2 c 1,90,-1
 991 2 l 1,91,-1
 941 3 l 1,92,-1
 650 3 l 1,93,-1
 570 2 l 1,94,95
 568 17 568 17 568 24 c 2,96,-1
 569 36 l 1,97,98
 591 48 591 48 651 59 c 0,99,100
 682 64 682 64 715 76 c 0,101,102
 721 81 721 81 724 89 c 0,103,104
 729 103 729 103 731 169 c 2,105,-1
 736 285 l 1,106,-1
 734 416 l 1,107,-1
 735 489 l 2,108,109
 735 612 735 612 685 668.5 c 128,-1,110
 635 725 635 725 559 725 c 0,111,112
 488 725 488 725 416.5 690 c 128,-1,113
 345 655 345 655 298 596 c 1,114,115
 297 568 297 568 297 545 c 2,116,-1
 301 209 l 2,117,118
 302 99 302 99 313.5 83.5 c 128,-1,119
 325 68 325 68 365 62 c 0,120,121
 429 53 429 53 448 40 c 0,122,123
 457 34 457 34 457 22 c 0,124,125
 457 14 457 14 456 3 c 1,126,127
 342 11 342 11 303 11 c 0,128,129
 263 11 263 11 231 10 c 2,130,-1
 181 7 l 1,131,-1
 150 7 l 1,132,-1
 38 3 l 1,133,134
 36 10 36 10 36 15 c 256,135,136
 36 20 36 20 40 35 c 1,0,1
EndSplineSet
EndChar

StartChar: n
Encoding: 110 110 78
Width: 1045
GlyphClass: 1
Flags: W
LayerCount: 2
Fore
SplineSet
38 32 m 1,0,1
 63 39 63 39 96 44 c 0,2,3
 159 53 159 53 171.5 65 c 128,-1,4
 184 77 184 77 184 120 c 2,5,-1
 186 156 l 2,6,7
 187 176 187 176 187 207 c 2,8,-1
 185 514 l 2,9,10
 185 576 185 576 169 594 c 0,11,12
 142 622 142 622 69 633 c 1,13,-1
 69 669 l 1,14,15
 142 689 142 689 181 721 c 0,16,17
 238 766 238 766 277 843 c 1,18,-1
 311 842 l 1,19,20
 314 795 314 795 314 775 c 2,21,-1
 314 709 l 1,22,-1
 315 691 l 1,23,24
 327 699 327 699 343 711 c 0,25,26
 403 756 403 756 466 784.5 c 128,-1,27
 529 813 529 813 578 824 c 0,28,29
 609 832 609 832 648 832 c 0,30,31
 730 832 730 832 789 788 c 128,-1,32
 848 744 848 744 865.5 684.5 c 128,-1,33
 883 625 883 625 883 448 c 2,34,-1
 883 297 l 2,35,36
 883 291 883 291 881.5 257 c 128,-1,37
 880 223 880 223 880 179 c 0,38,39
 880 109 880 109 886 90 c 0,40,41
 891 77 891 77 912 64 c 1,42,43
 1008 51 1008 51 1024 33 c 1,44,-1
 1024 25 l 2,45,46
 1024 15 1024 15 1018 0 c 1,47,-1
 999 0 l 1,48,-1
 867 1 l 1,49,-1
 737 -1 l 2,50,51
 665 -3 665 -3 604 0 c 1,52,-1
 598 21 l 2,53,54
 598 27 598 27 605 37 c 1,55,56
 632 49 632 49 681 53 c 0,57,58
 710 55 710 55 721 59 c 128,-1,59
 732 63 732 63 748 75 c 1,60,61
 760 99 760 99 760 115 c 0,62,63
 760 122 760 122 758 143 c 0,64,65
 755 189 755 189 754 372 c 2,66,-1
 754 424 l 1,67,-1
 756 504 l 2,68,69
 756 633 756 633 704 682 c 256,70,71
 652 731 652 731 565 731 c 0,72,73
 498 731 498 731 434 701.5 c 128,-1,74
 370 672 370 672 310 613 c 1,75,76
 308 565 308 565 308 531 c 2,77,-1
 311 310 l 2,78,79
 311 137 311 137 316 98 c 0,80,81
 318 82 318 82 323 76 c 0,82,83
 331 68 331 68 355 63 c 128,-1,84
 379 58 379 58 410.5 49 c 128,-1,85
 442 40 442 40 452 38 c 0,86,87
 472 33 472 33 479 18 c 1,88,-1
 478 -2 l 1,89,-1
 373 -2 l 1,90,-1
 157 1 l 2,91,92
 82 -1 82 -1 62 -1 c 2,93,-1
 37 -1 l 1,94,-1
 35 12 l 2,95,96
 35 19 35 19 38 32 c 1,0,1
EndSplineSet
EndChar

StartChar: o
Encoding: 111 111 79
Width: 1045
GlyphClass: 1
Flags: W
LayerCount: 2
Fore
SplineSet
73 402 m 0,0,1
 73 470 73 470 101.5 547.5 c 128,-1,2
 130 625 130 625 188 686.5 c 128,-1,3
 246 748 246 748 311 778 c 0,4,5
 402 820 402 820 533 820 c 0,6,7
 720 820 720 820 845.5 692 c 128,-1,8
 971 564 971 564 971 384 c 0,9,10
 971 224 971 224 839.5 98.5 c 128,-1,11
 708 -27 708 -27 507 -27 c 0,12,13
 383 -27 383 -27 273 38 c 0,14,15
 191 87 191 87 132 183 c 128,-1,16
 73 279 73 279 73 402 c 0,0,1
515 12 m 0,17,18
 591 12 591 12 661.5 53 c 128,-1,19
 732 94 732 94 774 184.5 c 128,-1,20
 816 275 816 275 816 394 c 0,21,22
 816 472 816 472 783.5 575 c 128,-1,23
 751 678 751 678 683.5 729.5 c 128,-1,24
 616 781 616 781 525 781 c 0,25,26
 459 781 459 781 390.5 750 c 128,-1,27
 322 719 322 719 274.5 631 c 128,-1,28
 227 543 227 543 227 381 c 0,29,30
 227 199 227 199 309.5 105.5 c 128,-1,31
 392 12 392 12 515 12 c 0,17,18
EndSplineSet
EndChar

StartChar: p
Encoding: 112 112 80
Width: 1045
GlyphClass: 1
Flags: W
LayerCount: 2
Fore
SplineSet
25 -522 m 1,0,1
 24 -511 24 -511 24 -502 c 0,2,3
 24 -495 24 -495 26 -485 c 1,4,-1
 126 -465 l 1,5,6
 150 -453 150 -453 165 -436 c 1,7,8
 170 -418 170 -418 170 -400 c 0,9,10
 170 -246 170 -246 162 187 c 1,11,-1
 159 553 l 2,12,13
 157 640 157 640 148 663 c 0,14,15
 143 675 143 675 133 682 c 0,16,17
 108 701 108 701 33 714 c 1,18,-1
 39 744 l 1,19,20
 147 790 147 790 183.5 815.5 c 128,-1,21
 220 841 220 841 253 887 c 1,22,-1
 265 890 l 2,23,24
 272 890 272 890 285 884 c 1,25,26
 284 821 284 821 284 801 c 2,27,-1
 285 691 l 1,28,29
 359 747 359 747 439 774.5 c 128,-1,30
 519 802 519 802 605 802 c 0,31,32
 759 802 759 802 865 693.5 c 128,-1,33
 971 585 971 585 971 414 c 0,34,35
 971 287 971 287 911.5 186 c 128,-1,36
 852 85 852 85 747.5 35 c 128,-1,37
 643 -15 643 -15 537 -15 c 0,38,39
 447 -15 447 -15 331 34 c 0,40,41
 312 42 312 42 297 48 c 1,42,43
 295 -32 295 -32 295 -94 c 0,44,45
 295 -403 295 -403 312 -440 c 0,46,47
 321 -460 321 -460 368 -464 c 0,48,49
 448 -470 448 -470 474 -487 c 0,50,51
 489 -496 489 -496 494 -523 c 1,52,-1
 395 -525 l 1,53,-1
 305 -523 l 1,54,-1
 155 -524 l 1,55,-1
 25 -522 l 1,0,1
286 622 m 1,56,57
 284 608 284 608 284 596 c 0,58,59
 284 239 284 239 291 196 c 0,60,61
 305 117 305 117 347 85 c 0,62,63
 412 34 412 34 533 34 c 0,64,65
 658 34 658 34 744 120.5 c 128,-1,66
 830 207 830 207 830 345 c 0,67,68
 830 511 830 511 739 608 c 128,-1,69
 648 705 648 705 499 705 c 0,70,71
 436 705 436 705 383 684.5 c 128,-1,72
 330 664 330 664 286 622 c 1,56,57
EndSplineSet
EndChar

StartChar: q
Encoding: 113 113 81
Width: 1003
GlyphClass: 1
Flags: W
LayerCount: 2
Fore
SplineSet
846 845 m 1,0,-1
 883 845 l 1,1,-1
 885 809 l 1,2,-1
 883 595 l 1,3,-1
 884 287 l 2,4,5
 884 206 884 206 883 174 c 2,6,-1
 882 147 l 1,7,-1
 883 107 l 1,8,-1
 882 42 l 1,9,-1
 885 -74 l 1,10,-1
 883 -207 l 1,11,-1
 884 -331 l 2,12,13
 884 -349 884 -349 883 -391 c 0,14,15
 882 -404 882 -404 882 -413 c 0,16,17
 882 -437 882 -437 898 -457 c 0,18,19
 904 -460 904 -460 910 -464 c 0,20,21
 921 -471 921 -471 939 -475.5 c 128,-1,22
 957 -480 957 -480 971 -484 c 0,23,24
 993 -491 993 -491 1012 -494 c 1,25,26
 1021 -504 1021 -504 1021 -513 c 2,27,-1
 1020 -523 l 1,28,29
 995 -524 995 -524 989 -524 c 2,30,-1
 706 -519 l 2,31,32
 648 -519 648 -519 579 -522 c 1,33,34
 575 -512 575 -512 575 -507 c 256,35,36
 575 -502 575 -502 579 -493 c 1,37,38
 715 -466 715 -466 722 -461 c 0,39,40
 739 -452 739 -452 745 -426 c 0,41,42
 760 -371 760 -371 760 -181 c 0,43,44
 760 -28 760 -28 758 93 c 1,45,46
 742 86 742 86 695 64 c 0,47,48
 557 1 557 1 459 1 c 0,49,50
 370 1 370 1 274.5 47 c 128,-1,51
 179 93 179 93 124.5 187 c 128,-1,52
 70 281 70 281 70 386 c 0,53,54
 70 561 70 561 195.5 681.5 c 128,-1,55
 321 802 321 802 497 802 c 0,56,57
 578 802 578 802 680 764 c 0,58,59
 753 736 753 736 788 736 c 0,60,61
 801 736 801 736 809 747 c 0,62,63
 823 764 823 764 846 845 c 1,0,-1
673 104 m 1,64,65
 736 128 736 128 752 146 c 1,66,-1
 759 344 l 1,67,68
 759 538 759 538 737 602.5 c 128,-1,69
 715 667 715 667 654 713 c 128,-1,70
 593 759 593 759 507 759 c 0,71,72
 363 759 363 759 286 640 c 0,73,74
 227 550 227 550 227 422 c 0,75,76
 227 333 227 333 267.5 258 c 128,-1,77
 308 183 308 183 391.5 135.5 c 128,-1,78
 475 88 475 88 550 88 c 0,79,80
 617 88 617 88 673 104 c 1,64,65
EndSplineSet
EndChar

StartChar: r
Encoding: 114 114 82
Width: 683
GlyphClass: 1
Flags: W
LayerCount: 2
Fore
SplineSet
41 -3 m 1,0,-1
 37 10 l 2,1,2
 37 17 37 17 46 31 c 1,3,-1
 105 43 l 1,4,-1
 188 58 l 2,5,6
 198 63 198 63 202 72 c 0,7,8
 208 85 208 85 208 149 c 0,9,10
 208 489 208 489 204 541.5 c 128,-1,11
 200 594 200 594 186 608 c 128,-1,12
 172 622 172 622 114 630 c 0,13,14
 80 635 80 635 60 643 c 1,15,-1
 64 673 l 1,16,17
 169 716 169 716 205 747 c 0,18,19
 255 792 255 792 290 865 c 1,20,-1
 324 864 l 1,21,22
 330 814 330 814 330 642 c 1,23,-1
 329 625 l 2,24,25
 329 619 329 619 331 606 c 1,26,27
 369 675 369 675 426 733 c 2,28,-1
 449 756 l 2,29,30
 463 772 463 772 476 781 c 0,31,32
 546 823 546 823 580 823 c 0,33,34
 624 823 624 823 652 793.5 c 128,-1,35
 680 764 680 764 680 721 c 0,36,37
 680 687 680 687 660 668 c 0,38,39
 633 643 633 643 598 643 c 0,40,41
 582 643 582 643 535 660 c 128,-1,42
 488 677 488 677 473 677 c 0,43,44
 445 677 445 677 434 668 c 0,45,46
 406 646 406 646 366 578 c 0,47,48
 335 527 335 527 335 484 c 2,49,-1
 340 319 l 1,50,-1
 342 121 l 2,51,52
 345 87 345 87 350 77 c 0,53,54
 354 70 354 70 370 60 c 1,55,56
 478 51 478 51 498 47 c 0,57,58
 512 46 512 46 519 45 c 0,59,60
 562 44 562 44 579 33 c 0,61,62
 588 28 588 28 588 18 c 0,63,64
 588 12 588 12 580 2 c 1,65,-1
 469 3 l 1,66,-1
 427 4 l 1,67,-1
 366 3 l 1,68,-1
 264 3 l 1,69,-1
 209 0 l 1,70,-1
 41 -3 l 1,0,-1
EndSplineSet
EndChar

StartChar: s
Encoding: 115 115 83
Width: 747
GlyphClass: 1
Flags: W
LayerCount: 2
Fore
SplineSet
145 254 m 1,0,1
 182 159 182 159 201 131 c 0,2,3
 239 74 239 74 292 42.5 c 128,-1,4
 345 11 345 11 407 11 c 0,5,6
 464 11 464 11 520 60 c 0,7,8
 560 97 560 97 560 146 c 0,9,10
 560 211 560 211 513 266 c 0,11,12
 466 320 466 320 334.5 369.5 c 128,-1,13
 203 419 203 419 158 475 c 256,14,15
 113 531 113 531 113 603 c 0,16,17
 113 671 113 671 150 723 c 128,-1,18
 187 775 187 775 252 801.5 c 128,-1,19
 317 828 317 828 372 828 c 0,20,21
 443 828 443 828 499.5 817 c 128,-1,22
 556 806 556 806 597 783 c 1,23,24
 605 732 605 732 610 633 c 2,25,-1
 612 601 l 1,26,27
 599 600 599 600 590 600 c 2,28,-1
 576 600 l 1,29,30
 546 683 546 683 484.5 731.5 c 128,-1,31
 423 780 423 780 363 780 c 256,32,33
 303 780 303 780 266 743.5 c 128,-1,34
 229 707 229 707 229 648 c 0,35,36
 229 603 229 603 259 568 c 256,37,38
 289 533 289 533 399.5 488 c 128,-1,39
 510 443 510 443 560.5 404.5 c 128,-1,40
 611 366 611 366 635 311 c 128,-1,41
 659 256 659 256 659 206 c 0,42,43
 659 137 659 137 613.5 77 c 128,-1,44
 568 17 568 17 499.5 -7.5 c 128,-1,45
 431 -32 431 -32 377 -32 c 0,46,47
 250 -32 250 -32 143 15 c 0,48,49
 133 23 133 23 132 45 c 0,50,51
 132 54 132 54 130 74 c 0,52,53
 114 209 114 209 114 234 c 0,54,55
 114 246 114 246 119 250 c 128,-1,56
 124 254 124 254 145 254 c 1,0,1
EndSplineSet
EndChar

StartChar: t
Encoding: 116 116 84
Width: 597
GlyphClass: 1
Flags: W
LayerCount: 2
Fore
SplineSet
286 988 m 1,0,-1
 317 987 l 1,1,-1
 321 892 l 1,2,-1
 319 769 l 1,3,4
 338 768 338 768 343 768 c 0,5,6
 369 768 369 768 442 772 c 0,7,8
 489 775 489 775 532 775 c 0,9,10
 552 775 552 775 592 774 c 1,11,12
 594 754 594 754 594 742 c 0,13,14
 594 729 594 729 588 701 c 1,15,-1
 571 701 l 1,16,-1
 416 696 l 1,17,-1
 339 694 l 1,18,-1
 321 692 l 1,19,20
 313 667 313 667 313 634 c 2,21,-1
 316 484 l 1,22,-1
 314 220 l 2,23,24
 314 116 314 116 341 82 c 0,25,26
 367 47 367 47 419 47 c 0,27,28
 445 47 445 47 517 63 c 0,29,30
 539 68 539 68 576 96 c 1,31,-1
 585 96 l 2,32,33
 594 96 594 96 599.5 90.5 c 128,-1,34
 605 85 605 85 605 76 c 2,35,-1
 604 69 l 1,36,37
 561 22 561 22 505.5 0.5 c 128,-1,38
 450 -21 450 -21 358 -21 c 0,39,40
 293 -21 293 -21 250.5 9 c 128,-1,41
 208 39 208 39 196 80 c 128,-1,42
 184 121 184 121 184 259 c 2,43,-1
 188 484 l 1,44,-1
 187 592 l 1,45,-1
 187 632 l 2,46,47
 187 660 187 660 185 688 c 1,48,-1
 168 689 l 1,49,-1
 86 686 l 1,50,-1
 78 685 l 2,51,52
 67 685 67 685 61.5 690 c 128,-1,53
 56 695 56 695 56 702 c 0,54,55
 56 714 56 714 63.5 721.5 c 128,-1,56
 71 729 71 729 109 745 c 0,57,58
 135 756 135 756 169.5 786.5 c 128,-1,59
 204 817 204 817 228 854 c 0,60,61
 240 874 240 874 262 930 c 0,62,63
 278 971 278 971 286 988 c 1,0,-1
EndSplineSet
EndChar

StartChar: u
Encoding: 117 117 85
Width: 1003
GlyphClass: 1
Flags: W
LayerCount: 2
Fore
SplineSet
33 785 m 1,0,-1
 108 785 l 1,1,-1
 141 783 l 1,2,-1
 167 785 l 1,3,4
 270 785 270 785 295 783 c 1,5,-1
 296 764 l 1,6,7
 296 623 296 623 292 491 c 0,8,9
 289 413 289 413 289 402 c 0,10,11
 289 226 289 226 300.5 182 c 128,-1,12
 312 138 312 138 354.5 111.5 c 128,-1,13
 397 85 397 85 457 85 c 0,14,15
 530 85 530 85 596.5 115.5 c 128,-1,16
 663 146 663 146 710 190 c 1,17,18
 715 228 715 228 715 274 c 0,19,20
 715 423 715 423 718 475 c 0,21,22
 719 506 719 506 719 529 c 0,23,24
 719 691 719 691 703 712 c 128,-1,25
 687 733 687 733 581 744 c 0,26,27
 546 748 546 748 530 751 c 1,28,29
 522 764 522 764 522 771 c 2,30,-1
 525 782 l 1,31,32
 551 785 551 785 576 785 c 2,33,-1
 735 783 l 2,34,35
 820 785 820 785 825 785 c 0,36,37
 836 785 836 785 846 784 c 1,38,-1
 848 711 l 1,39,40
 841 559 841 559 840 335 c 1,41,-1
 838 254 l 1,42,-1
 842 118 l 1,43,44
 851 102 851 102 858 99 c 0,45,46
 870 94 870 94 907 94 c 2,47,-1
 916 94 l 2,48,49
 929 94 929 94 990 88 c 1,50,51
 991 75 991 75 991 69 c 2,52,-1
 991 58 l 1,53,54
 857 29 857 29 774 0 c 0,55,56
 741 -11 741 -11 718 -16 c 1,57,58
 713 19 713 19 713 27 c 2,59,-1
 713 108 l 2,60,61
 713 113 713 113 712 135 c 1,62,63
 699 126 699 126 682 113 c 0,64,65
 603 52 603 52 515 10 c 0,66,67
 456 -19 456 -19 401 -19 c 0,68,69
 296 -19 296 -19 230 59 c 0,70,71
 163 137 163 137 163 325 c 0,72,73
 163 335 163 335 164 361 c 0,74,75
 168 409 168 409 168 428 c 0,76,77
 168 435 168 435 167 472 c 0,78,79
 166 488 166 488 166 500 c 0,80,81
 166 509 166 509 167 540.5 c 128,-1,82
 168 572 168 572 168 585 c 0,83,84
 168 602 168 602 167 615 c 2,85,-1
 165 668 l 1,86,-1
 166 696 l 2,87,88
 166 712 166 712 150 725 c 1,89,90
 87 742 87 742 67.5 744.5 c 128,-1,91
 48 747 48 747 33 753 c 1,92,-1
 33 785 l 1,0,-1
EndSplineSet
EndChar

StartChar: v
Encoding: 118 118 86
Width: 960
GlyphClass: 1
Flags: W
LayerCount: 2
Fore
SplineSet
-11 794 m 1,0,1
 100 793 100 793 183 787 c 1,2,3
 242 787 242 787 269 789 c 0,4,5
 288 790 288 790 293 790 c 2,6,-1
 405 789 l 2,7,8
 428 785 428 785 442 784 c 0,9,10
 448 782 448 782 453 773 c 1,11,12
 453 763 453 763 447 752 c 1,13,14
 430 747 430 747 412 746 c 0,15,16
 337 738 337 738 286 723 c 0,17,18
 279 718 279 718 279 713 c 0,19,20
 279 703 279 703 289 682 c 0,21,22
 291 677 291 677 298 658 c 2,23,-1
 398 418 l 2,24,25
 465 253 465 253 522 140 c 1,26,27
 561 214 561 214 594 293 c 128,-1,28
 627 372 627 372 691 542 c 0,29,30
 709 590 709 590 725 661 c 0,31,32
 728 675 728 675 728 685 c 0,33,34
 728 697 728 697 714.5 711.5 c 128,-1,35
 701 726 701 726 669 735 c 0,36,37
 662 736 662 736 578 750 c 0,38,39
 571 754 571 754 565 761 c 1,40,-1
 565 769 l 2,41,42
 565 774 565 774 566 782 c 1,43,44
 590 785 590 785 601 785 c 2,45,-1
 719 784 l 2,46,47
 731 784 731 784 776 787 c 0,48,49
 935 787 935 787 967 784 c 0,50,51
 973 782 973 782 978 772 c 1,52,53
 978 763 978 763 972 752 c 1,54,-1
 941 744 l 2,55,56
 929 743 929 743 922 742 c 0,57,58
 836 734 836 734 816 718 c 0,59,60
 801 707 801 707 769 615 c 0,61,62
 754 570 754 570 725 501 c 2,63,-1
 673 375 l 2,64,65
 662 348 662 348 649 316 c 2,66,-1
 494 -42 l 1,67,-1
 464 -42 l 1,68,69
 455 -18 455 -18 442 8 c 2,70,-1
 366 169 l 1,71,-1
 187 588 l 2,72,73
 133 710 133 710 122 720 c 128,-1,74
 111 730 111 730 -6 762 c 1,75,76
 -12 778 -12 778 -12 785 c 2,77,-1
 -11 794 l 1,0,1
EndSplineSet
EndChar

StartChar: w
Encoding: 119 119 87
Width: 1365
GlyphClass: 1
Flags: W
LayerCount: 2
Fore
SplineSet
-21 788 m 1,0,-1
 363 787 l 2,1,2
 374 787 374 787 378 783 c 128,-1,3
 382 779 382 779 382 771 c 0,4,5
 382 752 382 752 367 743 c 1,6,7
 297 738 297 738 280 726 c 128,-1,8
 263 714 263 714 263 693 c 0,9,10
 263 683 263 683 265 674 c 0,11,12
 268 662 268 662 294 603 c 0,13,14
 328 524 328 524 415 347 c 2,15,-1
 534 105 l 1,16,17
 636 283 636 283 699 436 c 1,18,-1
 638 596 l 2,19,20
 628 618 628 618 612.5 662 c 128,-1,21
 597 706 597 706 588.5 713.5 c 128,-1,22
 580 721 580 721 527 736 c 128,-1,23
 474 751 474 751 464 759 c 1,24,-1
 463 766 l 2,25,26
 463 772 463 772 469 783 c 1,27,28
 493 789 493 789 507 789 c 2,29,-1
 564 788 l 1,30,-1
 689 788 l 1,31,-1
 727 789 l 1,32,-1
 850 787 l 2,33,34
 865 787 865 787 875 788 c 2,35,-1
 892 788 l 2,36,37
 898 788 898 788 909 787 c 1,38,-1
 907 755 l 1,39,40
 892 746 892 746 857 742 c 0,41,42
 791 735 791 735 756 717 c 1,43,44
 745 705 745 705 745 696 c 0,45,46
 745 674 745 674 757 641 c 0,47,48
 761 631 761 631 778 579 c 2,49,-1
 885 297 l 2,50,51
 932 171 932 171 957 121 c 1,52,53
 999 198 999 198 1075 398 c 0,54,55
 1102 468 1102 468 1147 565 c 0,56,57
 1176 626 1176 626 1176 670 c 0,58,59
 1176 693 1176 693 1159 709 c 128,-1,60
 1142 725 1142 725 1080 739 c 0,61,62
 1043 747 1043 747 1025 754 c 1,63,64
 1020 762 1020 762 1020 767 c 0,65,66
 1020 776 1020 776 1031 787 c 1,67,-1
 1046 787 l 1,68,-1
 1127 788 l 2,69,70
 1132 788 1132 788 1173 786.5 c 128,-1,71
 1214 785 1214 785 1253 785 c 0,72,73
 1283 785 1283 785 1322 787 c 2,74,-1
 1372 787 l 2,75,76
 1378 785 1378 785 1380.5 782 c 128,-1,77
 1383 779 1383 779 1383 772 c 0,78,79
 1383 761 1383 761 1380 748 c 1,80,81
 1331 742 1331 742 1303 725.5 c 128,-1,82
 1275 709 1275 709 1227 635 c 1,83,-1
 1048 205 l 2,84,85
 1023 145 1023 145 961 21 c 0,86,87
 948 -5 948 -5 941.5 -21 c 128,-1,88
 935 -37 935 -37 929 -42 c 128,-1,89
 923 -47 923 -47 913 -47 c 0,90,91
 906 -47 906 -47 894 -43 c 1,92,93
 866 12 866 12 770 260 c 0,94,95
 744 327 744 327 722 374 c 1,96,97
 558 33 558 33 507 -45 c 1,98,99
 493 -47 493 -47 486 -47 c 256,100,101
 479 -47 479 -47 466 -45 c 1,102,-1
 277 350 l 1,103,-1
 104 688 l 2,104,105
 86 719 86 719 76 726 c 0,106,107
 59 737 59 737 16 744 c 0,108,109
 -8 748 -8 748 -21 750 c 1,110,111
 -22 765 -22 765 -22 773 c 0,112,113
 -22 778 -22 778 -21 788 c 1,0,-1
EndSplineSet
EndChar

StartChar: x
Encoding: 120 120 88
Width: 939
GlyphClass: 1
Flags: W
LayerCount: 2
Fore
SplineSet
30 749 m 1,0,1
 28 762 28 762 28 771 c 2,2,-1
 28 784 l 1,3,4
 44 788 44 788 63 788 c 2,5,-1
 100 788 l 2,6,7
 186 785 186 785 208 785 c 0,8,9
 277 785 277 785 348 787 c 0,10,11
 392 788 392 788 402 788 c 2,12,-1
 426 788 l 1,13,14
 433 774 433 774 433 767 c 0,15,16
 433 762 433 762 429 753 c 1,17,-1
 414 751 l 2,18,19
 341 744 341 744 322 733 c 0,20,21
 314 728 314 728 314 720 c 0,22,23
 314 704 314 704 338 673 c 0,24,25
 455 521 455 521 497 477 c 1,26,27
 591 603 591 603 609.5 638.5 c 128,-1,28
 628 674 628 674 628 694 c 0,29,30
 628 717 628 717 610 732.5 c 128,-1,31
 592 748 592 748 522 758 c 1,32,33
 514 770 514 770 514 778 c 2,34,-1
 517 788 l 1,35,-1
 543 789 l 2,36,37
 553 789 553 789 578 788 c 0,38,39
 621 785 621 785 664 785 c 0,40,41
 686 785 686 785 740 786.5 c 128,-1,42
 794 788 794 788 822 788 c 2,43,-1
 868 788 l 1,44,45
 881 782 881 782 881 772 c 0,46,47
 881 767 881 767 879 759 c 1,48,49
 863 755 863 755 840 751 c 0,50,51
 786 743 786 743 735 712 c 0,52,53
 697 689 697 689 660 639 c 2,54,-1
 518 447 l 1,55,-1
 663 265 l 1,56,57
 763 130 763 130 785.5 106 c 128,-1,58
 808 82 808 82 834 67 c 128,-1,59
 860 52 860 52 910 39 c 1,60,61
 911 27 911 27 911 18 c 0,62,63
 911 11 911 11 907 -1 c 1,64,65
 889 -1 889 -1 725 4 c 0,66,67
 715 4 715 4 629 2 c 0,68,69
 602 1 602 1 577 1 c 0,70,71
 554 1 554 1 520 3 c 1,72,-1
 523 33 l 1,73,74
 538 36 538 36 556 40 c 0,75,76
 607 50 607 50 629 67 c 0,77,78
 642 78 642 78 642 91 c 0,79,80
 642 113 642 113 506 275 c 2,81,-1
 447 346 l 1,82,83
 405 304 405 304 354 227 c 0,84,85
 325 182 325 182 307 160 c 0,86,87
 273 120 273 120 273 93 c 0,88,89
 273 84 273 84 285 74.5 c 128,-1,90
 297 65 297 65 355 52 c 0,91,92
 394 44 394 44 410 39 c 1,93,94
 413 26 413 26 413 19 c 0,95,96
 413 13 413 13 411 0 c 1,97,98
 334 4 334 4 261 4 c 0,99,100
 169 4 169 4 127.5 1.5 c 128,-1,101
 86 -1 86 -1 76 -1 c 0,102,103
 64 -1 64 -1 38 1 c 1,104,105
 34 15 34 15 34 22 c 2,106,-1
 36 35 l 1,107,108
 50 42 50 42 71 44 c 0,109,110
 138 51 138 51 190 94 c 128,-1,111
 242 137 242 137 421 381 c 1,112,-1
 288 541 l 1,113,-1
 146 711 l 2,114,115
 140 717 140 717 131 723 c 0,116,117
 115 732 115 732 88 737 c 0,118,119
 47 745 47 745 30 749 c 1,0,1
EndSplineSet
EndChar

StartChar: y
Encoding: 121 121 89
Width: 853
GlyphClass: 1
Flags: W
LayerCount: 2
Fore
SplineSet
12 788 m 1,0,1
 34 790 34 790 49 790 c 2,2,-1
 97 790 l 1,3,-1
 162 792 l 1,4,-1
 247 789 l 1,5,-1
 316 791 l 2,6,7
 371 791 371 791 415 784 c 1,8,9
 419 774 419 774 419 768 c 2,10,-1
 418 760 l 1,11,12
 397 750 397 750 353 746 c 0,13,14
 291 741 291 741 264 724 c 1,15,-1
 262 713 l 2,16,17
 262 703 262 703 270 683 c 0,18,19
 275 671 275 671 283 647 c 0,20,21
 305 573 305 573 378 361 c 0,22,23
 431 208 431 208 476 98 c 1,24,25
 504 158 504 158 540 250 c 2,26,-1
 625 487 l 2,27,28
 653 565 653 565 668 643 c 0,29,30
 674 674 674 674 674 692 c 0,31,32
 674 707 674 707 661 720 c 128,-1,33
 648 733 648 733 609 742 c 0,34,35
 538 760 538 760 532 764.5 c 128,-1,36
 526 769 526 769 525 784 c 1,37,38
 531 789 531 789 539 792 c 2,39,-1
 601 792 l 1,40,-1
 668 791 l 1,41,-1
 768 792 l 1,42,-1
 832 791 l 1,43,-1
 848 792 l 2,44,45
 855 792 855 792 871 790 c 0,46,47
 881 785 881 785 881 774 c 0,48,49
 881 764 881 764 872 756 c 1,50,-1
 852 753 l 2,51,52
 794 745 794 745 763 723 c 0,53,54
 746 711 746 711 734 673 c 0,55,56
 730 659 730 659 721 637 c 0,57,58
 716 625 716 625 706.5 597 c 128,-1,59
 697 569 697 569 682 531 c 2,60,-1
 670 503 l 1,61,-1
 669 498 l 1,62,-1
 499 50 l 1,63,-1
 375 -287 l 2,64,65
 363 -312 363 -312 347 -349 c 0,66,67
 309 -420 309 -420 302 -427 c 0,68,69
 272 -464 272 -464 250 -479 c 1,70,-1
 199 -501 l 2,71,72
 184 -505 184 -505 167 -505 c 0,73,74
 122 -505 122 -505 101 -485.5 c 128,-1,75
 80 -466 80 -466 80 -432 c 0,76,77
 80 -400 80 -400 111 -374 c 1,78,79
 121 -371 121 -371 131 -366 c 2,80,-1
 144 -363 l 1,81,82
 233 -379 233 -379 255 -379 c 1,83,84
 276 -368 276 -368 286 -353 c 0,85,86
 335 -280 335 -280 370 -190 c 128,-1,87
 405 -100 405 -100 405 -69 c 0,88,89
 405 -35 405 -35 379 30 c 2,90,-1
 268 324 l 2,91,92
 245 381 245 381 131 696 c 0,93,94
 124 716 124 716 113 726 c 1,95,-1
 45 751 l 1,96,-1
 24 755 l 2,97,98
 7 762 7 762 7 775 c 1,99,-1
 12 788 l 1,0,1
EndSplineSet
EndChar

StartChar: z
Encoding: 122 122 90
Width: 875
GlyphClass: 1
Flags: W
LayerCount: 2
Fore
SplineSet
54 -3 m 1,0,-1
 55 18 l 1,1,2
 174 152 174 152 222 214 c 2,3,-1
 302 316 l 2,4,5
 315 330 315 330 415 445 c 2,6,-1
 505 550 l 2,7,8
 534 581 534 581 628 709 c 1,9,10
 619 715 619 715 607 715 c 2,11,-1
 566 716 l 2,12,13
 493 718 493 718 376 714 c 0,14,15
 293 711 293 711 248 694 c 0,16,17
 215 682 215 682 189 656 c 0,18,19
 148 615 148 615 130 579 c 0,20,21
 121 561 121 561 101 549 c 1,22,23
 90 550 90 550 85 559 c 1,24,25
 89 570 89 570 103.5 612.5 c 128,-1,26
 118 655 118 655 128 690 c 0,27,28
 161 801 161 801 188 866 c 1,29,-1
 224 866 l 1,30,31
 222 853 222 853 221 847 c 0,32,33
 216 818 216 818 216 803 c 0,34,35
 216 782 216 782 234 773 c 0,36,37
 259 759 259 759 398 759 c 0,38,39
 431 759 431 759 476 761 c 0,40,41
 658 770 658 770 706 770 c 0,42,43
 725 770 725 770 793 766 c 1,44,45
 794 755 794 755 794 747 c 0,46,47
 794 730 794 730 788 721 c 0,48,49
 764 679 764 679 704 601 c 2,50,-1
 500 352 l 1,51,-1
 245 42 l 1,52,53
 265 42 265 42 311 40 c 2,54,-1
 552 40 l 2,55,56
 594 39 594 39 635.5 59 c 128,-1,57
 677 79 677 79 710.5 126.5 c 128,-1,58
 744 174 744 174 762 238 c 1,59,60
 770 243 770 243 778 243 c 0,61,62
 790 243 790 243 797 233 c 1,63,-1
 776 91 l 2,64,65
 767 11 767 11 754 -6 c 1,66,-1
 148 -5 l 1,67,-1
 86 -5 l 2,68,69
 68 -5 68 -5 54 -3 c 1,0,-1
EndSplineSet
EndChar

StartChar: braceleft
Encoding: 123 123 91
Width: 981
GlyphClass: 1
Flags: W
LayerCount: 2
Fore
SplineSet
841 -407 m 1,0,-1
 841 -442 l 1,1,2
 674 -419 674 -419 569.5 -306.5 c 128,-1,3
 465 -194 465 -194 465 -58 c 0,4,5
 465 16 465 16 488 110.5 c 128,-1,6
 511 205 511 205 511 261 c 0,7,8
 511 331 511 331 450 393.5 c 128,-1,9
 389 456 389 456 283 470 c 1,10,-1
 283 511 l 1,11,12
 389 525 389 525 450 587 c 128,-1,13
 511 649 511 649 511 720 c 0,14,15
 511 776 511 776 488 870.5 c 128,-1,16
 465 965 465 965 465 1039 c 0,17,18
 465 1174 465 1174 569.5 1287 c 128,-1,19
 674 1400 674 1400 841 1422 c 1,20,-1
 841 1387 l 1,21,22
 724 1359 724 1359 669.5 1296 c 128,-1,23
 615 1233 615 1233 615 1159 c 0,24,25
 615 1097 615 1097 637.5 1000.5 c 128,-1,26
 660 904 660 904 660 836 c 0,27,28
 660 735 660 735 586 640 c 128,-1,29
 512 545 512 545 365 493 c 1,30,31
 509 440 509 440 584.5 343 c 128,-1,32
 660 246 660 246 660 145 c 0,33,34
 660 77 660 77 637.5 -19.5 c 128,-1,35
 615 -116 615 -116 615 -178 c 0,36,37
 615 -251 615 -251 669.5 -314.5 c 128,-1,38
 724 -378 724 -378 841 -407 c 1,0,-1
EndSplineSet
EndChar

StartChar: bar
Encoding: 124 124 92
Width: 1024
GlyphClass: 1
Flags: W
LayerCount: 2
Fore
SplineSet
468 1339 m 1,0,-1
 557 1339 l 1,1,-1
 557 -528 l 1,2,-1
 468 -528 l 1,3,-1
 468 1339 l 1,0,-1
EndSplineSet
EndChar

StartChar: braceright
Encoding: 125 125 93
Width: 981
GlyphClass: 1
Flags: W
LayerCount: 2
Fore
SplineSet
177 1387 m 1,0,-1
 177 1422 l 1,1,2
 343 1400 343 1400 448 1287.5 c 128,-1,3
 553 1175 553 1175 553 1039 c 0,4,5
 553 965 553 965 530 870.5 c 128,-1,6
 507 776 507 776 507 719 c 0,7,8
 507 650 507 650 567.5 587.5 c 128,-1,9
 628 525 628 525 735 511 c 1,10,-1
 735 470 l 1,11,12
 628 456 628 456 567.5 394 c 128,-1,13
 507 332 507 332 507 261 c 0,14,15
 507 205 507 205 530 110.5 c 128,-1,16
 553 16 553 16 553 -58 c 0,17,18
 553 -193 553 -193 448.5 -306 c 128,-1,19
 344 -419 344 -419 177 -442 c 1,20,-1
 177 -407 l 1,21,22
 294 -378 294 -378 348.5 -315 c 128,-1,23
 403 -252 403 -252 403 -178 c 0,24,25
 403 -116 403 -116 380 -19.5 c 128,-1,26
 357 77 357 77 357 144 c 0,27,28
 357 246 357 246 431.5 341 c 128,-1,29
 506 436 506 436 653 488 c 1,30,31
 509 541 509 541 433 638 c 128,-1,32
 357 735 357 735 357 836 c 0,33,34
 357 904 357 904 380 1000.5 c 128,-1,35
 403 1097 403 1097 403 1159 c 0,36,37
 403 1232 403 1232 348.5 1295.5 c 128,-1,38
 294 1359 294 1359 177 1387 c 1,0,-1
EndSplineSet
EndChar

StartChar: asciitilde
Encoding: 126 126 94
Width: 1365
GlyphClass: 1
Flags: W
LayerCount: 2
Fore
SplineSet
1172 773 m 1,0,-1
 1215 773 l 1,1,2
 1212 646 1212 646 1142.5 572.5 c 128,-1,3
 1073 499 1073 499 972 499 c 0,4,5
 926 499 926 499 881 512 c 0,6,7
 821 530 821 530 600 621 c 0,8,9
 444 684 444 684 380 684 c 0,10,11
 309 684 309 684 261 641 c 128,-1,12
 213 598 213 598 193 501 c 1,13,-1
 150 501 l 1,14,15
 157 634 157 634 224 704.5 c 128,-1,16
 291 775 291 775 382 775 c 0,17,18
 426 775 426 775 471 762 c 0,19,20
 574 732 574 732 762 652 c 0,21,22
 916 586 916 586 985 586 c 0,23,24
 1060 586 1060 586 1111 634 c 128,-1,25
 1162 682 1162 682 1172 773 c 1,0,-1
EndSplineSet
EndChar
